<svg width="1280" height="720" viewBox="0 0 1280 720" fill="none" xmlns="http://www.w3.org/2000/svg">
<g clip-path="url(#clip0_363_1612)">
<path d="M1280 0H0V720H1280V0Z" fill="#F5F7F8"/>
<path d="M1280 0H0V64H1280V0Z" fill="#0B5563"/>
<path d="M1280 62H0V64H1280V62Z" fill="#0CAA9E"/>
<path d="M39.3636 39.2557C38.0398 39.2557 36.8949 38.9744 35.929 38.4119C34.9688 37.8437 34.2273 37.054 33.7045 36.0426C33.1818 35.0256 32.9205 33.8466 32.9205 32.5057C32.9205 31.1534 33.1818 29.9716 33.7045 28.9602C34.2273 27.9432 34.9688 27.1534 35.929 26.5909C36.8949 26.0227 38.0398 25.7386 39.3636 25.7386C40.6875 25.7386 41.8295 26.0227 42.7898 26.5909C43.7557 27.1534 44.5 27.9432 45.0227 28.9602C45.5455 29.9716 45.8068 31.1534 45.8068 32.5057C45.8068 33.8466 45.5455 35.0256 45.0227 36.0426C44.5 37.054 43.7557 37.8437 42.7898 38.4119C41.8295 38.9744 40.6875 39.2557 39.3636 39.2557ZM39.3807 36.4432C39.983 36.4432 40.4858 36.2727 40.8892 35.9318C41.2926 35.5852 41.5966 35.1136 41.8011 34.517C42.0114 33.9205 42.1165 33.2415 42.1165 32.4801C42.1165 31.7188 42.0114 31.0398 41.8011 30.4432C41.5966 29.8466 41.2926 29.375 40.8892 29.0284C40.4858 28.6818 39.983 28.5085 39.3807 28.5085C38.7727 28.5085 38.2614 28.6818 37.8466 29.0284C37.4375 29.375 37.1278 29.8466 36.9176 30.4432C36.7131 31.0398 36.6108 31.7188 36.6108 32.4801C36.6108 33.2415 36.7131 33.9205 36.9176 34.517C37.1278 35.1136 37.4375 35.5852 37.8466 35.9318C38.2614 36.2727 38.7727 36.4432 39.3807 36.4432ZM51.7983 21.5455V39H48.1676V21.5455H51.7983ZM54.7067 39V25.9091H58.3374V39H54.7067ZM56.5305 24.2216C55.9908 24.2216 55.5277 24.0426 55.1413 23.6847C54.7607 23.321 54.5703 22.8864 54.5703 22.3807C54.5703 21.8807 54.7607 21.4517 55.1413 21.0938C55.5277 20.7301 55.9908 20.5483 56.5305 20.5483C57.0703 20.5483 57.5305 20.7301 57.9112 21.0938C58.2976 21.4517 58.4908 21.8807 58.4908 22.3807C58.4908 22.8864 58.2976 23.321 57.9112 23.6847C57.5305 24.0426 57.0703 24.2216 56.5305 24.2216ZM72.1378 29.642L68.8139 29.8466C68.7571 29.5625 68.6349 29.3068 68.4474 29.0795C68.2599 28.8466 68.0128 28.6619 67.706 28.5256C67.4048 28.3835 67.044 28.3125 66.6236 28.3125C66.0611 28.3125 65.5866 28.4318 65.2003 28.6705C64.8139 28.9034 64.6207 29.2159 64.6207 29.608C64.6207 29.9205 64.7457 30.1847 64.9957 30.4006C65.2457 30.6165 65.6747 30.7898 66.2827 30.9205L68.652 31.3977C69.9247 31.6591 70.8736 32.0795 71.4986 32.6591C72.1236 33.2386 72.4361 34 72.4361 34.9432C72.4361 35.8011 72.1832 36.554 71.6776 37.2017C71.1776 37.8494 70.4901 38.3551 69.6151 38.7188C68.7457 39.0767 67.7429 39.2557 66.6065 39.2557C64.8736 39.2557 63.4929 38.8949 62.4645 38.1733C61.4418 37.446 60.8423 36.4574 60.6662 35.2074L64.2372 35.0199C64.3452 35.5483 64.6065 35.9517 65.0213 36.2301C65.4361 36.5028 65.9673 36.6392 66.6151 36.6392C67.2514 36.6392 67.7628 36.517 68.1491 36.2727C68.5412 36.0227 68.7401 35.7017 68.7457 35.3097C68.7401 34.9801 68.6009 34.7102 68.3281 34.5C68.0554 34.2841 67.6349 34.1193 67.0668 34.0057L64.7997 33.554C63.5213 33.2983 62.5696 32.8551 61.9446 32.2244C61.3253 31.5937 61.0156 30.7898 61.0156 29.8125C61.0156 28.9716 61.2429 28.2472 61.6974 27.6392C62.1577 27.0312 62.8026 26.5625 63.6321 26.233C64.4673 25.9034 65.4446 25.7386 66.5639 25.7386C68.2173 25.7386 69.5185 26.0881 70.4673 26.7869C71.4219 27.4858 71.9787 28.4375 72.1378 29.642ZM81.6854 25.9091V28.6364H73.8018V25.9091H81.6854ZM75.5916 22.7727H79.2223V34.9773C79.2223 35.3125 79.2734 35.5739 79.3757 35.7614C79.478 35.9432 79.62 36.071 79.8018 36.1449C79.9893 36.2187 80.2053 36.2557 80.4496 36.2557C80.62 36.2557 80.7905 36.2415 80.9609 36.2131C81.1314 36.179 81.2621 36.1534 81.353 36.1364L81.924 38.8381C81.7422 38.8949 81.4865 38.9602 81.157 39.0341C80.8274 39.1136 80.4268 39.1619 79.9553 39.179C79.0803 39.2131 78.3132 39.0966 77.6541 38.8295C77.0007 38.5625 76.4922 38.1477 76.1286 37.5852C75.7649 37.0227 75.5859 36.3125 75.5916 35.4545V22.7727Z" fill="white"/>
<path d="M86.1726 39.2216C85.6101 39.2216 85.1271 39.0227 84.7237 38.625C84.326 38.2216 84.1271 37.7386 84.1271 37.1761C84.1271 36.6193 84.326 36.142 84.7237 35.7443C85.1271 35.3466 85.6101 35.1477 86.1726 35.1477C86.718 35.1477 87.1953 35.3466 87.6044 35.7443C88.0135 36.142 88.218 36.6193 88.218 37.1761C88.218 37.5511 88.1214 37.8949 87.9283 38.2074C87.7408 38.5142 87.4936 38.7614 87.1868 38.9489C86.88 39.1307 86.5419 39.2216 86.1726 39.2216Z" fill="#0CAA9E"/>
<path d="M488.323 25.9091L491.487 35.8551H491.609L494.779 25.9091H497.847L493.335 39H489.768L485.249 25.9091H488.323ZM501.082 39.1854C500.455 39.1854 499.897 39.0767 499.407 38.8594C498.917 38.6378 498.529 38.3118 498.244 37.8814C497.962 37.4467 497.822 36.9055 497.822 36.2578C497.822 35.7124 497.922 35.2543 498.122 34.8835C498.322 34.5128 498.595 34.2145 498.94 33.9886C499.286 33.7628 499.678 33.5923 500.116 33.4773C500.56 33.3622 501.024 33.2812 501.51 33.2344C502.081 33.1747 502.541 33.1193 502.891 33.0682C503.24 33.0128 503.494 32.9318 503.651 32.8253C503.809 32.7187 503.888 32.5611 503.888 32.3523V32.3139C503.888 31.9091 503.76 31.5959 503.504 31.3743C503.253 31.1527 502.895 31.0419 502.43 31.0419C501.94 31.0419 501.55 31.1506 501.261 31.3679C500.971 31.581 500.779 31.8494 500.685 32.1733L498.167 31.9688C498.295 31.3722 498.546 30.8565 498.921 30.4219C499.296 29.983 499.78 29.6463 500.372 29.4119C500.969 29.1733 501.659 29.054 502.443 29.054C502.989 29.054 503.511 29.1179 504.009 29.2457C504.512 29.3736 504.957 29.5717 505.345 29.8402C505.737 30.1087 506.046 30.4538 506.272 30.8757C506.498 31.2933 506.611 31.794 506.611 32.3778V39H504.028V37.6385H503.952C503.794 37.9453 503.583 38.2159 503.319 38.4503C503.055 38.6804 502.737 38.8615 502.366 38.9936C501.996 39.1214 501.567 39.1854 501.082 39.1854ZM501.862 37.3061C502.262 37.3061 502.616 37.2273 502.923 37.0696C503.229 36.9077 503.47 36.6903 503.645 36.4176C503.82 36.1449 503.907 35.8359 503.907 35.4908V34.4489C503.822 34.5043 503.705 34.5554 503.555 34.6023C503.411 34.6449 503.246 34.6854 503.063 34.7237C502.88 34.7578 502.697 34.7898 502.513 34.8196C502.33 34.8452 502.164 34.8686 502.015 34.8899C501.695 34.9368 501.416 35.0114 501.178 35.1136C500.939 35.2159 500.754 35.3544 500.621 35.5291C500.489 35.6996 500.423 35.9126 500.423 36.1683C500.423 36.5391 500.558 36.8224 500.826 37.0185C501.099 37.2102 501.444 37.3061 501.862 37.3061ZM511.446 25.9091V39H508.723V25.9091H511.446ZM518.064 39.1918C517.071 39.1918 516.212 38.9808 515.488 38.5589C514.768 38.1328 514.211 37.5405 513.819 36.782C513.427 36.0192 513.231 35.1349 513.231 34.1293C513.231 33.1151 513.427 32.2287 513.819 31.4702C514.211 30.7074 514.768 30.1151 515.488 29.6932C516.212 29.267 517.071 29.054 518.064 29.054C519.057 29.054 519.913 29.267 520.633 29.6932C521.358 30.1151 521.916 30.7074 522.308 31.4702C522.7 32.2287 522.896 33.1151 522.896 34.1293C522.896 35.1349 522.7 36.0192 522.308 36.782C521.916 37.5405 521.358 38.1328 520.633 38.5589C519.913 38.9808 519.057 39.1918 518.064 39.1918ZM518.077 37.0824C518.528 37.0824 518.905 36.9545 519.208 36.6989C519.51 36.4389 519.738 36.0852 519.892 35.6378C520.05 35.1903 520.128 34.6811 520.128 34.1101C520.128 33.5391 520.05 33.0298 519.892 32.5824C519.738 32.1349 519.51 31.7812 519.208 31.5213C518.905 31.2614 518.528 31.1314 518.077 31.1314C517.621 31.1314 517.237 31.2614 516.926 31.5213C516.619 31.7812 516.387 32.1349 516.229 32.5824C516.076 33.0298 515.999 33.5391 515.999 34.1101C515.999 34.6811 516.076 35.1903 516.229 35.6378C516.387 36.0852 516.619 36.4389 516.926 36.6989C517.237 36.9545 517.621 37.0824 518.077 37.0824ZM524.667 39V29.1818H527.307V30.8949H527.409C527.588 30.2855 527.888 29.8253 528.31 29.5142C528.732 29.1989 529.218 29.0412 529.768 29.0412C529.904 29.0412 530.051 29.0497 530.209 29.0668C530.366 29.0838 530.505 29.1072 530.624 29.1371V31.5533C530.496 31.5149 530.319 31.4808 530.094 31.451C529.868 31.4212 529.661 31.4062 529.474 31.4062C529.073 31.4062 528.715 31.4936 528.4 31.6683C528.089 31.8388 527.841 32.0774 527.658 32.3842C527.479 32.6911 527.39 33.0447 527.39 33.4453V39H524.667ZM539.816 39.1598C539.07 39.1598 538.395 38.968 537.79 38.5845C537.189 38.1967 536.711 37.6278 536.358 36.8778C536.008 36.1236 535.834 35.1989 535.834 34.1037C535.834 32.9787 536.015 32.0433 536.377 31.2976C536.739 30.5476 537.221 29.9872 537.822 29.6165C538.427 29.2415 539.089 29.054 539.809 29.054C540.359 29.054 540.817 29.1477 541.184 29.3352C541.555 29.5185 541.853 29.7486 542.079 30.0256C542.309 30.2983 542.483 30.5668 542.603 30.831H542.686V25.9091H545.403V39H542.718V37.4276H542.603C542.475 37.7003 542.294 37.9709 542.059 38.2393C541.829 38.5036 541.529 38.723 541.158 38.8977C540.792 39.0724 540.344 39.1598 539.816 39.1598ZM540.679 36.9929C541.118 36.9929 541.488 36.8736 541.791 36.6349C542.098 36.392 542.332 36.0533 542.494 35.6186C542.66 35.1839 542.743 34.6747 542.743 34.0909C542.743 33.5071 542.662 33 542.501 32.5696C542.339 32.1392 542.104 31.8068 541.797 31.5724C541.491 31.3381 541.118 31.2209 540.679 31.2209C540.231 31.2209 539.854 31.3423 539.547 31.5852C539.241 31.8281 539.008 32.1648 538.851 32.5952C538.693 33.0256 538.614 33.5241 538.614 34.0909C538.614 34.6619 538.693 35.1669 538.851 35.6058C539.013 36.0405 539.245 36.3814 539.547 36.6286C539.854 36.8714 540.231 36.9929 540.679 36.9929ZM552.077 39.1918C551.085 39.1918 550.226 38.9808 549.501 38.5589C548.781 38.1328 548.225 37.5405 547.833 36.782C547.441 36.0192 547.245 35.1349 547.245 34.1293C547.245 33.1151 547.441 32.2287 547.833 31.4702C548.225 30.7074 548.781 30.1151 549.501 29.6932C550.226 29.267 551.085 29.054 552.077 29.054C553.07 29.054 553.927 29.267 554.647 29.6932C555.371 30.1151 555.93 30.7074 556.322 31.4702C556.714 32.2287 556.91 33.1151 556.91 34.1293C556.91 35.1349 556.714 36.0192 556.322 36.782C555.93 37.5405 555.371 38.1328 554.647 38.5589C553.927 38.9808 553.07 39.1918 552.077 39.1918ZM552.09 37.0824C552.542 37.0824 552.919 36.9545 553.222 36.6989C553.524 36.4389 553.752 36.0852 553.906 35.6378C554.063 35.1903 554.142 34.6811 554.142 34.1101C554.142 33.5391 554.063 33.0298 553.906 32.5824C553.752 32.1349 553.524 31.7812 553.222 31.5213C552.919 31.2614 552.542 31.1314 552.09 31.1314C551.634 31.1314 551.251 31.2614 550.94 31.5213C550.633 31.7812 550.401 32.1349 550.243 32.5824C550.089 33.0298 550.013 33.5391 550.013 34.1101C550.013 34.6811 550.089 35.1903 550.243 35.6378C550.401 36.0852 550.633 36.4389 550.94 36.6989C551.251 36.9545 551.634 37.0824 552.09 37.0824ZM574.448 30.4922H571.648C571.597 30.13 571.493 29.8082 571.335 29.527C571.177 29.2415 570.975 28.9986 570.728 28.7983C570.481 28.598 570.195 28.4446 569.871 28.3381C569.552 28.2315 569.204 28.1783 568.829 28.1783C568.152 28.1783 567.562 28.3466 567.059 28.6832C566.556 29.0156 566.166 29.5014 565.889 30.1406C565.612 30.7756 565.474 31.5469 565.474 32.4545C565.474 33.3878 565.612 34.1719 565.889 34.8068C566.17 35.4418 566.562 35.9212 567.065 36.245C567.568 36.5689 568.15 36.7308 568.81 36.7308C569.181 36.7308 569.524 36.6818 569.839 36.5838C570.159 36.4858 570.442 36.343 570.689 36.1555C570.937 35.9638 571.141 35.7315 571.303 35.4588C571.469 35.1861 571.584 34.875 571.648 34.5256L574.448 34.5384C574.376 35.1392 574.194 35.7188 573.905 36.277C573.619 36.831 573.233 37.3274 572.748 37.7663C572.266 38.201 571.691 38.5462 571.022 38.8018C570.357 39.0533 569.605 39.179 568.765 39.179C567.598 39.179 566.554 38.9148 565.633 38.3864C564.717 37.858 563.993 37.093 563.46 36.0916C562.932 35.0902 562.667 33.8778 562.667 32.4545C562.667 31.027 562.936 29.8125 563.473 28.8111C564.01 27.8097 564.738 27.0469 565.659 26.5227C566.579 25.9943 567.615 25.7301 568.765 25.7301C569.524 25.7301 570.227 25.8366 570.875 26.0497C571.527 26.2628 572.104 26.5739 572.607 26.983C573.11 27.3878 573.519 27.8842 573.834 28.4723C574.154 29.0604 574.358 29.7337 574.448 30.4922ZM579.105 25.9091V39H576.382V25.9091H579.105ZM581.286 39V29.1818H584.009V39H581.286ZM582.654 27.9162C582.249 27.9162 581.902 27.782 581.612 27.5135C581.326 27.2408 581.184 26.9148 581.184 26.5355C581.184 26.1605 581.326 25.8388 581.612 25.5703C581.902 25.2976 582.249 25.1612 582.654 25.1612C583.059 25.1612 583.404 25.2976 583.689 25.5703C583.979 25.8388 584.124 26.1605 584.124 26.5355C584.124 26.9148 583.979 27.2408 583.689 27.5135C583.404 27.782 583.059 27.9162 582.654 27.9162ZM590.665 39.1918C589.655 39.1918 588.785 38.9872 588.057 38.5781C587.332 38.1648 586.774 37.581 586.382 36.8267C585.99 36.0682 585.794 35.1712 585.794 34.1357C585.794 33.1257 585.99 32.2393 586.382 31.4766C586.774 30.7138 587.326 30.1193 588.037 29.6932C588.753 29.267 589.593 29.054 590.556 29.054C591.204 29.054 591.807 29.1584 592.365 29.3672C592.927 29.5717 593.417 29.8807 593.835 30.294C594.257 30.7074 594.585 31.2273 594.819 31.8537C595.054 32.4759 595.171 33.2045 595.171 34.0398V34.7876H586.881V33.1001H592.608C592.608 32.7081 592.523 32.3608 592.352 32.0582C592.182 31.7557 591.945 31.5192 591.643 31.3487C591.344 31.174 590.997 31.0866 590.601 31.0866C590.187 31.0866 589.821 31.1825 589.501 31.3743C589.186 31.5618 588.939 31.8153 588.76 32.1349C588.581 32.4503 588.489 32.8018 588.485 33.1896V34.794C588.485 35.2798 588.574 35.6996 588.753 36.0533C588.937 36.407 589.194 36.6797 589.527 36.8714C589.859 37.0632 590.253 37.1591 590.709 37.1591C591.012 37.1591 591.289 37.1165 591.54 37.0312C591.792 36.946 592.007 36.8182 592.186 36.6477C592.365 36.4773 592.501 36.2685 592.595 36.0213L595.113 36.1875C594.986 36.7926 594.724 37.321 594.327 37.7727C593.935 38.2202 593.428 38.5696 592.806 38.821C592.188 39.0682 591.474 39.1918 590.665 39.1918ZM599.671 33.3239V39H596.948V29.1818H599.543V30.9141H599.658C599.876 30.343 600.24 29.8913 600.751 29.5589C601.263 29.2223 601.883 29.054 602.611 29.054C603.293 29.054 603.888 29.2031 604.395 29.5014C604.902 29.7997 605.296 30.2259 605.577 30.7798C605.858 31.3295 605.999 31.9858 605.999 32.7486V39H603.276V33.2344C603.28 32.6335 603.127 32.1648 602.816 31.8281C602.505 31.4872 602.077 31.3168 601.531 31.3168C601.165 31.3168 600.841 31.3956 600.559 31.5533C600.282 31.7109 600.065 31.9411 599.907 32.2436C599.754 32.5419 599.675 32.902 599.671 33.3239ZM613.368 29.1818V31.2273H607.455V29.1818H613.368ZM608.797 26.8295H611.52V35.983C611.52 36.2344 611.559 36.4304 611.635 36.571C611.712 36.7074 611.819 36.8033 611.955 36.8587C612.096 36.9141 612.257 36.9418 612.441 36.9418C612.569 36.9418 612.696 36.9311 612.824 36.9098C612.952 36.8842 613.05 36.8651 613.118 36.8523L613.547 38.8786C613.41 38.9212 613.218 38.9702 612.971 39.0256C612.724 39.0852 612.424 39.1214 612.07 39.1342C611.414 39.1598 610.838 39.0724 610.344 38.8722C609.854 38.6719 609.473 38.3608 609.2 37.9389C608.927 37.517 608.793 36.9844 608.797 36.3409V26.8295ZM619.51 39.1918C618.5 39.1918 617.631 38.9872 616.902 38.5781C616.178 38.1648 615.62 37.581 615.228 36.8267C614.836 36.0682 614.64 35.1712 614.64 34.1357C614.64 33.1257 614.836 32.2393 615.228 31.4766C615.62 30.7138 616.172 30.1193 616.883 29.6932C617.599 29.267 618.439 29.054 619.402 29.054C620.049 29.054 620.652 29.1584 621.211 29.3672C621.773 29.5717 622.263 29.8807 622.681 30.294C623.103 30.7074 623.431 31.2273 623.665 31.8537C623.9 32.4759 624.017 33.2045 624.017 34.0398V34.7876H615.726V33.1001H621.453C621.453 32.7081 621.368 32.3608 621.198 32.0582C621.027 31.7557 620.791 31.5192 620.488 31.3487C620.19 31.174 619.843 31.0866 619.446 31.0866C619.033 31.0866 618.667 31.1825 618.347 31.3743C618.032 31.5618 617.784 31.8153 617.605 32.1349C617.426 32.4503 617.335 32.8018 617.331 33.1896V34.794C617.331 35.2798 617.42 35.6996 617.599 36.0533C617.782 36.407 618.04 36.6797 618.373 36.8714C618.705 37.0632 619.099 37.1591 619.555 37.1591C619.858 37.1591 620.135 37.1165 620.386 37.0312C620.637 36.946 620.853 36.8182 621.032 36.6477C621.211 36.4773 621.347 36.2685 621.441 36.0213L623.959 36.1875C623.831 36.7926 623.569 37.321 623.173 37.7727C622.781 38.2202 622.274 38.5696 621.652 38.821C621.034 39.0682 620.32 39.1918 619.51 39.1918ZM633.974 39.1918C633.07 39.1918 632.291 39.0298 631.634 38.706C630.978 38.3821 630.473 37.9432 630.119 37.3892C629.77 36.831 629.595 36.2088 629.595 35.5227C629.595 35.0114 629.698 34.5575 629.902 34.1612C630.107 33.7649 630.392 33.4006 630.759 33.0682C631.125 32.7315 631.551 32.397 632.037 32.0646L634.575 30.3963C634.903 30.1875 635.144 29.968 635.297 29.7379C635.45 29.5036 635.527 29.25 635.527 28.9773C635.527 28.7173 635.423 28.4766 635.214 28.255C635.005 28.0334 634.709 27.9247 634.325 27.929C634.07 27.929 633.848 27.9865 633.661 28.1016C633.473 28.2124 633.326 28.3594 633.22 28.5426C633.117 28.7216 633.066 28.9219 633.066 29.1435C633.066 29.4162 633.143 29.6932 633.296 29.9744C633.45 30.2557 633.654 30.554 633.91 30.8693C634.166 31.1804 634.445 31.517 634.747 31.8793L640.954 39H638.116L632.938 33.2344C632.597 32.8466 632.257 32.4418 631.916 32.0199C631.579 31.5937 631.298 31.142 631.072 30.6648C630.846 30.1832 630.733 29.6612 630.733 29.0987C630.733 28.4638 630.88 27.8928 631.174 27.3857C631.472 26.8786 631.89 26.478 632.427 26.1839C632.964 25.8857 633.59 25.7365 634.306 25.7365C635.005 25.7365 635.608 25.8793 636.115 26.1648C636.627 26.446 637.019 26.821 637.291 27.2898C637.568 27.7543 637.707 28.2656 637.707 28.8239C637.707 29.4418 637.553 30.0021 637.247 30.505C636.944 31.0036 636.518 31.451 635.968 31.8473L633.296 33.7713C632.934 34.0355 632.666 34.3061 632.491 34.5831C632.32 34.8558 632.235 35.1179 632.235 35.3693C632.235 35.6804 632.312 35.9595 632.465 36.2067C632.619 36.4538 632.836 36.6499 633.117 36.7947C633.399 36.9354 633.729 37.0057 634.108 37.0057C634.568 37.0057 635.022 36.9013 635.47 36.6925C635.921 36.4794 636.33 36.179 636.697 35.7912C637.068 35.3991 637.364 34.9347 637.585 34.3977C637.807 33.8608 637.918 33.2663 637.918 32.6143H640.174C640.174 33.4155 640.087 34.1378 639.912 34.7812C639.737 35.4205 639.494 35.9787 639.183 36.456C638.872 36.929 638.517 37.3168 638.116 37.6193C637.988 37.7003 637.865 37.777 637.745 37.8494C637.626 37.9219 637.502 37.9986 637.374 38.0795C636.889 38.4716 636.345 38.755 635.744 38.9297C635.148 39.1044 634.558 39.1918 633.974 39.1918ZM646.306 39V25.9091H651.471C652.459 25.9091 653.303 26.0859 654.002 26.4396C654.705 26.7891 655.24 27.2855 655.606 27.929C655.977 28.5682 656.162 29.3203 656.162 30.1854C656.162 31.0547 655.975 31.8026 655.6 32.429C655.225 33.0511 654.681 33.5284 653.97 33.8608C653.262 34.1932 652.406 34.3594 651.4 34.3594H647.942V32.1349H650.953C651.481 32.1349 651.92 32.0625 652.27 31.9176C652.619 31.7727 652.879 31.5554 653.049 31.2656C653.224 30.9759 653.311 30.6158 653.311 30.1854C653.311 29.7507 653.224 29.3842 653.049 29.0859C652.879 28.7876 652.617 28.5618 652.263 28.4084C651.914 28.2507 651.473 28.1719 650.94 28.1719H649.074V39H646.306ZM653.375 33.0426L656.629 39H653.574L650.39 33.0426H653.375ZM662.383 39.1918C661.373 39.1918 660.504 38.9872 659.775 38.5781C659.051 38.1648 658.493 37.581 658.101 36.8267C657.709 36.0682 657.513 35.1712 657.513 34.1357C657.513 33.1257 657.709 32.2393 658.101 31.4766C658.493 30.7138 659.045 30.1193 659.756 29.6932C660.472 29.267 661.312 29.054 662.275 29.054C662.922 29.054 663.525 29.1584 664.084 29.3672C664.646 29.5717 665.136 29.8807 665.554 30.294C665.976 30.7074 666.304 31.2273 666.538 31.8537C666.773 32.4759 666.89 33.2045 666.89 34.0398V34.7876H658.599V33.1001H664.327C664.327 32.7081 664.241 32.3608 664.071 32.0582C663.9 31.7557 663.664 31.5192 663.361 31.3487C663.063 31.174 662.716 31.0866 662.319 31.0866C661.906 31.0866 661.54 31.1825 661.22 31.3743C660.905 31.5618 660.657 31.8153 660.479 32.1349C660.3 32.4503 660.208 32.8018 660.204 33.1896V34.794C660.204 35.2798 660.293 35.6996 660.472 36.0533C660.655 36.407 660.913 36.6797 661.246 36.8714C661.578 37.0632 661.972 37.1591 662.428 37.1591C662.731 37.1591 663.008 37.1165 663.259 37.0312C663.51 36.946 663.726 36.8182 663.905 36.6477C664.084 36.4773 664.22 36.2685 664.314 36.0213L666.832 36.1875C666.704 36.7926 666.442 37.321 666.046 37.7727C665.654 38.2202 665.147 38.5696 664.525 38.821C663.907 39.0682 663.193 39.1918 662.383 39.1918ZM673.103 39.1918C672.097 39.1918 671.232 38.9787 670.508 38.5526C669.787 38.1222 669.233 37.5256 668.846 36.7628C668.462 36 668.27 35.1222 668.27 34.1293C668.27 33.1236 668.464 32.2415 668.852 31.483C669.244 30.7202 669.8 30.1257 670.52 29.6996C671.241 29.2692 672.097 29.054 673.09 29.054C673.947 29.054 674.697 29.2095 675.34 29.5206C675.983 29.8317 676.493 30.2685 676.868 30.831C677.243 31.3935 677.449 32.054 677.488 32.8125H674.918C674.846 32.3224 674.654 31.9283 674.343 31.63C674.036 31.3274 673.633 31.1761 673.135 31.1761C672.713 31.1761 672.344 31.2912 672.029 31.5213C671.718 31.7472 671.475 32.0774 671.3 32.5121C671.126 32.9467 671.038 33.473 671.038 34.0909C671.038 34.7173 671.123 35.25 671.294 35.6889C671.469 36.1278 671.714 36.4624 672.029 36.6925C672.344 36.9226 672.713 37.0376 673.135 37.0376C673.446 37.0376 673.725 36.9737 673.972 36.8459C674.224 36.718 674.43 36.5327 674.592 36.2898C674.758 36.0426 674.867 35.7464 674.918 35.4013H677.488C677.445 36.1513 677.241 36.8118 676.874 37.3828C676.512 37.9496 676.011 38.3928 675.372 38.7124C674.733 39.032 673.976 39.1918 673.103 39.1918ZM683.706 39.1918C682.696 39.1918 681.826 38.9872 681.098 38.5781C680.373 38.1648 679.815 37.581 679.423 36.8267C679.031 36.0682 678.835 35.1712 678.835 34.1357C678.835 33.1257 679.031 32.2393 679.423 31.4766C679.815 30.7138 680.367 30.1193 681.078 29.6932C681.794 29.267 682.634 29.054 683.597 29.054C684.245 29.054 684.848 29.1584 685.406 29.3672C685.968 29.5717 686.458 29.8807 686.876 30.294C687.298 30.7074 687.626 31.2273 687.86 31.8537C688.095 32.4759 688.212 33.2045 688.212 34.0398V34.7876H679.922V33.1001H685.649C685.649 32.7081 685.564 32.3608 685.393 32.0582C685.223 31.7557 684.986 31.5192 684.684 31.3487C684.385 31.174 684.038 31.0866 683.642 31.0866C683.228 31.0866 682.862 31.1825 682.542 31.3743C682.227 31.5618 681.98 31.8153 681.801 32.1349C681.622 32.4503 681.53 32.8018 681.526 33.1896V34.794C681.526 35.2798 681.615 35.6996 681.794 36.0533C681.978 36.407 682.235 36.6797 682.568 36.8714C682.9 37.0632 683.294 37.1591 683.75 37.1591C684.053 37.1591 684.33 37.1165 684.581 37.0312C684.833 36.946 685.048 36.8182 685.227 36.6477C685.406 36.4773 685.542 36.2685 685.636 36.0213L688.154 36.1875C688.027 36.7926 687.765 37.321 687.368 37.7727C686.976 38.2202 686.469 38.5696 685.847 38.821C685.229 39.0682 684.515 39.1918 683.706 39.1918ZM689.989 39V29.1818H692.712V39H689.989ZM691.357 27.9162C690.952 27.9162 690.605 27.782 690.315 27.5135C690.029 27.2408 689.887 26.9148 689.887 26.5355C689.887 26.1605 690.029 25.8388 690.315 25.5703C690.605 25.2976 690.952 25.1612 691.357 25.1612C691.762 25.1612 692.107 25.2976 692.392 25.5703C692.682 25.8388 692.827 26.1605 692.827 26.5355C692.827 26.9148 692.682 27.2408 692.392 27.5135C692.107 27.782 691.762 27.9162 691.357 27.9162ZM700.116 29.1818V31.2273H694.203V29.1818H700.116ZM695.545 26.8295H698.268V35.983C698.268 36.2344 698.307 36.4304 698.383 36.571C698.46 36.7074 698.567 36.8033 698.703 36.8587C698.844 36.9141 699.006 36.9418 699.189 36.9418C699.317 36.9418 699.444 36.9311 699.572 36.9098C699.7 36.8842 699.798 36.8651 699.866 36.8523L700.295 38.8786C700.158 38.9212 699.966 38.9702 699.719 39.0256C699.472 39.0852 699.172 39.1214 698.818 39.1342C698.162 39.1598 697.586 39.0724 697.092 38.8722C696.602 38.6719 696.221 38.3608 695.948 37.9389C695.675 37.517 695.541 36.9844 695.545 36.3409V26.8295ZM704.689 39.1854C704.063 39.1854 703.504 39.0767 703.014 38.8594C702.524 38.6378 702.137 38.3118 701.851 37.8814C701.57 37.4467 701.429 36.9055 701.429 36.2578C701.429 35.7124 701.529 35.2543 701.73 34.8835C701.93 34.5128 702.203 34.2145 702.548 33.9886C702.893 33.7628 703.285 33.5923 703.724 33.4773C704.167 33.3622 704.632 33.2812 705.117 33.2344C705.688 33.1747 706.149 33.1193 706.498 33.0682C706.847 33.0128 707.101 32.9318 707.259 32.8253C707.416 32.7187 707.495 32.5611 707.495 32.3523V32.3139C707.495 31.9091 707.367 31.5959 707.112 31.3743C706.86 31.1527 706.502 31.0419 706.038 31.0419C705.548 31.0419 705.158 31.1506 704.868 31.3679C704.578 31.581 704.387 31.8494 704.293 32.1733L701.774 31.9688C701.902 31.3722 702.154 30.8565 702.529 30.4219C702.904 29.983 703.387 29.6463 703.98 29.4119C704.576 29.1733 705.267 29.054 706.051 29.054C706.596 29.054 707.118 29.1179 707.617 29.2457C708.119 29.3736 708.565 29.5717 708.953 29.8402C709.345 30.1087 709.654 30.4538 709.879 30.8757C710.105 31.2933 710.218 31.794 710.218 32.3778V39H707.636V37.6385H707.559C707.401 37.9453 707.191 38.2159 706.926 38.4503C706.662 38.6804 706.345 38.8615 705.974 38.9936C705.603 39.1214 705.175 39.1854 704.689 39.1854ZM705.469 37.3061C705.869 37.3061 706.223 37.2273 706.53 37.0696C706.837 36.9077 707.078 36.6903 707.252 36.4176C707.427 36.1449 707.514 35.8359 707.514 35.4908V34.4489C707.429 34.5043 707.312 34.5554 707.163 34.6023C707.018 34.6449 706.854 34.6854 706.671 34.7237C706.487 34.7578 706.304 34.7898 706.121 34.8196C705.938 34.8452 705.771 34.8686 705.622 34.8899C705.303 34.9368 705.024 35.0114 704.785 35.1136C704.546 35.2159 704.361 35.3544 704.229 35.5291C704.097 35.6996 704.031 35.9126 704.031 36.1683C704.031 36.5391 704.165 36.8224 704.433 37.0185C704.706 37.2102 705.051 37.3061 705.469 37.3061ZM720.971 39.1918C719.961 39.1918 719.092 38.9872 718.363 38.5781C717.639 38.1648 717.081 37.581 716.689 36.8267C716.297 36.0682 716.1 35.1712 716.1 34.1357C716.1 33.1257 716.297 32.2393 716.689 31.4766C717.081 30.7138 717.632 30.1193 718.344 29.6932C719.06 29.267 719.9 29.054 720.863 29.054C721.51 29.054 722.113 29.1584 722.672 29.3672C723.234 29.5717 723.724 29.8807 724.142 30.294C724.564 30.7074 724.892 31.2273 725.126 31.8537C725.36 32.4759 725.478 33.2045 725.478 34.0398V34.7876H717.187V33.1001H722.914C722.914 32.7081 722.829 32.3608 722.659 32.0582C722.488 31.7557 722.252 31.5192 721.949 31.3487C721.651 31.174 721.304 31.0866 720.907 31.0866C720.494 31.0866 720.127 31.1825 719.808 31.3743C719.493 31.5618 719.245 31.8153 719.066 32.1349C718.887 32.4503 718.796 32.8018 718.792 33.1896V34.794C718.792 35.2798 718.881 35.6996 719.06 36.0533C719.243 36.407 719.501 36.6797 719.833 36.8714C720.166 37.0632 720.56 37.1591 721.016 37.1591C721.319 37.1591 721.596 37.1165 721.847 37.0312C722.098 36.946 722.314 36.8182 722.493 36.6477C722.672 36.4773 722.808 36.2685 722.902 36.0213L725.42 36.1875C725.292 36.7926 725.03 37.321 724.634 37.7727C724.242 38.2202 723.735 38.5696 723.113 38.821C722.495 39.0682 721.781 39.1918 720.971 39.1918ZM727.255 39V29.1818H729.85V30.9141H729.965C730.169 30.3388 730.51 29.8849 730.988 29.5526C731.465 29.2202 732.036 29.054 732.701 29.054C733.374 29.054 733.947 29.2223 734.42 29.5589C734.893 29.8913 735.208 30.343 735.366 30.9141H735.468C735.669 30.3516 736.031 29.902 736.555 29.5653C737.083 29.2244 737.708 29.054 738.428 29.054C739.344 29.054 740.088 29.3459 740.659 29.9297C741.234 30.5092 741.522 31.3317 741.522 32.397V39H738.805V32.9339C738.805 32.3885 738.66 31.9794 738.37 31.7067C738.081 31.4339 737.718 31.2976 737.284 31.2976C736.789 31.2976 736.404 31.4553 736.127 31.7706C735.85 32.0817 735.711 32.4929 735.711 33.0043V39H733.071V32.8764C733.071 32.3949 732.933 32.0114 732.656 31.7259C732.383 31.4403 732.023 31.2976 731.576 31.2976C731.273 31.2976 731 31.3743 730.757 31.5277C730.519 31.6768 730.329 31.8878 730.189 32.1605C730.048 32.429 729.978 32.7443 729.978 33.1065V39H727.255ZM747.89 39V25.9091H753.055C754.043 25.9091 754.887 26.0859 755.586 26.4396C756.289 26.7891 756.824 27.2855 757.19 27.929C757.561 28.5682 757.746 29.3203 757.746 30.1854C757.746 31.0547 757.559 31.8026 757.184 32.429C756.809 33.0511 756.265 33.5284 755.554 33.8608C754.846 34.1932 753.99 34.3594 752.984 34.3594H749.526V32.1349H752.537C753.065 32.1349 753.504 32.0625 753.854 31.9176C754.203 31.7727 754.463 31.5554 754.633 31.2656C754.808 30.9759 754.895 30.6158 754.895 30.1854C754.895 29.7507 754.808 29.3842 754.633 29.0859C754.463 28.7876 754.201 28.5618 753.847 28.4084C753.498 28.2507 753.057 28.1719 752.524 28.1719H750.657V39H747.89ZM754.959 33.0426L758.213 39H755.157L751.974 33.0426H754.959ZM759.651 39V29.1818H762.374V39H759.651ZM761.019 27.9162C760.614 27.9162 760.267 27.782 759.977 27.5135C759.692 27.2408 759.549 26.9148 759.549 26.5355C759.549 26.1605 759.692 25.8388 759.977 25.5703C760.267 25.2976 760.614 25.1612 761.019 25.1612C761.424 25.1612 761.769 25.2976 762.055 25.5703C762.344 25.8388 762.489 26.1605 762.489 26.5355C762.489 26.9148 762.344 27.2408 762.055 27.5135C761.769 27.782 761.424 27.9162 761.019 27.9162ZM772.724 31.9815L770.232 32.1349C770.189 31.9219 770.097 31.7301 769.957 31.5597C769.816 31.3849 769.631 31.2464 769.401 31.1442C769.175 31.0376 768.904 30.9844 768.589 30.9844C768.167 30.9844 767.811 31.0739 767.521 31.2528C767.232 31.4276 767.087 31.6619 767.087 31.956C767.087 32.1903 767.18 32.3885 767.368 32.5504C767.555 32.7124 767.877 32.8423 768.333 32.9403L770.11 33.2983C771.065 33.4943 771.776 33.8097 772.245 34.2443C772.714 34.679 772.948 35.25 772.948 35.9574C772.948 36.6009 772.759 37.1655 772.379 37.6513C772.004 38.1371 771.489 38.5163 770.832 38.7891C770.18 39.0575 769.428 39.1918 768.576 39.1918C767.276 39.1918 766.241 38.9212 765.469 38.38C764.702 37.8345 764.253 37.093 764.121 36.1555L766.799 36.0149C766.88 36.4112 767.076 36.7138 767.387 36.9226C767.698 37.1271 768.097 37.2294 768.582 37.2294C769.06 37.2294 769.443 37.1378 769.733 36.9545C770.027 36.767 770.176 36.5263 770.18 36.2322C770.176 35.9851 770.072 35.7827 769.867 35.625C769.663 35.4631 769.347 35.3395 768.921 35.2543L767.221 34.9155C766.262 34.7237 765.548 34.3913 765.08 33.9183C764.615 33.4453 764.383 32.8423 764.383 32.1094C764.383 31.4787 764.553 30.9354 764.894 30.4794C765.239 30.0234 765.723 29.6719 766.345 29.4247C766.972 29.1776 767.705 29.054 768.544 29.054C769.784 29.054 770.76 29.3161 771.472 29.8402C772.188 30.3643 772.605 31.0781 772.724 31.9815ZM779.099 39.1918C778.093 39.1918 777.228 38.9787 776.504 38.5526C775.784 38.1222 775.23 37.5256 774.842 36.7628C774.458 36 774.267 35.1222 774.267 34.1293C774.267 33.1236 774.46 32.2415 774.848 31.483C775.24 30.7202 775.796 30.1257 776.517 29.6996C777.237 29.2692 778.093 29.054 779.086 29.054C779.943 29.054 780.693 29.2095 781.336 29.5206C781.98 29.8317 782.489 30.2685 782.864 30.831C783.239 31.3935 783.445 32.054 783.484 32.8125H780.914C780.842 32.3224 780.65 31.9283 780.339 31.63C780.032 31.3274 779.629 31.1761 779.131 31.1761C778.709 31.1761 778.34 31.2912 778.025 31.5213C777.714 31.7472 777.471 32.0774 777.296 32.5121C777.122 32.9467 777.034 33.473 777.034 34.0909C777.034 34.7173 777.119 35.25 777.29 35.6889C777.465 36.1278 777.71 36.4624 778.025 36.6925C778.34 36.9226 778.709 37.0376 779.131 37.0376C779.442 37.0376 779.721 36.9737 779.968 36.8459C780.22 36.718 780.426 36.5327 780.588 36.2898C780.754 36.0426 780.863 35.7464 780.914 35.4013H783.484C783.441 36.1513 783.237 36.8118 782.87 37.3828C782.508 37.9496 782.007 38.3928 781.368 38.7124C780.729 39.032 779.972 39.1918 779.099 39.1918ZM789.663 39.1918C788.67 39.1918 787.812 38.9808 787.087 38.5589C786.367 38.1328 785.811 37.5405 785.419 36.782C785.027 36.0192 784.831 35.1349 784.831 34.1293C784.831 33.1151 785.027 32.2287 785.419 31.4702C785.811 30.7074 786.367 30.1151 787.087 29.6932C787.812 29.267 788.67 29.054 789.663 29.054C790.656 29.054 791.513 29.267 792.233 29.6932C792.957 30.1151 793.516 30.7074 793.908 31.4702C794.3 32.2287 794.496 33.1151 794.496 34.1293C794.496 35.1349 794.3 36.0192 793.908 36.782C793.516 37.5405 792.957 38.1328 792.233 38.5589C791.513 38.9808 790.656 39.1918 789.663 39.1918ZM789.676 37.0824C790.128 37.0824 790.505 36.9545 790.808 36.6989C791.11 36.4389 791.338 36.0852 791.491 35.6378C791.649 35.1903 791.728 34.6811 791.728 34.1101C791.728 33.5391 791.649 33.0298 791.491 32.5824C791.338 32.1349 791.11 31.7812 790.808 31.5213C790.505 31.2614 790.128 31.1314 789.676 31.1314C789.22 31.1314 788.837 31.2614 788.526 31.5213C788.219 31.7812 787.987 32.1349 787.829 32.5824C787.675 33.0298 787.599 33.5391 787.599 34.1101C787.599 34.6811 787.675 35.1903 787.829 35.6378C787.987 36.0852 788.219 36.4389 788.526 36.6989C788.837 36.9545 789.22 37.0824 789.676 37.0824Z" fill="white"/>
<path d="M24.6321 92V84.7273H27.5014C28.053 84.7273 28.523 84.8326 28.9112 85.0433C29.2995 85.2517 29.5954 85.5417 29.799 85.9134C30.005 86.2827 30.108 86.7088 30.108 87.1918C30.108 87.6747 30.0038 88.1009 29.7955 88.4702C29.5871 88.8395 29.2853 89.1271 28.8899 89.3331C28.4969 89.5391 28.0211 89.642 27.4624 89.642H25.6335V88.4098H27.2138C27.5097 88.4098 27.7536 88.3589 27.9453 88.2571C28.1394 88.1529 28.2839 88.0097 28.3786 87.8274C28.4756 87.6428 28.5241 87.4309 28.5241 87.1918C28.5241 86.9503 28.4756 86.7396 28.3786 86.5597C28.2839 86.3774 28.1394 86.2365 27.9453 86.1371C27.7512 86.0353 27.505 85.9844 27.2067 85.9844H26.1697V92H24.6321ZM31.1067 92V84.7273H36.0073V85.995H32.6444V87.728H35.7551V88.9957H32.6444V90.7322H36.0215V92H31.1067ZM37.2298 92V84.7273H40.0991C40.6483 84.7273 41.1171 84.8255 41.5053 85.022C41.896 85.2161 42.1931 85.492 42.3967 85.8494C42.6026 86.2045 42.7056 86.6224 42.7056 87.103C42.7056 87.5859 42.6014 88.0014 42.3931 88.3494C42.1848 88.6951 41.8829 88.9602 41.4876 89.1449C41.0946 89.3295 40.6187 89.4219 40.06 89.4219H38.1388V88.1861H39.8114C40.105 88.1861 40.3488 88.1458 40.543 88.0653C40.7371 87.9848 40.8815 87.8641 40.9762 87.7031C41.0733 87.5421 41.1218 87.3421 41.1218 87.103C41.1218 86.8615 41.0733 86.6579 40.9762 86.4922C40.8815 86.3265 40.7359 86.201 40.5394 86.1158C40.3453 86.0282 40.1003 85.9844 39.8043 85.9844H38.7674V92H37.2298ZM41.1573 88.6903L42.9648 92H41.2674L39.4989 88.6903H41.1573ZM45.3299 84.7273V92H43.7923V84.7273H45.3299ZM44.0231 84.0241L44.7759 82.4084H46.1751L45.092 84.0241H44.0231ZM53.2782 88.3636C53.2782 89.1567 53.1279 89.8314 52.8272 90.3878C52.5289 90.9441 52.1217 91.3691 51.6056 91.6626C51.0919 91.9538 50.5143 92.0994 49.8727 92.0994C49.2264 92.0994 48.6464 91.9527 48.1326 91.6591C47.6189 91.3655 47.2129 90.9406 46.9146 90.3842C46.6163 89.8279 46.4672 89.1544 46.4672 88.3636C46.4672 87.5705 46.6163 86.8958 46.9146 86.3395C47.2129 85.7831 47.6189 85.3594 48.1326 85.0682C48.6464 84.7746 49.2264 84.6278 49.8727 84.6278C50.5143 84.6278 51.0919 84.7746 51.6056 85.0682C52.1217 85.3594 52.5289 85.7831 52.8272 86.3395C53.1279 86.8958 53.2782 87.5705 53.2782 88.3636ZM51.7193 88.3636C51.7193 87.8499 51.6423 87.4167 51.4885 87.0639C51.3369 86.7112 51.1227 86.4437 50.8457 86.2614C50.5687 86.0791 50.2444 85.9879 49.8727 85.9879C49.501 85.9879 49.1767 86.0791 48.8997 86.2614C48.6227 86.4437 48.4073 86.7112 48.2534 87.0639C48.1019 87.4167 48.0261 87.8499 48.0261 88.3636C48.0261 88.8774 48.1019 89.3106 48.2534 89.6634C48.4073 90.0161 48.6227 90.2836 48.8997 90.4659C49.1767 90.6482 49.501 90.7393 49.8727 90.7393C50.2444 90.7393 50.5687 90.6482 50.8457 90.4659C51.1227 90.2836 51.3369 90.0161 51.4885 89.6634C51.6423 89.3106 51.7193 88.8774 51.7193 88.3636ZM56.9954 92H54.4173V84.7273H57.0167C57.7482 84.7273 58.378 84.8729 58.9059 85.1641C59.4338 85.4529 59.8398 85.8684 60.1239 86.4105C60.4104 86.9527 60.5536 87.6013 60.5536 88.3565C60.5536 89.1141 60.4104 89.7652 60.1239 90.3097C59.8398 90.8542 59.4315 91.272 58.8988 91.5632C58.3685 91.8544 57.734 92 56.9954 92ZM55.9549 90.6825H56.9315C57.386 90.6825 57.7683 90.602 58.0785 90.4411C58.391 90.2777 58.6254 90.0256 58.7816 89.6847C58.9402 89.3414 59.0195 88.8987 59.0195 88.3565C59.0195 87.8191 58.9402 87.38 58.7816 87.0391C58.6254 86.6982 58.3922 86.4472 58.082 86.2862C57.7719 86.1252 57.3896 86.0447 56.935 86.0447H55.9549V90.6825ZM68.3759 88.3636C68.3759 89.1567 68.2256 89.8314 67.9249 90.3878C67.6266 90.9441 67.2194 91.3691 66.7033 91.6626C66.1896 91.9538 65.6119 92.0994 64.9703 92.0994C64.324 92.0994 63.744 91.9527 63.2303 91.6591C62.7166 91.3655 62.3105 90.9406 62.0123 90.3842C61.714 89.8279 61.5648 89.1544 61.5648 88.3636C61.5648 87.5705 61.714 86.8958 62.0123 86.3395C62.3105 85.7831 62.7166 85.3594 63.2303 85.0682C63.744 84.7746 64.324 84.6278 64.9703 84.6278C65.6119 84.6278 66.1896 84.7746 66.7033 85.0682C67.2194 85.3594 67.6266 85.7831 67.9249 86.3395C68.2256 86.8958 68.3759 87.5705 68.3759 88.3636ZM66.8169 88.3636C66.8169 87.8499 66.74 87.4167 66.5861 87.0639C66.4346 86.7112 66.2203 86.4437 65.9434 86.2614C65.6664 86.0791 65.342 85.9879 64.9703 85.9879C64.5987 85.9879 64.2743 86.0791 63.9973 86.2614C63.7203 86.4437 63.5049 86.7112 63.351 87.0639C63.1995 87.4167 63.1238 87.8499 63.1238 88.3636C63.1238 88.8774 63.1995 89.3106 63.351 89.6634C63.5049 90.0161 63.7203 90.2836 63.9973 90.4659C64.2743 90.6482 64.5987 90.7393 64.9703 90.7393C65.342 90.7393 65.6664 90.6482 65.9434 90.4659C66.2203 90.2836 66.4346 90.0161 66.5861 89.6634C66.74 89.3106 66.8169 88.8774 66.8169 88.3636Z" fill="#5A6B6F"/>
<path d="M316.925 71H93.075C88.063 71 84 74.2459 84 78.25V92.75C84 96.7541 88.063 100 93.075 100H316.925C321.937 100 326 96.7541 326 92.75V78.25C326 74.2459 321.937 71 316.925 71Z" fill="white" stroke="#E6EBED"/>
<path d="M347.355 85.995V84.7273H353.328V85.995H351.102V92H349.582V85.995H347.355ZM355.849 84.7273V92H354.312V84.7273H355.849ZM357.115 92V84.7273H359.984C360.535 84.7273 361.005 84.8326 361.394 85.0433C361.782 85.2517 362.078 85.5417 362.281 85.9134C362.487 86.2827 362.59 86.7088 362.59 87.1918C362.59 87.6747 362.486 88.1009 362.278 88.4702C362.07 88.8395 361.768 89.1271 361.372 89.3331C360.979 89.5391 360.503 89.642 359.945 89.642H358.116V88.4098H359.696C359.992 88.4098 360.236 88.3589 360.428 88.2571C360.622 88.1529 360.766 88.0097 360.861 87.8274C360.958 87.6428 361.007 87.4309 361.007 87.1918C361.007 86.9503 360.958 86.7396 360.861 86.5597C360.766 86.3774 360.622 86.2365 360.428 86.1371C360.234 86.0353 359.987 85.9844 359.689 85.9844H358.652V92H357.115ZM370.272 88.3636C370.272 89.1567 370.122 89.8314 369.821 90.3878C369.523 90.9441 369.116 91.3691 368.6 91.6626C368.086 91.9538 367.508 92.0994 366.867 92.0994C366.221 92.0994 365.641 91.9527 365.127 91.6591C364.613 91.3655 364.207 90.9406 363.909 90.3842C363.61 89.8279 363.461 89.1544 363.461 88.3636C363.461 87.5705 363.61 86.8958 363.909 86.3395C364.207 85.7831 364.613 85.3594 365.127 85.0682C365.641 84.7746 366.221 84.6278 366.867 84.6278C367.508 84.6278 368.086 84.7746 368.6 85.0682C369.116 85.3594 369.523 85.7831 369.821 86.3395C370.122 86.8958 370.272 87.5705 370.272 88.3636ZM368.713 88.3636C368.713 87.8499 368.636 87.4167 368.483 87.0639C368.331 86.7112 368.117 86.4437 367.84 86.2614C367.563 86.0791 367.239 85.9879 366.867 85.9879C366.495 85.9879 366.171 86.0791 365.894 86.2614C365.617 86.4437 365.401 86.7112 365.248 87.0639C365.096 87.4167 365.02 87.8499 365.02 88.3636C365.02 88.8774 365.096 89.3106 365.248 89.6634C365.401 90.0161 365.617 90.2836 365.894 90.4659C366.171 90.6482 366.495 90.7393 366.867 90.7393C367.239 90.7393 367.563 90.6482 367.84 90.4659C368.117 90.2836 368.331 90.0161 368.483 89.6634C368.636 89.3106 368.713 88.8774 368.713 88.3636ZM376.304 92H373.726V84.7273H376.325C377.057 84.7273 377.687 84.8729 378.214 85.1641C378.742 85.4529 379.148 85.8684 379.433 86.4105C379.719 86.9527 379.862 87.6013 379.862 88.3565C379.862 89.1141 379.719 89.7652 379.433 90.3097C379.148 90.8542 378.74 91.272 378.207 91.5632C377.677 91.8544 377.043 92 376.304 92ZM375.263 90.6825H376.24C376.695 90.6825 377.077 90.602 377.387 90.4411C377.7 90.2777 377.934 90.0256 378.09 89.6847C378.249 89.3414 378.328 88.8987 378.328 88.3565C378.328 87.8191 378.249 87.38 378.09 87.0391C377.934 86.6982 377.701 86.4472 377.391 86.2862C377.08 86.1252 376.698 86.0447 376.244 86.0447H375.263V90.6825ZM381.001 92V84.7273H385.902V85.995H382.539V87.728H385.65V88.9957H382.539V90.7322H385.916V92H381.001ZM395.856 87.2734H394.3C394.272 87.0722 394.214 86.8935 394.126 86.7372C394.039 86.5786 393.926 86.4437 393.789 86.3324C393.652 86.2211 393.493 86.1359 393.313 86.0767C393.135 86.0175 392.943 85.9879 392.734 85.9879C392.358 85.9879 392.03 86.0814 391.751 86.2685C391.471 86.4531 391.255 86.723 391.101 87.0781C390.947 87.4309 390.87 87.8594 390.87 88.3636C390.87 88.8821 390.947 89.3177 391.101 89.6705C391.257 90.0232 391.475 90.2895 391.754 90.4695C392.033 90.6494 392.357 90.7393 392.724 90.7393C392.93 90.7393 393.12 90.7121 393.295 90.6577C393.473 90.6032 393.63 90.5239 393.768 90.4197C393.905 90.3132 394.019 90.1842 394.108 90.0327C394.201 89.8812 394.265 89.7083 394.3 89.5142L395.856 89.5213C395.815 89.8551 395.715 90.1771 395.554 90.4872C395.395 90.795 395.181 91.0708 394.911 91.3146C394.644 91.5561 394.324 91.7479 393.952 91.8899C393.583 92.0296 393.165 92.0994 392.699 92.0994C392.05 92.0994 391.47 91.9527 390.959 91.6591C390.45 91.3655 390.047 90.9406 389.751 90.3842C389.458 89.8279 389.311 89.1544 389.311 88.3636C389.311 87.5705 389.46 86.8958 389.758 86.3395C390.057 85.7831 390.461 85.3594 390.973 85.0682C391.484 84.7746 392.059 84.6278 392.699 84.6278C393.12 84.6278 393.511 84.687 393.871 84.8054C394.233 84.9238 394.554 85.0966 394.833 85.3239C395.112 85.5488 395.34 85.8246 395.515 86.1513C395.692 86.478 395.806 86.852 395.856 87.2734ZM396.958 92V84.7273H398.496V90.7322H401.614V92H396.958ZM404.17 84.7273V92H402.632V84.7273H404.17ZM405.435 92V84.7273H410.335V85.995H406.972V87.728H410.083V88.9957H406.972V90.7322H410.35V92H405.435ZM417.641 84.7273V92H416.313L413.149 87.4226H413.096V92H411.558V84.7273H412.907L416.047 89.3011H416.11V84.7273H417.641ZM418.634 85.995V84.7273H424.607V85.995H422.381V92H420.861V85.995H418.634ZM425.591 92V84.7273H430.492V85.995H427.129V87.728H430.24V88.9957H427.129V90.7322H430.506V92H425.591Z" fill="#5A6B6F"/>
<path d="M615 71H447C443.686 71 441 74.2459 441 78.25V92.75C441 96.7541 443.686 100 447 100H615C618.314 100 621 96.7541 621 92.75V78.25C621 74.2459 618.314 71 615 71Z" fill="white" stroke="#E6EBED"/>
<path d="M251 110H32C27.5817 110 24 113.582 24 118V186C24 190.418 27.5817 194 32 194H251C255.418 194 259 190.418 259 186V118C259 113.582 255.418 110 251 110Z" fill="white" stroke="#E6EBED"/>
<path d="M500 110H281C276.582 110 273 113.582 273 118V186C273 190.418 276.582 194 281 194H500C504.418 194 508 190.418 508 186V118C508 113.582 504.418 110 500 110Z" fill="white" stroke="#E6EBED"/>
<path d="M749 110H530C525.582 110 522 113.582 522 118V186C522 190.418 525.582 194 530 194H749C753.418 194 757 190.418 757 186V118C757 113.582 753.418 110 749 110Z" fill="white" stroke="#E6EBED"/>
<path d="M998 110H779C774.582 110 771 113.582 771 118V186C771 190.418 774.582 194 779 194H998C1002.42 194 1006 190.418 1006 186V118C1006 113.582 1002.42 110 998 110Z" fill="white" stroke="#E6EBED"/>
<path d="M1247 110H1028C1023.58 110 1020 113.582 1020 118V186C1020 190.418 1023.58 194 1028 194H1247C1251.42 194 1255 190.418 1255 186V118C1255 113.582 1251.42 110 1247 110Z" fill="white" stroke="#E6EBED"/>
<path d="M28 112C28 110.895 27.1046 110 26 110C24.8954 110 24 110.895 24 112V192C24 193.105 24.8954 194 26 194C27.1046 194 28 193.105 28 192V112Z" fill="#0B5563"/>
<path d="M277 112C277 110.895 276.105 110 275 110C273.895 110 273 110.895 273 112V192C273 193.105 273.895 194 275 194C276.105 194 277 193.105 277 192V112Z" fill="#0CAA9E"/>
<path d="M526 112C526 110.895 525.105 110 524 110C522.895 110 522 110.895 522 112V192C522 193.105 522.895 194 524 194C525.105 194 526 193.105 526 192V112Z" fill="#2E933C"/>
<path d="M775 112C775 110.895 774.105 110 773 110C771.895 110 771 110.895 771 112V192C771 193.105 771.895 194 773 194C774.105 194 775 193.105 775 192V112Z" fill="#E4572E"/>
<path d="M1024 112C1024 110.895 1023.1 110 1022 110C1020.9 110 1020 110.895 1020 112V192C1020 193.105 1020.9 194 1022 194C1023.1 194 1024 193.105 1024 192V112Z" fill="#0B5563"/>
<path d="M620 210H32C27.5817 210 24 213.582 24 218V434C24 438.418 27.5817 442 32 442H620C624.418 442 628 438.418 628 434V218C628 213.582 624.418 210 620 210Z" fill="white" stroke="#E6EBED"/>
<path d="M1248 210H660C655.582 210 652 213.582 652 218V434C652 438.418 655.582 442 660 442H1248C1252.42 442 1256 438.418 1256 434V218C1256 213.582 1252.42 210 1248 210Z" fill="white" stroke="#E6EBED"/>
<path d="M612 262H40C37.7909 262 36 263.791 36 266V430C36 432.209 37.7909 434 40 434H612C614.209 434 616 432.209 616 430V266C616 263.791 614.209 262 612 262Z" fill="#FBFCFC"/>
<path d="M1240 262H668C665.791 262 664 263.791 664 266V430C664 432.209 665.791 434 668 434H1240C1242.21 434 1244 432.209 1244 430V266C1244 263.791 1242.21 262 1240 262Z" fill="#FBFCFC"/>
<path d="M620 458H32C27.5817 458 24 461.582 24 466V672C24 676.418 27.5817 680 32 680H620C624.418 680 628 676.418 628 672V466C628 461.582 624.418 458 620 458Z" fill="white" stroke="#E6EBED"/>
<path d="M1248 458H660C655.582 458 652 461.582 652 466V672C652 676.418 655.582 680 660 680H1248C1252.42 680 1256 676.418 1256 672V466C1256 461.582 1252.42 458 1248 458Z" fill="white" stroke="#E6EBED"/>
<path d="M612 510H40C37.7909 510 36 511.791 36 514V668C36 670.209 37.7909 672 40 672H612C614.209 672 616 670.209 616 668V514C616 511.791 614.209 510 612 510Z" fill="#FBFCFC"/>
<path d="M1240 510H668C665.791 510 664 511.791 664 514V668C664 670.209 665.791 672 668 672H1240C1242.21 672 1244 670.209 1244 668V514C1244 511.791 1242.21 510 1240 510Z" fill="#FBFCFC"/>
<path d="M1280 696H0V720H1280V696Z" fill="white"/>
<path d="M0 696H1280" stroke="#E6EBED"/>
</g>
<defs>
<clipPath id="clip0_363_1612">
<rect width="1280" height="720" fill="white"/>
</clipPath>
</defs>
</svg>
