<svg width="1280" height="720" viewBox="0 0 1280 720" fill="none" xmlns="http://www.w3.org/2000/svg">
<g clip-path="url(#clip0_354_1276)">
<path d="M1280 0H0V720H1280V0Z" fill="#F5F7F8"/>
<path d="M1280 0H0V64H1280V0Z" fill="#0B5563"/>
<path d="M1280 62H0V64H1280V62Z" fill="#0CAA9E"/>
<path d="M39.3636 39.2557C38.0398 39.2557 36.8949 38.9744 35.929 38.4119C34.9688 37.8437 34.2273 37.054 33.7045 36.0426C33.1818 35.0256 32.9205 33.8466 32.9205 32.5057C32.9205 31.1534 33.1818 29.9716 33.7045 28.9602C34.2273 27.9432 34.9688 27.1534 35.929 26.5909C36.8949 26.0227 38.0398 25.7386 39.3636 25.7386C40.6875 25.7386 41.8295 26.0227 42.7898 26.5909C43.7557 27.1534 44.5 27.9432 45.0227 28.9602C45.5455 29.9716 45.8068 31.1534 45.8068 32.5057C45.8068 33.8466 45.5455 35.0256 45.0227 36.0426C44.5 37.054 43.7557 37.8437 42.7898 38.4119C41.8295 38.9744 40.6875 39.2557 39.3636 39.2557ZM39.3807 36.4432C39.983 36.4432 40.4858 36.2727 40.8892 35.9318C41.2926 35.5852 41.5966 35.1136 41.8011 34.517C42.0114 33.9205 42.1165 33.2415 42.1165 32.4801C42.1165 31.7188 42.0114 31.0398 41.8011 30.4432C41.5966 29.8466 41.2926 29.375 40.8892 29.0284C40.4858 28.6818 39.983 28.5085 39.3807 28.5085C38.7727 28.5085 38.2614 28.6818 37.8466 29.0284C37.4375 29.375 37.1278 29.8466 36.9176 30.4432C36.7131 31.0398 36.6108 31.7188 36.6108 32.4801C36.6108 33.2415 36.7131 33.9205 36.9176 34.517C37.1278 35.1136 37.4375 35.5852 37.8466 35.9318C38.2614 36.2727 38.7727 36.4432 39.3807 36.4432ZM51.7983 21.5455V39H48.1676V21.5455H51.7983ZM54.7067 39V25.9091H58.3374V39H54.7067ZM56.5305 24.2216C55.9908 24.2216 55.5277 24.0426 55.1413 23.6847C54.7607 23.321 54.5703 22.8864 54.5703 22.3807C54.5703 21.8807 54.7607 21.4517 55.1413 21.0938C55.5277 20.7301 55.9908 20.5483 56.5305 20.5483C57.0703 20.5483 57.5305 20.7301 57.9112 21.0938C58.2976 21.4517 58.4908 21.8807 58.4908 22.3807C58.4908 22.8864 58.2976 23.321 57.9112 23.6847C57.5305 24.0426 57.0703 24.2216 56.5305 24.2216ZM72.1378 29.642L68.8139 29.8466C68.7571 29.5625 68.6349 29.3068 68.4474 29.0795C68.2599 28.8466 68.0128 28.6619 67.706 28.5256C67.4048 28.3835 67.044 28.3125 66.6236 28.3125C66.0611 28.3125 65.5866 28.4318 65.2003 28.6705C64.8139 28.9034 64.6207 29.2159 64.6207 29.608C64.6207 29.9205 64.7457 30.1847 64.9957 30.4006C65.2457 30.6165 65.6747 30.7898 66.2827 30.9205L68.652 31.3977C69.9247 31.6591 70.8736 32.0795 71.4986 32.6591C72.1236 33.2386 72.4361 34 72.4361 34.9432C72.4361 35.8011 72.1832 36.554 71.6776 37.2017C71.1776 37.8494 70.4901 38.3551 69.6151 38.7188C68.7457 39.0767 67.7429 39.2557 66.6065 39.2557C64.8736 39.2557 63.4929 38.8949 62.4645 38.1733C61.4418 37.446 60.8423 36.4574 60.6662 35.2074L64.2372 35.0199C64.3452 35.5483 64.6065 35.9517 65.0213 36.2301C65.4361 36.5028 65.9673 36.6392 66.6151 36.6392C67.2514 36.6392 67.7628 36.517 68.1491 36.2727C68.5412 36.0227 68.7401 35.7017 68.7457 35.3097C68.7401 34.9801 68.6009 34.7102 68.3281 34.5C68.0554 34.2841 67.6349 34.1193 67.0668 34.0057L64.7997 33.554C63.5213 33.2983 62.5696 32.8551 61.9446 32.2244C61.3253 31.5937 61.0156 30.7898 61.0156 29.8125C61.0156 28.9716 61.2429 28.2472 61.6974 27.6392C62.1577 27.0312 62.8026 26.5625 63.6321 26.233C64.4673 25.9034 65.4446 25.7386 66.5639 25.7386C68.2173 25.7386 69.5185 26.0881 70.4673 26.7869C71.4219 27.4858 71.9787 28.4375 72.1378 29.642ZM81.6854 25.9091V28.6364H73.8018V25.9091H81.6854ZM75.5916 22.7727H79.2223V34.9773C79.2223 35.3125 79.2734 35.5739 79.3757 35.7614C79.478 35.9432 79.62 36.071 79.8018 36.1449C79.9893 36.2187 80.2053 36.2557 80.4496 36.2557C80.62 36.2557 80.7905 36.2415 80.9609 36.2131C81.1314 36.179 81.2621 36.1534 81.353 36.1364L81.924 38.8381C81.7422 38.8949 81.4865 38.9602 81.157 39.0341C80.8274 39.1136 80.4268 39.1619 79.9553 39.179C79.0803 39.2131 78.3132 39.0966 77.6541 38.8295C77.0007 38.5625 76.4922 38.1477 76.1286 37.5852C75.7649 37.0227 75.5859 36.3125 75.5916 35.4545V22.7727Z" fill="white"/>
<path d="M86.1726 39.2216C85.6101 39.2216 85.1271 39.0227 84.7237 38.625C84.326 38.2216 84.1271 37.7386 84.1271 37.1761C84.1271 36.6193 84.326 36.142 84.7237 35.7443C85.1271 35.3466 85.6101 35.1477 86.1726 35.1477C86.718 35.1477 87.1953 35.3466 87.6044 35.7443C88.0135 36.142 88.218 36.6193 88.218 37.1761C88.218 37.5511 88.1214 37.8949 87.9283 38.2074C87.7408 38.5142 87.4936 38.7614 87.1868 38.9489C86.88 39.1307 86.5419 39.2216 86.1726 39.2216Z" fill="#0CAA9E"/>
<path d="M554.697 29.674C554.646 29.1584 554.427 28.7578 554.039 28.4723C553.651 28.1868 553.125 28.044 552.46 28.044C552.008 28.044 551.627 28.108 551.316 28.2358C551.005 28.3594 550.766 28.532 550.6 28.7536C550.438 28.9751 550.357 29.2266 550.357 29.5078C550.349 29.7422 550.398 29.9467 550.504 30.1214C550.615 30.2962 550.766 30.4474 550.958 30.5753C551.15 30.6989 551.371 30.8075 551.623 30.9013C551.874 30.9908 552.143 31.0675 552.428 31.1314L553.604 31.4126C554.175 31.5405 554.699 31.7109 555.177 31.924C555.654 32.1371 556.067 32.3991 556.417 32.7102C556.766 33.0213 557.037 33.3878 557.229 33.8097C557.425 34.2315 557.525 34.7152 557.529 35.2607C557.525 36.0618 557.32 36.7564 556.915 37.3445C556.515 37.9283 555.935 38.3821 555.177 38.706C554.422 39.0256 553.513 39.1854 552.447 39.1854C551.391 39.1854 550.47 39.0234 549.686 38.6996C548.906 38.3757 548.297 37.8963 547.858 37.2614C547.423 36.6222 547.195 35.8317 547.174 34.8899H549.852C549.882 35.3288 550.008 35.6953 550.229 35.9893C550.455 36.2791 550.756 36.4986 551.131 36.6477C551.51 36.7926 551.938 36.8651 552.415 36.8651C552.884 36.8651 553.291 36.7969 553.636 36.6605C553.986 36.5241 554.256 36.3345 554.448 36.0916C554.64 35.8487 554.736 35.5696 554.736 35.2543C554.736 34.9602 554.648 34.7131 554.474 34.5128C554.303 34.3125 554.052 34.142 553.719 34.0014C553.391 33.8608 552.989 33.733 552.511 33.6179L551.086 33.2599C549.982 32.9915 549.111 32.5717 548.472 32.0007C547.832 31.4297 547.515 30.6605 547.519 29.6932C547.515 28.9006 547.726 28.2081 548.152 27.6158C548.582 27.0234 549.172 26.5611 549.922 26.2287C550.672 25.8963 551.525 25.7301 552.479 25.7301C553.451 25.7301 554.299 25.8963 555.023 26.2287C555.752 26.5611 556.319 27.0234 556.724 27.6158C557.128 28.2081 557.337 28.8942 557.35 29.674H554.697ZM562.139 39.1854C561.513 39.1854 560.955 39.0767 560.465 38.8594C559.975 38.6378 559.587 38.3118 559.301 37.8814C559.02 37.4467 558.879 36.9055 558.879 36.2578C558.879 35.7124 558.979 35.2543 559.18 34.8835C559.38 34.5128 559.653 34.2145 559.998 33.9886C560.343 33.7628 560.735 33.5923 561.174 33.4773C561.617 33.3622 562.082 33.2812 562.568 33.2344C563.139 33.1747 563.599 33.1193 563.948 33.0682C564.298 33.0128 564.551 32.9318 564.709 32.8253C564.867 32.7187 564.945 32.5611 564.945 32.3523V32.3139C564.945 31.9091 564.818 31.5959 564.562 31.3743C564.31 31.1527 563.953 31.0419 563.488 31.0419C562.998 31.0419 562.608 31.1506 562.318 31.3679C562.028 31.581 561.837 31.8494 561.743 32.1733L559.225 31.9688C559.352 31.3722 559.604 30.8565 559.979 30.4219C560.354 29.983 560.837 29.6463 561.43 29.4119C562.026 29.1733 562.717 29.054 563.501 29.054C564.046 29.054 564.568 29.1179 565.067 29.2457C565.57 29.3736 566.015 29.5717 566.403 29.8402C566.795 30.1087 567.104 30.4538 567.33 30.8757C567.555 31.2933 567.668 31.794 567.668 32.3778V39H565.086V37.6385H565.009C564.852 37.9453 564.641 38.2159 564.377 38.4503C564.112 38.6804 563.795 38.8615 563.424 38.9936C563.053 39.1214 562.625 39.1854 562.139 39.1854ZM562.919 37.3061C563.32 37.3061 563.673 37.2273 563.98 37.0696C564.287 36.9077 564.528 36.6903 564.703 36.4176C564.877 36.1449 564.965 35.8359 564.965 35.4908V34.4489C564.879 34.5043 564.762 34.5554 564.613 34.6023C564.468 34.6449 564.304 34.6854 564.121 34.7237C563.938 34.7578 563.754 34.7898 563.571 34.8196C563.388 34.8452 563.222 34.8686 563.073 34.8899C562.753 34.9368 562.474 35.0114 562.235 35.1136C561.997 35.2159 561.811 35.3544 561.679 35.5291C561.547 35.6996 561.481 35.9126 561.481 36.1683C561.481 36.5391 561.615 36.8224 561.884 37.0185C562.156 37.2102 562.502 37.3061 562.919 37.3061ZM575.003 29.1818V31.2273H569.091V29.1818H575.003ZM570.433 26.8295H573.156V35.983C573.156 36.2344 573.194 36.4304 573.271 36.571C573.348 36.7074 573.454 36.8033 573.591 36.8587C573.731 36.9141 573.893 36.9418 574.076 36.9418C574.204 36.9418 574.332 36.9311 574.46 36.9098C574.588 36.8842 574.686 36.8651 574.754 36.8523L575.182 38.8786C575.046 38.9212 574.854 38.9702 574.607 39.0256C574.36 39.0852 574.059 39.1214 573.706 39.1342C573.049 39.1598 572.474 39.0724 571.98 38.8722C571.49 38.6719 571.108 38.3608 570.836 37.9389C570.563 37.517 570.429 36.9844 570.433 36.3409V26.8295ZM576.777 39V29.1818H579.5V39H576.777ZM578.145 27.9162C577.74 27.9162 577.393 27.782 577.103 27.5135C576.818 27.2408 576.675 26.9148 576.675 26.5355C576.675 26.1605 576.818 25.8388 577.103 25.5703C577.393 25.2976 577.74 25.1612 578.145 25.1612C578.55 25.1612 578.895 25.2976 579.18 25.5703C579.47 25.8388 579.615 26.1605 579.615 26.5355C579.615 26.9148 579.47 27.2408 579.18 27.5135C578.895 27.782 578.55 27.9162 578.145 27.9162ZM589.85 31.9815L587.358 32.1349C587.315 31.9219 587.223 31.7301 587.083 31.5597C586.942 31.3849 586.757 31.2464 586.527 31.1442C586.301 31.0376 586.03 30.9844 585.715 30.9844C585.293 30.9844 584.937 31.0739 584.647 31.2528C584.358 31.4276 584.213 31.6619 584.213 31.956C584.213 32.1903 584.306 32.3885 584.494 32.5504C584.681 32.7124 585.003 32.8423 585.459 32.9403L587.236 33.2983C588.191 33.4943 588.902 33.8097 589.371 34.2443C589.84 34.679 590.074 35.25 590.074 35.9574C590.074 36.6009 589.884 37.1655 589.505 37.6513C589.13 38.1371 588.615 38.5163 587.958 38.7891C587.306 39.0575 586.554 39.1918 585.702 39.1918C584.402 39.1918 583.367 38.9212 582.595 38.38C581.828 37.8345 581.379 37.093 581.247 36.1555L583.925 36.0149C584.006 36.4112 584.202 36.7138 584.513 36.9226C584.824 37.1271 585.223 37.2294 585.708 37.2294C586.186 37.2294 586.569 37.1378 586.859 36.9545C587.153 36.767 587.302 36.5263 587.306 36.2322C587.302 35.9851 587.198 35.7827 586.993 35.625C586.789 35.4631 586.473 35.3395 586.047 35.2543L584.347 34.9155C583.388 34.7237 582.674 34.3913 582.206 33.9183C581.741 33.4453 581.509 32.8423 581.509 32.1094C581.509 31.4787 581.679 30.9354 582.02 30.4794C582.365 30.0234 582.849 29.6719 583.471 29.4247C584.098 29.1776 584.831 29.054 585.67 29.054C586.91 29.054 587.886 29.3161 588.598 29.8402C589.313 30.3643 589.731 31.0781 589.85 31.9815ZM597.069 29.1818V31.2273H591.009V29.1818H597.069ZM592.396 39V28.4723C592.396 27.7607 592.535 27.1705 592.812 26.7017C593.093 26.233 593.476 25.8814 593.962 25.647C594.448 25.4126 595 25.2955 595.618 25.2955C596.035 25.2955 596.417 25.3274 596.762 25.3913C597.111 25.4553 597.371 25.5128 597.542 25.5639L597.056 27.6094C596.949 27.5753 596.817 27.5433 596.66 27.5135C596.506 27.4837 596.348 27.4688 596.187 27.4688C595.786 27.4688 595.507 27.5625 595.349 27.75C595.191 27.9332 595.113 28.1911 595.113 28.5234V39H592.396ZM601.18 39.1854C600.554 39.1854 599.996 39.0767 599.506 38.8594C599.016 38.6378 598.628 38.3118 598.342 37.8814C598.061 37.4467 597.92 36.9055 597.92 36.2578C597.92 35.7124 598.021 35.2543 598.221 34.8835C598.421 34.5128 598.694 34.2145 599.039 33.9886C599.384 33.7628 599.776 33.5923 600.215 33.4773C600.658 33.3622 601.123 33.2812 601.609 33.2344C602.18 33.1747 602.64 33.1193 602.989 33.0682C603.339 33.0128 603.592 32.9318 603.75 32.8253C603.908 32.7187 603.986 32.5611 603.986 32.3523V32.3139C603.986 31.9091 603.859 31.5959 603.603 31.3743C603.351 31.1527 602.994 31.0419 602.529 31.0419C602.039 31.0419 601.649 31.1506 601.359 31.3679C601.07 31.581 600.878 31.8494 600.784 32.1733L598.266 31.9688C598.393 31.3722 598.645 30.8565 599.02 30.4219C599.395 29.983 599.878 29.6463 600.471 29.4119C601.067 29.1733 601.758 29.054 602.542 29.054C603.087 29.054 603.609 29.1179 604.108 29.2457C604.611 29.3736 605.056 29.5717 605.444 29.8402C605.836 30.1087 606.145 30.4538 606.371 30.8757C606.597 31.2933 606.709 31.794 606.709 32.3778V39H604.127V37.6385H604.05C603.893 37.9453 603.682 38.2159 603.418 38.4503C603.153 38.6804 602.836 38.8615 602.465 38.9936C602.094 39.1214 601.666 39.1854 601.18 39.1854ZM601.96 37.3061C602.361 37.3061 602.714 37.2273 603.021 37.0696C603.328 36.9077 603.569 36.6903 603.744 36.4176C603.918 36.1449 604.006 35.8359 604.006 35.4908V34.4489C603.92 34.5043 603.803 34.5554 603.654 34.6023C603.509 34.6449 603.345 34.6854 603.162 34.7237C602.979 34.7578 602.795 34.7898 602.612 34.8196C602.429 34.8452 602.263 34.8686 602.114 34.8899C601.794 34.9368 601.515 35.0114 601.276 35.1136C601.038 35.2159 600.852 35.3544 600.72 35.5291C600.588 35.6996 600.522 35.9126 600.522 36.1683C600.522 36.5391 600.656 36.8224 600.925 37.0185C601.197 37.2102 601.543 37.3061 601.96 37.3061ZM613.258 39.1918C612.252 39.1918 611.387 38.9787 610.663 38.5526C609.943 38.1222 609.389 37.5256 609.001 36.7628C608.617 36 608.426 35.1222 608.426 34.1293C608.426 33.1236 608.62 32.2415 609.007 31.483C609.399 30.7202 609.956 30.1257 610.676 29.6996C611.396 29.2692 612.252 29.054 613.245 29.054C614.102 29.054 614.852 29.2095 615.495 29.5206C616.139 29.8317 616.648 30.2685 617.023 30.831C617.398 31.3935 617.605 32.054 617.643 32.8125H615.073C615.001 32.3224 614.809 31.9283 614.498 31.63C614.191 31.3274 613.789 31.1761 613.29 31.1761C612.868 31.1761 612.5 31.2912 612.184 31.5213C611.873 31.7472 611.63 32.0774 611.456 32.5121C611.281 32.9467 611.193 33.473 611.193 34.0909C611.193 34.7173 611.279 35.25 611.449 35.6889C611.624 36.1278 611.869 36.4624 612.184 36.6925C612.5 36.9226 612.868 37.0376 613.29 37.0376C613.601 37.0376 613.88 36.9737 614.127 36.8459C614.379 36.718 614.585 36.5327 614.747 36.2898C614.914 36.0426 615.022 35.7464 615.073 35.4013H617.643C617.6 36.1513 617.396 36.8118 617.029 37.3828C616.667 37.9496 616.166 38.3928 615.527 38.7124C614.888 39.032 614.132 39.1918 613.258 39.1918ZM612.619 38.9489H613.872L613.769 39.505C614.208 39.5732 614.566 39.7372 614.843 39.9972C615.125 40.2571 615.267 40.6108 615.272 41.0582C615.276 41.6932 614.982 42.1982 614.389 42.5732C613.797 42.9524 612.966 43.142 611.897 43.142L611.871 41.9276C612.408 41.9276 612.828 41.8615 613.13 41.7294C613.437 41.6016 613.597 41.4013 613.61 41.1286C613.618 40.8686 613.518 40.6705 613.309 40.5341C613.1 40.3977 612.774 40.3018 612.331 40.2464L612.619 38.9489ZM622.186 39.1854C621.56 39.1854 621.002 39.0767 620.511 38.8594C620.021 38.6378 619.634 38.3118 619.348 37.8814C619.067 37.4467 618.926 36.9055 618.926 36.2578C618.926 35.7124 619.026 35.2543 619.227 34.8835C619.427 34.5128 619.7 34.2145 620.045 33.9886C620.39 33.7628 620.782 33.5923 621.221 33.4773C621.664 33.3622 622.129 33.2812 622.614 33.2344C623.185 33.1747 623.646 33.1193 623.995 33.0682C624.345 33.0128 624.598 32.9318 624.756 32.8253C624.913 32.7187 624.992 32.5611 624.992 32.3523V32.3139C624.992 31.9091 624.864 31.5959 624.609 31.3743C624.357 31.1527 623.999 31.0419 623.535 31.0419C623.045 31.0419 622.655 31.1506 622.365 31.3679C622.075 31.581 621.884 31.8494 621.79 32.1733L619.271 31.9688C619.399 31.3722 619.651 30.8565 620.026 30.4219C620.401 29.983 620.884 29.6463 621.477 29.4119C622.073 29.1733 622.764 29.054 623.548 29.054C624.093 29.054 624.615 29.1179 625.114 29.2457C625.617 29.3736 626.062 29.5717 626.45 29.8402C626.842 30.1087 627.151 30.4538 627.377 30.8757C627.602 31.2933 627.715 31.794 627.715 32.3778V39H625.133V37.6385H625.056C624.899 37.9453 624.688 38.2159 624.423 38.4503C624.159 38.6804 623.842 38.8615 623.471 38.9936C623.1 39.1214 622.672 39.1854 622.186 39.1854ZM622.966 37.3061C623.367 37.3061 623.72 37.2273 624.027 37.0696C624.334 36.9077 624.575 36.6903 624.749 36.4176C624.924 36.1449 625.011 35.8359 625.011 35.4908V34.4489C624.926 34.5043 624.809 34.5554 624.66 34.6023C624.515 34.6449 624.351 34.6854 624.168 34.7237C623.984 34.7578 623.801 34.7898 623.618 34.8196C623.435 34.8452 623.269 34.8686 623.119 34.8899C622.8 34.9368 622.521 35.0114 622.282 35.1136C622.043 35.2159 621.858 35.3544 621.726 35.5291C621.594 35.6996 621.528 35.9126 621.528 36.1683C621.528 36.5391 621.662 36.8224 621.93 37.0185C622.203 37.2102 622.548 37.3061 622.966 37.3061ZM621.822 27.9737L620.307 27.9545C620.307 27.1406 620.507 26.5163 620.908 26.0817C621.313 25.647 621.805 25.4276 622.384 25.4233C622.683 25.4233 622.938 25.4723 623.151 25.5703C623.369 25.6641 623.563 25.7749 623.733 25.9027C623.908 26.0305 624.074 26.1435 624.232 26.2415C624.389 26.3352 624.56 26.3821 624.743 26.3821C624.99 26.3778 625.178 26.2862 625.305 26.1072C625.438 25.924 625.504 25.6854 625.504 25.3913L626.993 25.4361C626.984 26.2415 626.78 26.8636 626.379 27.3026C625.979 27.7372 625.491 27.9567 624.916 27.9609C624.596 27.9609 624.328 27.9141 624.11 27.8203C623.897 27.7223 623.71 27.6115 623.548 27.4879C623.386 27.3601 623.228 27.2472 623.075 27.1491C622.921 27.0511 622.749 27.0021 622.557 27.0021C622.335 27.0021 622.156 27.0895 622.02 27.2642C621.888 27.4389 621.822 27.6754 621.822 27.9737ZM634.264 39.1918C633.271 39.1918 632.412 38.9808 631.688 38.5589C630.968 38.1328 630.412 37.5405 630.02 36.782C629.628 36.0192 629.432 35.1349 629.432 34.1293C629.432 33.1151 629.628 32.2287 630.02 31.4702C630.412 30.7074 630.968 30.1151 631.688 29.6932C632.412 29.267 633.271 29.054 634.264 29.054C635.257 29.054 636.113 29.267 636.834 29.6932C637.558 30.1151 638.116 30.7074 638.508 31.4702C638.9 32.2287 639.096 33.1151 639.096 34.1293C639.096 35.1349 638.9 36.0192 638.508 36.782C638.116 37.5405 637.558 38.1328 636.834 38.5589C636.113 38.9808 635.257 39.1918 634.264 39.1918ZM634.277 37.0824C634.728 37.0824 635.106 36.9545 635.408 36.6989C635.711 36.4389 635.939 36.0852 636.092 35.6378C636.25 35.1903 636.329 34.6811 636.329 34.1101C636.329 33.5391 636.25 33.0298 636.092 32.5824C635.939 32.1349 635.711 31.7812 635.408 31.5213C635.106 31.2614 634.728 31.1314 634.277 31.1314C633.821 31.1314 633.437 31.2614 633.126 31.5213C632.819 31.7812 632.587 32.1349 632.429 32.5824C632.276 33.0298 632.199 33.5391 632.199 34.1101C632.199 34.6811 632.276 35.1903 632.429 35.6378C632.587 36.0852 632.819 36.4389 633.126 36.6989C633.437 36.9545 633.821 37.0824 634.277 37.0824ZM648.651 39.1598C647.905 39.1598 647.23 38.968 646.625 38.5845C646.024 38.1967 645.546 37.6278 645.193 36.8778C644.843 36.1236 644.669 35.1989 644.669 34.1037C644.669 32.9787 644.85 32.0433 645.212 31.2976C645.574 30.5476 646.056 29.9872 646.657 29.6165C647.262 29.2415 647.924 29.054 648.644 29.054C649.194 29.054 649.652 29.1477 650.019 29.3352C650.389 29.5185 650.688 29.7486 650.914 30.0256C651.144 30.2983 651.318 30.5668 651.438 30.831H651.521V25.9091H654.237V39H651.553V37.4276H651.438C651.31 37.7003 651.129 37.9709 650.894 38.2393C650.664 38.5036 650.364 38.723 649.993 38.8977C649.627 39.0724 649.179 39.1598 648.651 39.1598ZM649.514 36.9929C649.953 36.9929 650.323 36.8736 650.626 36.6349C650.933 36.392 651.167 36.0533 651.329 35.6186C651.495 35.1839 651.578 34.6747 651.578 34.0909C651.578 33.5071 651.497 33 651.335 32.5696C651.174 32.1392 650.939 31.8068 650.632 31.5724C650.326 31.3381 649.953 31.2209 649.514 31.2209C649.066 31.2209 648.689 31.3423 648.382 31.5852C648.076 31.8281 647.843 32.1648 647.686 32.5952C647.528 33.0256 647.449 33.5241 647.449 34.0909C647.449 34.6619 647.528 35.1669 647.686 35.6058C647.848 36.0405 648.08 36.3814 648.382 36.6286C648.689 36.8714 649.066 36.9929 649.514 36.9929ZM660.912 39.1918C659.919 39.1918 659.061 38.9808 658.336 38.5589C657.616 38.1328 657.06 37.5405 656.668 36.782C656.276 36.0192 656.08 35.1349 656.08 34.1293C656.08 33.1151 656.276 32.2287 656.668 31.4702C657.06 30.7074 657.616 30.1151 658.336 29.6932C659.061 29.267 659.919 29.054 660.912 29.054C661.905 29.054 662.762 29.267 663.482 29.6932C664.206 30.1151 664.765 30.7074 665.157 31.4702C665.549 32.2287 665.745 33.1151 665.745 34.1293C665.745 35.1349 665.549 36.0192 665.157 36.782C664.765 37.5405 664.206 38.1328 663.482 38.5589C662.762 38.9808 661.905 39.1918 660.912 39.1918ZM660.925 37.0824C661.377 37.0824 661.754 36.9545 662.057 36.6989C662.359 36.4389 662.587 36.0852 662.741 35.6378C662.898 35.1903 662.977 34.6811 662.977 34.1101C662.977 33.5391 662.898 33.0298 662.741 32.5824C662.587 32.1349 662.359 31.7812 662.057 31.5213C661.754 31.2614 661.377 31.1314 660.925 31.1314C660.469 31.1314 660.086 31.2614 659.775 31.5213C659.468 31.7812 659.236 32.1349 659.078 32.5824C658.924 33.0298 658.848 33.5391 658.848 34.1101C658.848 34.6811 658.924 35.1903 659.078 35.6378C659.236 36.0852 659.468 36.4389 659.775 36.6989C660.086 36.9545 660.469 37.0824 660.925 37.0824ZM683.283 30.4922H680.483C680.432 30.13 680.328 29.8082 680.17 29.527C680.012 29.2415 679.81 28.9986 679.563 28.7983C679.316 28.598 679.03 28.4446 678.706 28.3381C678.387 28.2315 678.039 28.1783 677.664 28.1783C676.987 28.1783 676.397 28.3466 675.894 28.6832C675.391 29.0156 675.001 29.5014 674.724 30.1406C674.447 30.7756 674.309 31.5469 674.309 32.4545C674.309 33.3878 674.447 34.1719 674.724 34.8068C675.005 35.4418 675.397 35.9212 675.9 36.245C676.403 36.5689 676.985 36.7308 677.645 36.7308C678.016 36.7308 678.359 36.6818 678.674 36.5838C678.994 36.4858 679.277 36.343 679.524 36.1555C679.772 35.9638 679.976 35.7315 680.138 35.4588C680.304 35.1861 680.419 34.875 680.483 34.5256L683.283 34.5384C683.21 35.1392 683.029 35.7188 682.74 36.277C682.454 36.831 682.068 37.3274 681.583 37.7663C681.101 38.201 680.526 38.5462 679.857 38.8018C679.192 39.0533 678.44 39.179 677.6 39.179C676.433 39.179 675.389 38.9148 674.468 38.3864C673.552 37.858 672.828 37.093 672.295 36.0916C671.767 35.0902 671.502 33.8778 671.502 32.4545C671.502 31.027 671.771 29.8125 672.308 28.8111C672.845 27.8097 673.573 27.0469 674.494 26.5227C675.414 25.9943 676.45 25.7301 677.6 25.7301C678.359 25.7301 679.062 25.8366 679.71 26.0497C680.362 26.2628 680.939 26.5739 681.442 26.983C681.945 27.3878 682.354 27.8842 682.669 28.4723C682.989 29.0604 683.193 29.7337 683.283 30.4922ZM687.94 25.9091V39H685.217V25.9091H687.94ZM690.121 39V29.1818H692.844V39H690.121ZM691.489 27.9162C691.084 27.9162 690.737 27.782 690.447 27.5135C690.161 27.2408 690.019 26.9148 690.019 26.5355C690.019 26.1605 690.161 25.8388 690.447 25.5703C690.737 25.2976 691.084 25.1612 691.489 25.1612C691.894 25.1612 692.239 25.2976 692.524 25.5703C692.814 25.8388 692.959 26.1605 692.959 26.5355C692.959 26.9148 692.814 27.2408 692.524 27.5135C692.239 27.782 691.894 27.9162 691.489 27.9162ZM699.5 39.1918C698.49 39.1918 697.62 38.9872 696.892 38.5781C696.167 38.1648 695.609 37.581 695.217 36.8267C694.825 36.0682 694.629 35.1712 694.629 34.1357C694.629 33.1257 694.825 32.2393 695.217 31.4766C695.609 30.7138 696.161 30.1193 696.872 29.6932C697.588 29.267 698.428 29.054 699.391 29.054C700.039 29.054 700.642 29.1584 701.2 29.3672C701.762 29.5717 702.252 29.8807 702.67 30.294C703.092 30.7074 703.42 31.2273 703.654 31.8537C703.889 32.4759 704.006 33.2045 704.006 34.0398V34.7876H695.715V33.1001H701.443C701.443 32.7081 701.358 32.3608 701.187 32.0582C701.017 31.7557 700.78 31.5192 700.478 31.3487C700.179 31.174 699.832 31.0866 699.436 31.0866C699.022 31.0866 698.656 31.1825 698.336 31.3743C698.021 31.5618 697.774 31.8153 697.595 32.1349C697.416 32.4503 697.324 32.8018 697.32 33.1896V34.794C697.32 35.2798 697.409 35.6996 697.588 36.0533C697.772 36.407 698.029 36.6797 698.362 36.8714C698.694 37.0632 699.088 37.1591 699.544 37.1591C699.847 37.1591 700.124 37.1165 700.375 37.0312C700.627 36.946 700.842 36.8182 701.021 36.6477C701.2 36.4773 701.336 36.2685 701.43 36.0213L703.948 36.1875C703.821 36.7926 703.559 37.321 703.162 37.7727C702.77 38.2202 702.263 38.5696 701.641 38.821C701.023 39.0682 700.309 39.1918 699.5 39.1918ZM708.506 33.3239V39H705.783V29.1818H708.378V30.9141H708.493C708.71 30.343 709.075 29.8913 709.586 29.5589C710.098 29.2223 710.718 29.054 711.446 29.054C712.128 29.054 712.723 29.2031 713.23 29.5014C713.737 29.7997 714.131 30.2259 714.412 30.7798C714.693 31.3295 714.834 31.9858 714.834 32.7486V39H712.111V33.2344C712.115 32.6335 711.962 32.1648 711.651 31.8281C711.34 31.4872 710.911 31.3168 710.366 31.3168C710 31.3168 709.676 31.3956 709.394 31.5533C709.117 31.7109 708.9 31.9411 708.742 32.2436C708.589 32.5419 708.51 32.902 708.506 33.3239ZM722.203 29.1818V31.2273H716.29V29.1818H722.203ZM717.632 26.8295H720.355V35.983C720.355 36.2344 720.394 36.4304 720.47 36.571C720.547 36.7074 720.653 36.8033 720.79 36.8587C720.93 36.9141 721.092 36.9418 721.276 36.9418C721.403 36.9418 721.531 36.9311 721.659 36.9098C721.787 36.8842 721.885 36.8651 721.953 36.8523L722.381 38.8786C722.245 38.9212 722.053 38.9702 721.806 39.0256C721.559 39.0852 721.259 39.1214 720.905 39.1342C720.249 39.1598 719.673 39.0724 719.179 38.8722C718.689 38.6719 718.308 38.3608 718.035 37.9389C717.762 37.517 717.628 36.9844 717.632 36.3409V26.8295ZM728.345 39.1918C727.335 39.1918 726.466 38.9872 725.737 38.5781C725.013 38.1648 724.455 37.581 724.063 36.8267C723.671 36.0682 723.475 35.1712 723.475 34.1357C723.475 33.1257 723.671 32.2393 724.063 31.4766C724.455 30.7138 725.006 30.1193 725.718 29.6932C726.434 29.267 727.274 29.054 728.237 29.054C728.884 29.054 729.487 29.1584 730.046 29.3672C730.608 29.5717 731.098 29.8807 731.516 30.294C731.938 30.7074 732.266 31.2273 732.5 31.8537C732.734 32.4759 732.852 33.2045 732.852 34.0398V34.7876H724.561V33.1001H730.288C730.288 32.7081 730.203 32.3608 730.033 32.0582C729.862 31.7557 729.626 31.5192 729.323 31.3487C729.025 31.174 728.678 31.0866 728.281 31.0866C727.868 31.0866 727.502 31.1825 727.182 31.3743C726.867 31.5618 726.619 31.8153 726.44 32.1349C726.261 32.4503 726.17 32.8018 726.166 33.1896V34.794C726.166 35.2798 726.255 35.6996 726.434 36.0533C726.617 36.407 726.875 36.6797 727.207 36.8714C727.54 37.0632 727.934 37.1591 728.39 37.1591C728.693 37.1591 728.97 37.1165 729.221 37.0312C729.472 36.946 729.688 36.8182 729.867 36.6477C730.046 36.4773 730.182 36.2685 730.276 36.0213L732.794 36.1875C732.666 36.7926 732.404 37.321 732.008 37.7727C731.616 38.2202 731.109 38.5696 730.487 38.821C729.869 39.0682 729.155 39.1918 728.345 39.1918Z" fill="white"/>
<path d="M220 64H0V696H220V64Z" fill="white"/>
<path d="M220 64V696" stroke="#E6EBED"/>
<path d="M20 86H36L30 94V102H26V94L20 86Z" fill="#0CAA9E"/>
<path d="M44.7585 98V89.2727H50.5369V90.794H46.6037V92.8736H50.1534V94.3949H46.6037V98H44.7585ZM53.6232 89.2727V98H51.7781V89.2727H53.6232ZM55.1413 98V89.2727H56.9865V96.4787H60.728V98H55.1413ZM60.5277 90.794V89.2727H67.6953V90.794H65.0234V98H63.1996V90.794H60.5277ZM68.8757 98V89.2727H72.3189C72.978 89.2727 73.5405 89.3906 74.0064 89.6264C74.4751 89.8594 74.8317 90.1903 75.076 90.6193C75.3232 91.0455 75.4467 91.5469 75.4467 92.1236C75.4467 92.7031 75.3217 93.2017 75.0717 93.6193C74.8217 94.0341 74.4595 94.3523 73.9851 94.5739C73.5135 94.7955 72.9425 94.9062 72.272 94.9062H69.9666V93.4233H71.9737C72.326 93.4233 72.6186 93.375 72.8516 93.2784C73.0845 93.1818 73.2578 93.0369 73.3714 92.8438C73.4879 92.6506 73.5462 92.4105 73.5462 92.1236C73.5462 91.8338 73.4879 91.5895 73.3714 91.3906C73.2578 91.1918 73.0831 91.0412 72.8473 90.9389C72.6143 90.8338 72.3203 90.7812 71.9652 90.7812H70.7209V98H68.8757ZM73.5888 94.0284L75.7578 98H73.7209L71.5987 94.0284H73.5888ZM84.7706 93.6364C84.7706 94.5881 84.5902 95.3977 84.2294 96.0653C83.8714 96.733 83.3828 97.2429 82.7635 97.5952C82.147 97.9446 81.4538 98.1193 80.6839 98.1193C79.9084 98.1193 79.2124 97.9432 78.5959 97.5909C77.9794 97.2386 77.4922 96.7287 77.1342 96.0611C76.7763 95.3935 76.5973 94.5852 76.5973 93.6364C76.5973 92.6847 76.7763 91.875 77.1342 91.2074C77.4922 90.5398 77.9794 90.0312 78.5959 89.6818C79.2124 89.3295 79.9084 89.1534 80.6839 89.1534C81.4538 89.1534 82.147 89.3295 82.7635 89.6818C83.3828 90.0312 83.8714 90.5398 84.2294 91.2074C84.5902 91.875 84.7706 92.6847 84.7706 93.6364ZM82.8999 93.6364C82.8999 93.0199 82.8075 92.5 82.6229 92.0767C82.4411 91.6534 82.1839 91.3324 81.8516 91.1136C81.5192 90.8949 81.13 90.7855 80.6839 90.7855C80.2379 90.7855 79.8487 90.8949 79.5163 91.1136C79.1839 91.3324 78.9254 91.6534 78.7408 92.0767C78.5589 92.5 78.468 93.0199 78.468 93.6364C78.468 94.2528 78.5589 94.7727 78.7408 95.196C78.9254 95.6193 79.1839 95.9403 79.5163 96.1591C79.8487 96.3778 80.2379 96.4872 80.6839 96.4872C81.13 96.4872 81.5192 96.3778 81.8516 96.1591C82.1839 95.9403 82.4411 95.6193 82.6229 95.196C82.8075 94.7727 82.8999 94.2528 82.8999 93.6364ZM90.8718 91.7827C90.8377 91.4389 90.6914 91.1719 90.4329 90.9815C90.1744 90.7912 89.8235 90.696 89.3803 90.696C89.0792 90.696 88.8249 90.7386 88.6175 90.8239C88.4102 90.9062 88.2511 91.0213 88.1403 91.169C88.0323 91.3168 87.9783 91.4844 87.9783 91.6719C87.9727 91.8281 88.0053 91.9645 88.0763 92.081C88.1502 92.1974 88.2511 92.2983 88.3789 92.3835C88.5067 92.4659 88.6545 92.5384 88.8221 92.6009C88.9897 92.6605 89.1687 92.7116 89.359 92.7543L90.1431 92.9418C90.5238 93.027 90.8732 93.1406 91.1914 93.2827C91.5096 93.4247 91.7852 93.5994 92.0181 93.8068C92.2511 94.0142 92.4315 94.2585 92.5593 94.5398C92.69 94.821 92.7567 95.1435 92.7596 95.5071C92.7567 96.0412 92.6204 96.5043 92.3505 96.8963C92.0835 97.2855 91.6971 97.5881 91.1914 97.804C90.6886 98.017 90.082 98.1236 89.3718 98.1236C88.6673 98.1236 88.0536 98.0156 87.5309 97.7997C87.011 97.5838 86.6048 97.2642 86.3121 96.8409C86.0224 96.4148 85.8704 95.8878 85.8562 95.2599H87.6417C87.6616 95.5526 87.7454 95.7969 87.8931 95.9929C88.0437 96.1861 88.244 96.3324 88.494 96.4318C88.7468 96.5284 89.0323 96.5767 89.3505 96.5767C89.663 96.5767 89.9343 96.5312 90.1644 96.4403C90.3974 96.3494 90.5778 96.223 90.7056 96.0611C90.8335 95.8991 90.8974 95.7131 90.8974 95.5028C90.8974 95.3068 90.8391 95.142 90.7227 95.0085C90.609 94.875 90.4414 94.7614 90.2198 94.6676C90.0011 94.5739 89.7326 94.4886 89.4144 94.4119L88.4641 94.1733C87.7283 93.9943 87.1474 93.7145 86.7212 93.3338C86.2951 92.9531 86.0835 92.4403 86.0863 91.7955C86.0835 91.267 86.2241 90.8054 86.5082 90.4105C86.7951 90.0156 87.1886 89.7074 87.6886 89.4858C88.1886 89.2642 88.7567 89.1534 89.3931 89.1534C90.0408 89.1534 90.6062 89.2642 91.0891 89.4858C91.5749 89.7074 91.9528 90.0156 92.2227 90.4105C92.4925 90.8054 92.6317 91.2628 92.6403 91.7827H90.8718Z" fill="#5A6B6F"/>
<path d="M20.6321 124V116.727H23.5014C24.053 116.727 24.523 116.833 24.9112 117.043C25.2995 117.252 25.5954 117.542 25.799 117.913C26.005 118.283 26.108 118.709 26.108 119.192C26.108 119.675 26.0038 120.101 25.7955 120.47C25.5871 120.839 25.2853 121.127 24.8899 121.333C24.4969 121.539 24.0211 121.642 23.4624 121.642H21.6335V120.41H23.2138C23.5097 120.41 23.7536 120.359 23.9453 120.257C24.1394 120.153 24.2839 120.01 24.3786 119.827C24.4756 119.643 24.5241 119.431 24.5241 119.192C24.5241 118.95 24.4756 118.74 24.3786 118.56C24.2839 118.377 24.1394 118.237 23.9453 118.137C23.7512 118.035 23.505 117.984 23.2067 117.984H22.1697V124H20.6321ZM27.1067 124V116.727H32.0073V117.995H28.6444V119.728H31.7551V120.996H28.6444V122.732H32.0215V124H27.1067ZM33.2298 124V116.727H36.0991C36.6483 116.727 37.1171 116.826 37.5053 117.022C37.896 117.216 38.1931 117.492 38.3967 117.849C38.6026 118.205 38.7056 118.622 38.7056 119.103C38.7056 119.586 38.6014 120.001 38.3931 120.349C38.1848 120.695 37.8829 120.96 37.4876 121.145C37.0946 121.33 36.6187 121.422 36.06 121.422H34.1388V120.186H35.8114C36.105 120.186 36.3488 120.146 36.543 120.065C36.7371 119.985 36.8815 119.864 36.9762 119.703C37.0733 119.542 37.1218 119.342 37.1218 119.103C37.1218 118.862 37.0733 118.658 36.9762 118.492C36.8815 118.326 36.7359 118.201 36.5394 118.116C36.3453 118.028 36.1003 117.984 35.8043 117.984H34.7674V124H33.2298ZM37.1573 120.69L38.9648 124H37.2674L35.4989 120.69H37.1573ZM41.3299 116.727V124H39.7923V116.727H41.3299ZM40.0231 116.024L40.7759 114.408H42.1751L41.092 116.024H40.0231ZM49.2782 120.364C49.2782 121.157 49.1279 121.831 48.8272 122.388C48.5289 122.944 48.1217 123.369 47.6056 123.663C47.0919 123.954 46.5143 124.099 45.8727 124.099C45.2264 124.099 44.6464 123.953 44.1326 123.659C43.6189 123.366 43.2129 122.941 42.9146 122.384C42.6163 121.828 42.4672 121.154 42.4672 120.364C42.4672 119.571 42.6163 118.896 42.9146 118.339C43.2129 117.783 43.6189 117.359 44.1326 117.068C44.6464 116.775 45.2264 116.628 45.8727 116.628C46.5143 116.628 47.0919 116.775 47.6056 117.068C48.1217 117.359 48.5289 117.783 48.8272 118.339C49.1279 118.896 49.2782 119.571 49.2782 120.364ZM47.7193 120.364C47.7193 119.85 47.6423 119.417 47.4885 119.064C47.3369 118.711 47.1227 118.444 46.8457 118.261C46.5687 118.079 46.2444 117.988 45.8727 117.988C45.501 117.988 45.1767 118.079 44.8997 118.261C44.6227 118.444 44.4073 118.711 44.2534 119.064C44.1019 119.417 44.0261 119.85 44.0261 120.364C44.0261 120.877 44.1019 121.311 44.2534 121.663C44.4073 122.016 44.6227 122.284 44.8997 122.466C45.1767 122.648 45.501 122.739 45.8727 122.739C46.2444 122.739 46.5687 122.648 46.8457 122.466C47.1227 122.284 47.3369 122.016 47.4885 121.663C47.6423 121.311 47.7193 120.877 47.7193 120.364ZM52.9954 124H50.4173V116.727H53.0167C53.7482 116.727 54.378 116.873 54.9059 117.164C55.4338 117.453 55.8398 117.868 56.1239 118.411C56.4104 118.953 56.5536 119.601 56.5536 120.357C56.5536 121.114 56.4104 121.765 56.1239 122.31C55.8398 122.854 55.4315 123.272 54.8988 123.563C54.3685 123.854 53.734 124 52.9954 124ZM51.9549 122.683H52.9315C53.386 122.683 53.7683 122.602 54.0785 122.441C54.391 122.278 54.6254 122.026 54.7816 121.685C54.9402 121.341 55.0195 120.899 55.0195 120.357C55.0195 119.819 54.9402 119.38 54.7816 119.039C54.6254 118.698 54.3922 118.447 54.082 118.286C53.7719 118.125 53.3896 118.045 52.935 118.045H51.9549V122.683ZM64.3759 120.364C64.3759 121.157 64.2256 121.831 63.9249 122.388C63.6266 122.944 63.2194 123.369 62.7033 123.663C62.1896 123.954 61.6119 124.099 60.9703 124.099C60.324 124.099 59.744 123.953 59.2303 123.659C58.7166 123.366 58.3105 122.941 58.0123 122.384C57.714 121.828 57.5648 121.154 57.5648 120.364C57.5648 119.571 57.714 118.896 58.0123 118.339C58.3105 117.783 58.7166 117.359 59.2303 117.068C59.744 116.775 60.324 116.628 60.9703 116.628C61.6119 116.628 62.1896 116.775 62.7033 117.068C63.2194 117.359 63.6266 117.783 63.9249 118.339C64.2256 118.896 64.3759 119.571 64.3759 120.364ZM62.8169 120.364C62.8169 119.85 62.74 119.417 62.5861 119.064C62.4346 118.711 62.2203 118.444 61.9434 118.261C61.6664 118.079 61.342 117.988 60.9703 117.988C60.5987 117.988 60.2743 118.079 59.9973 118.261C59.7203 118.444 59.5049 118.711 59.351 119.064C59.1995 119.417 59.1238 119.85 59.1238 120.364C59.1238 120.877 59.1995 121.311 59.351 121.663C59.5049 122.016 59.7203 122.284 59.9973 122.466C60.2743 122.648 60.5987 122.739 60.9703 122.739C61.342 122.739 61.6664 122.648 61.9434 122.466C62.2203 122.284 62.4346 122.016 62.5861 121.663C62.74 121.311 62.8169 120.877 62.8169 120.364Z" fill="#5A6B6F"/>
<path d="M194 130H26C22.6863 130 20 132.686 20 136V150C20 153.314 22.6863 156 26 156H194C197.314 156 200 153.314 200 150V136C200 132.686 197.314 130 194 130Z" fill="#F5F7F8" stroke="#E6EBED"/>
<path d="M21.8857 178H20.2379L22.7486 170.727H24.7301L27.2372 178H25.5895L23.7678 172.389H23.7109L21.8857 178ZM21.7827 175.141H25.6747V176.342H21.7827V175.141ZM34.1957 170.727V178H32.8675L29.7035 173.423H29.6502V178H28.1126V170.727H29.462L32.6012 175.301H32.6651V170.727H34.1957ZM42.1493 174.364C42.1493 175.157 41.999 175.831 41.6983 176.388C41.4 176.944 40.9928 177.369 40.4767 177.663C39.963 177.954 39.3854 178.099 38.7438 178.099C38.0975 178.099 37.5175 177.953 37.0037 177.659C36.49 177.366 36.084 176.941 35.7857 176.384C35.4874 175.828 35.3382 175.154 35.3382 174.364C35.3382 173.571 35.4874 172.896 35.7857 172.339C36.084 171.783 36.49 171.359 37.0037 171.068C37.5175 170.775 38.0975 170.628 38.7438 170.628C39.3854 170.628 39.963 170.775 40.4767 171.068C40.9928 171.359 41.4 171.783 41.6983 172.339C41.999 172.896 42.1493 173.571 42.1493 174.364ZM40.5904 174.364C40.5904 173.85 40.5134 173.417 40.3596 173.064C40.208 172.711 39.9938 172.444 39.7168 172.261C39.4398 172.079 39.1155 171.988 38.7438 171.988C38.3721 171.988 38.0478 172.079 37.7708 172.261C37.4938 172.444 37.2783 172.711 37.1245 173.064C36.973 173.417 36.8972 173.85 36.8972 174.364C36.8972 174.877 36.973 175.311 37.1245 175.663C37.2783 176.016 37.4938 176.284 37.7708 176.466C38.0478 176.648 38.3721 176.739 38.7438 176.739C39.1155 176.739 39.4398 176.648 39.7168 176.466C39.9938 176.284 40.208 176.016 40.3596 175.663C40.5134 175.311 40.5904 174.877 40.5904 174.364ZM48.742 170.386L46.3983 179.094H45.095L47.4387 170.386H48.742ZM51.5368 171.995V170.727H57.5098V171.995H55.2832V178H53.7633V171.995H51.5368ZM58.4934 178V170.727H61.3627C61.912 170.727 62.3807 170.826 62.769 171.022C63.1596 171.216 63.4567 171.492 63.6603 171.849C63.8663 172.205 63.9693 172.622 63.9693 173.103C63.9693 173.586 63.8651 174.001 63.6568 174.349C63.4484 174.695 63.1466 174.96 62.7512 175.145C62.3583 175.33 61.8824 175.422 61.3237 175.422H59.4025V174.186H61.0751C61.3687 174.186 61.6125 174.146 61.8066 174.065C62.0008 173.985 62.1452 173.864 62.2399 173.703C62.3369 173.542 62.3855 173.342 62.3855 173.103C62.3855 172.862 62.3369 172.658 62.2399 172.492C62.1452 172.326 61.9996 172.201 61.8031 172.116C61.609 172.028 61.3639 171.984 61.068 171.984H60.0311V178H58.4934ZM62.421 174.69L64.2285 178H62.5311L60.7626 174.69H62.421ZM66.5936 170.727V178H65.0559V170.727H66.5936ZM67.8587 170.727H69.755L71.7578 175.614H71.843L73.8459 170.727H75.7422V178H74.2507V173.266H74.1903L72.3082 177.964H71.2926L69.4105 173.249H69.3501V178H67.8587V170.727ZM77.0091 178V170.727H81.9096V171.995H78.5467V173.728H81.6575V174.996H78.5467V176.732H81.9238V178H77.0091ZM87.0774 172.819C87.049 172.532 86.9271 172.31 86.7116 172.151C86.4962 171.993 86.2038 171.913 85.8345 171.913C85.5836 171.913 85.3717 171.949 85.1989 172.02C85.026 172.089 84.8935 172.184 84.8011 172.308C84.7112 172.431 84.6662 172.57 84.6662 172.727C84.6615 172.857 84.6887 172.97 84.7479 173.067C84.8094 173.165 84.8935 173.249 85 173.32C85.1065 173.388 85.2296 173.449 85.3693 173.501C85.509 173.55 85.6581 173.593 85.8168 173.629L86.4702 173.785C86.7874 173.856 87.0786 173.951 87.3438 174.069C87.6089 174.187 87.8385 174.333 88.0327 174.506C88.2268 174.679 88.3771 174.882 88.4837 175.116C88.5926 175.351 88.6482 175.62 88.6506 175.923C88.6482 176.368 88.5346 176.754 88.3097 177.08C88.0871 177.405 87.7652 177.657 87.3438 177.837C86.9247 178.014 86.4193 178.103 85.8274 178.103C85.2403 178.103 84.7289 178.013 84.2933 177.833C83.8601 177.653 83.5215 177.387 83.2777 177.034C83.0362 176.679 82.9096 176.24 82.8977 175.717H84.3857C84.4022 175.96 84.4721 176.164 84.5952 176.327C84.7206 176.488 84.8875 176.61 85.0959 176.693C85.3066 176.774 85.5445 176.814 85.8097 176.814C86.0701 176.814 86.2962 176.776 86.4879 176.7C86.6821 176.625 86.8324 176.519 86.9389 176.384C87.0455 176.249 87.0987 176.094 87.0987 175.919C87.0987 175.756 87.0502 175.618 86.9531 175.507C86.8584 175.396 86.7188 175.301 86.5341 175.223C86.3518 175.145 86.1281 175.074 85.8629 175.01L85.071 174.811C84.4579 174.662 83.9737 174.429 83.6186 174.112C83.2635 173.794 83.0871 173.367 83.0895 172.83C83.0871 172.389 83.2043 172.004 83.4411 171.675C83.6802 171.346 84.008 171.089 84.4247 170.905C84.8414 170.72 85.3149 170.628 85.8452 170.628C86.3849 170.628 86.8561 170.72 87.2585 170.905C87.6634 171.089 87.9782 171.346 88.2031 171.675C88.428 172.004 88.544 172.386 88.5511 172.819H87.0774ZM89.4078 171.995V170.727H95.3809V171.995H93.1543V178H91.6344V171.995H89.4078ZM96.3645 178V170.727H99.2338C99.7831 170.727 100.252 170.826 100.64 171.022C101.031 171.216 101.328 171.492 101.531 171.849C101.737 172.205 101.84 172.622 101.84 173.103C101.84 173.586 101.736 174.001 101.528 174.349C101.32 174.695 101.018 174.96 100.622 175.145C100.229 175.33 99.7535 175.422 99.1948 175.422H97.2736V174.186H98.9462C99.2398 174.186 99.4836 174.146 99.6777 174.065C99.8719 173.985 100.016 173.864 100.111 173.703C100.208 173.542 100.257 173.342 100.257 173.103C100.257 172.862 100.208 172.658 100.111 172.492C100.016 172.326 99.8707 172.201 99.6742 172.116C99.4801 172.028 99.235 171.984 98.9391 171.984H97.9022V178H96.3645ZM100.292 174.69L102.1 178H100.402L98.6337 174.69H100.292ZM102.927 178V170.727H107.828V171.995H104.465V173.728H107.575V174.996H104.465V176.732H107.842V178H102.927Z" fill="#5A6B6F"/>
<path d="M194 184H26C22.6863 184 20 186.686 20 190V204C20 207.314 22.6863 210 26 210H194C197.314 210 200 207.314 200 204V190C200 186.686 197.314 184 194 184Z" fill="#F5F7F8" stroke="#E6EBED"/>
<path d="M25.1243 224.727H26.6619V229.45C26.6619 229.981 26.5353 230.445 26.282 230.842C26.031 231.24 25.6795 231.55 25.2273 231.773C24.7751 231.993 24.2483 232.103 23.647 232.103C23.0433 232.103 22.5154 231.993 22.0632 231.773C21.611 231.55 21.2595 231.24 21.0085 230.842C20.7576 230.445 20.6321 229.981 20.6321 229.45V224.727H22.1697V229.319C22.1697 229.596 22.2301 229.842 22.3509 230.058C22.474 230.273 22.6468 230.442 22.8693 230.565C23.0919 230.688 23.3511 230.75 23.647 230.75C23.9453 230.75 24.2045 230.688 24.4247 230.565C24.6473 230.442 24.8189 230.273 24.9396 230.058C25.0627 229.842 25.1243 229.596 25.1243 229.319V224.727ZM27.927 232V224.727H32.7424V225.995H29.4647V227.728H32.4228V228.996H29.4647V232H27.927ZM38.6692 232H36.0911V224.727H38.6905C39.4221 224.727 40.0518 224.873 40.5797 225.164C41.1077 225.453 41.5137 225.868 41.7978 226.411C42.0842 226.953 42.2275 227.601 42.2275 228.357C42.2275 229.114 42.0842 229.765 41.7978 230.31C41.5137 230.854 41.1053 231.272 40.5726 231.563C40.0423 231.854 39.4078 232 38.6692 232ZM37.6287 230.683H38.6053C39.0598 230.683 39.4422 230.602 39.7523 230.441C40.0648 230.278 40.2992 230.026 40.4554 229.685C40.6141 229.341 40.6934 228.899 40.6934 228.357C40.6934 227.819 40.6141 227.38 40.4554 227.039C40.2992 226.698 40.066 226.447 39.7559 226.286C39.4457 226.125 39.0634 226.045 38.6088 226.045H37.6287V230.683ZM50.0497 228.364C50.0497 229.157 49.8994 229.831 49.5987 230.388C49.3004 230.944 48.8932 231.369 48.3771 231.663C47.8634 231.954 47.2857 232.099 46.6442 232.099C45.9979 232.099 45.4179 231.953 44.9041 231.659C44.3904 231.366 43.9844 230.941 43.6861 230.384C43.3878 229.828 43.2386 229.154 43.2386 228.364C43.2386 227.571 43.3878 226.896 43.6861 226.339C43.9844 225.783 44.3904 225.359 44.9041 225.068C45.4179 224.775 45.9979 224.628 46.6442 224.628C47.2857 224.628 47.8634 224.775 48.3771 225.068C48.8932 225.359 49.3004 225.783 49.5987 226.339C49.8994 226.896 50.0497 227.571 50.0497 228.364ZM48.4908 228.364C48.4908 227.85 48.4138 227.417 48.2599 227.064C48.1084 226.711 47.8942 226.444 47.6172 226.261C47.3402 226.079 47.0159 225.988 46.6442 225.988C46.2725 225.988 45.9482 226.079 45.6712 226.261C45.3942 226.444 45.1787 226.711 45.0249 227.064C44.8733 227.417 44.7976 227.85 44.7976 228.364C44.7976 228.877 44.8733 229.311 45.0249 229.663C45.1787 230.016 45.3942 230.284 45.6712 230.466C45.9482 230.648 46.2725 230.739 46.6442 230.739C47.0159 230.739 47.3402 230.648 47.6172 230.466C47.8942 230.284 48.1084 230.016 48.2599 229.663C48.4138 229.311 48.4908 228.877 48.4908 228.364ZM59.9201 227.273H58.3647C58.3363 227.072 58.2783 226.893 58.1907 226.737C58.1031 226.579 57.9906 226.444 57.8533 226.332C57.716 226.221 57.5574 226.136 57.3775 226.077C57.1999 226.018 57.007 225.988 56.7987 225.988C56.4222 225.988 56.0943 226.081 55.815 226.268C55.5356 226.453 55.319 226.723 55.1651 227.078C55.0112 227.431 54.9343 227.859 54.9343 228.364C54.9343 228.882 55.0112 229.318 55.1651 229.67C55.3214 230.023 55.5392 230.29 55.8185 230.469C56.0979 230.649 56.421 230.739 56.788 230.739C56.994 230.739 57.1845 230.712 57.3597 230.658C57.5373 230.603 57.6947 230.524 57.832 230.42C57.9693 230.313 58.083 230.184 58.1729 230.033C58.2653 229.881 58.3292 229.708 58.3647 229.514L59.9201 229.521C59.8799 229.855 59.7792 230.177 59.6183 230.487C59.4596 230.795 59.2454 231.071 58.9755 231.315C58.708 231.556 58.3884 231.748 58.0167 231.89C57.6474 232.03 57.2295 232.099 56.7631 232.099C56.1145 232.099 55.5344 231.953 55.0231 231.659C54.5141 231.366 54.1116 230.941 53.8157 230.384C53.5221 229.828 53.3754 229.154 53.3754 228.364C53.3754 227.571 53.5245 226.896 53.8228 226.339C54.1211 225.783 54.5259 225.359 55.0373 225.068C55.5487 224.775 56.1239 224.628 56.7631 224.628C57.1845 224.628 57.5752 224.687 57.935 224.805C58.2972 224.924 58.618 225.097 58.8974 225.324C59.1767 225.549 59.404 225.825 59.5792 226.151C59.7567 226.478 59.8704 226.852 59.9201 227.273ZM61.0227 232V224.727H62.5604V230.732H65.6783V232H61.0227ZM68.2342 224.727V232H66.6966V224.727H68.2342ZM69.4993 232V224.727H74.3999V225.995H71.0369V227.728H74.1477V228.996H71.0369V230.732H74.4141V232H69.4993ZM81.7054 224.727V232H80.3773L77.2132 227.423H77.16V232H75.6223V224.727H76.9718L80.111 229.301H80.1749V224.727H81.7054ZM82.6989 225.995V224.727H88.6719V225.995H86.4453V232H84.9254V225.995H82.6989ZM89.6555 232V224.727H94.5561V225.995H91.1932V227.728H94.304V228.996H91.1932V230.732H94.5703V232H89.6555Z" fill="#5A6B6F"/>
<path d="M194 238H26C22.6863 238 20 240.686 20 244V258C20 261.314 22.6863 264 26 264H194C197.314 264 200 261.314 200 258V244C200 240.686 197.314 238 194 238Z" fill="#F5F7F8" stroke="#E6EBED"/>
<path d="M25.1243 278.727H26.6619V283.45C26.6619 283.981 26.5353 284.445 26.282 284.842C26.031 285.24 25.6795 285.55 25.2273 285.773C24.7751 285.993 24.2483 286.103 23.647 286.103C23.0433 286.103 22.5154 285.993 22.0632 285.773C21.611 285.55 21.2595 285.24 21.0085 284.842C20.7576 284.445 20.6321 283.981 20.6321 283.45V278.727H22.1697V283.319C22.1697 283.596 22.2301 283.842 22.3509 284.058C22.474 284.273 22.6468 284.442 22.8693 284.565C23.0919 284.688 23.3511 284.75 23.647 284.75C23.9453 284.75 24.2045 284.688 24.4247 284.565C24.6473 284.442 24.8189 284.273 24.9396 284.058C25.0627 283.842 25.1243 283.596 25.1243 283.319V278.727ZM27.927 286V278.727H32.7424V279.995H29.4647V281.728H32.4228V282.996H29.4647V286H27.927ZM38.6692 286H36.0911V278.727H38.6905C39.4221 278.727 40.0518 278.873 40.5797 279.164C41.1077 279.453 41.5137 279.868 41.7978 280.411C42.0842 280.953 42.2275 281.601 42.2275 282.357C42.2275 283.114 42.0842 283.765 41.7978 284.31C41.5137 284.854 41.1053 285.272 40.5726 285.563C40.0423 285.854 39.4078 286 38.6692 286ZM37.6287 284.683H38.6053C39.0598 284.683 39.4422 284.602 39.7523 284.441C40.0648 284.278 40.2992 284.026 40.4554 283.685C40.6141 283.341 40.6934 282.899 40.6934 282.357C40.6934 281.819 40.6141 281.38 40.4554 281.039C40.2992 280.698 40.066 280.447 39.7559 280.286C39.4457 280.125 39.0634 280.045 38.6088 280.045H37.6287V284.683ZM50.0497 282.364C50.0497 283.157 49.8994 283.831 49.5987 284.388C49.3004 284.944 48.8932 285.369 48.3771 285.663C47.8634 285.954 47.2857 286.099 46.6442 286.099C45.9979 286.099 45.4179 285.953 44.9041 285.659C44.3904 285.366 43.9844 284.941 43.6861 284.384C43.3878 283.828 43.2386 283.154 43.2386 282.364C43.2386 281.571 43.3878 280.896 43.6861 280.339C43.9844 279.783 44.3904 279.359 44.9041 279.068C45.4179 278.775 45.9979 278.628 46.6442 278.628C47.2857 278.628 47.8634 278.775 48.3771 279.068C48.8932 279.359 49.3004 279.783 49.5987 280.339C49.8994 280.896 50.0497 281.571 50.0497 282.364ZM48.4908 282.364C48.4908 281.85 48.4138 281.417 48.2599 281.064C48.1084 280.711 47.8942 280.444 47.6172 280.261C47.3402 280.079 47.0159 279.988 46.6442 279.988C46.2725 279.988 45.9482 280.079 45.6712 280.261C45.3942 280.444 45.1787 280.711 45.0249 281.064C44.8733 281.417 44.7976 281.85 44.7976 282.364C44.7976 282.877 44.8733 283.311 45.0249 283.663C45.1787 284.016 45.3942 284.284 45.6712 284.466C45.9482 284.648 46.2725 284.739 46.6442 284.739C47.0159 284.739 47.3402 284.648 47.6172 284.466C47.8942 284.284 48.1084 284.016 48.2599 283.663C48.4138 283.311 48.4908 282.877 48.4908 282.364ZM57.4485 280.819C57.4201 280.532 57.2982 280.31 57.0827 280.151C56.8673 279.993 56.5749 279.913 56.2056 279.913C55.9547 279.913 55.7428 279.949 55.57 280.02C55.3971 280.089 55.2646 280.184 55.1722 280.308C55.0823 280.431 55.0373 280.57 55.0373 280.727C55.0326 280.857 55.0598 280.97 55.119 281.067C55.1805 281.165 55.2646 281.249 55.3711 281.32C55.4776 281.388 55.6007 281.449 55.7404 281.501C55.8801 281.55 56.0292 281.593 56.1879 281.629L56.8413 281.785C57.1585 281.856 57.4497 281.951 57.7148 282.069C57.98 282.187 58.2096 282.333 58.4038 282.506C58.5979 282.679 58.7482 282.882 58.8548 283.116C58.9637 283.351 59.0193 283.62 59.0217 283.923C59.0193 284.368 58.9057 284.754 58.6808 285.08C58.4582 285.405 58.1362 285.657 57.7148 285.837C57.2958 286.014 56.7904 286.103 56.1985 286.103C55.6114 286.103 55.1 286.013 54.6644 285.833C54.2312 285.653 53.8926 285.387 53.6488 285.034C53.4073 284.679 53.2807 284.24 53.2688 283.717H54.7567C54.7733 283.96 54.8432 284.164 54.9663 284.327C55.0917 284.488 55.2586 284.61 55.467 284.693C55.6777 284.774 55.9156 284.814 56.1808 284.814C56.4412 284.814 56.6673 284.776 56.859 284.7C57.0531 284.625 57.2035 284.519 57.31 284.384C57.4165 284.249 57.4698 284.094 57.4698 283.919C57.4698 283.756 57.4213 283.618 57.3242 283.507C57.2295 283.396 57.0898 283.301 56.9052 283.223C56.7229 283.145 56.4992 283.074 56.234 283.01L55.4421 282.811C54.829 282.662 54.3448 282.429 53.9897 282.112C53.6346 281.794 53.4582 281.367 53.4606 280.83C53.4582 280.389 53.5754 280.004 53.8121 279.675C54.0513 279.346 54.3791 279.089 54.7958 278.905C55.2125 278.72 55.686 278.628 56.2163 278.628C56.756 278.628 57.2272 278.72 57.6296 278.905C58.0344 279.089 58.3493 279.346 58.5742 279.675C58.7991 280.004 58.9151 280.386 58.9222 280.819H57.4485ZM60.0559 286V278.727H64.9565V279.995H61.5936V281.728H64.7044V282.996H61.5936V284.732H64.9707V286H60.0559ZM66.179 286V278.727H67.7166V284.732H70.8345V286H66.179ZM71.8528 286V278.727H73.3904V284.732H76.5083V286H71.8528ZM77.5266 286V278.727H82.4272V279.995H79.0643V281.728H82.1751V282.996H79.0643V284.732H82.4414V286H77.5266ZM83.6497 286V278.727H86.519C87.0682 278.727 87.537 278.826 87.9252 279.022C88.3159 279.216 88.613 279.492 88.8166 279.849C89.0225 280.205 89.1255 280.622 89.1255 281.103C89.1255 281.586 89.0214 282.001 88.813 282.349C88.6047 282.695 88.3029 282.96 87.9075 283.145C87.5145 283.33 87.0386 283.422 86.4799 283.422H84.5588V282.186H86.2314C86.5249 282.186 86.7688 282.146 86.9629 282.065C87.157 281.985 87.3014 281.864 87.3961 281.703C87.4932 281.542 87.5417 281.342 87.5417 281.103C87.5417 280.862 87.4932 280.658 87.3961 280.492C87.3014 280.326 87.1558 280.201 86.9593 280.116C86.7652 280.028 86.5202 279.984 86.2243 279.984H85.1873V286H83.6497ZM87.5772 282.69L89.3848 286H87.6873L85.9189 282.69H87.5772Z" fill="#5A6B6F"/>
<path d="M194 292H26C22.6863 292 20 294.686 20 298V312C20 315.314 22.6863 318 26 318H194C197.314 318 200 315.314 200 312V298C200 294.686 197.314 292 194 292Z" fill="#F5F7F8" stroke="#E6EBED"/>
<path d="M27.049 335.273H25.4936C25.4652 335.072 25.4072 334.893 25.3196 334.737C25.232 334.579 25.1196 334.444 24.9822 334.332C24.8449 334.221 24.6863 334.136 24.5064 334.077C24.3288 334.018 24.1359 333.988 23.9276 333.988C23.5511 333.988 23.2232 334.081 22.9439 334.268C22.6645 334.453 22.4479 334.723 22.294 335.078C22.1402 335.431 22.0632 335.859 22.0632 336.364C22.0632 336.882 22.1402 337.318 22.294 337.67C22.4503 338.023 22.6681 338.29 22.9474 338.469C23.2268 338.649 23.55 338.739 23.9169 338.739C24.1229 338.739 24.3134 338.712 24.4886 338.658C24.6662 338.603 24.8236 338.524 24.9609 338.42C25.0982 338.313 25.2119 338.184 25.3018 338.033C25.3942 337.881 25.4581 337.708 25.4936 337.514L27.049 337.521C27.0088 337.855 26.9081 338.177 26.7472 338.487C26.5885 338.795 26.3743 339.071 26.1044 339.315C25.8369 339.556 25.5173 339.748 25.1456 339.89C24.7763 340.03 24.3584 340.099 23.892 340.099C23.2434 340.099 22.6634 339.953 22.152 339.659C21.643 339.366 21.2405 338.941 20.9446 338.384C20.651 337.828 20.5043 337.154 20.5043 336.364C20.5043 335.571 20.6534 334.896 20.9517 334.339C21.25 333.783 21.6548 333.359 22.1662 333.068C22.6776 332.775 23.2528 332.628 23.892 332.628C24.3134 332.628 24.7041 332.687 25.0639 332.805C25.4261 332.924 25.7469 333.097 26.0263 333.324C26.3056 333.549 26.5329 333.825 26.7081 334.151C26.8857 334.478 26.9993 334.852 27.049 335.273ZM29.2685 340H27.6207L30.1314 332.727H32.1129L34.62 340H32.9723L31.1506 334.389H31.0938L29.2685 340ZM29.1655 337.141H33.0575V338.342H29.1655V337.141ZM34.3297 333.995V332.727H40.3027V333.995H38.0762V340H36.5563V333.995H34.3297ZM41.2864 340V332.727H46.187V333.995H42.824V335.728H45.9348V336.996H42.824V338.732H46.2012V340H41.2864ZM52.2319 335.078C52.1822 334.905 52.1123 334.753 52.0224 334.62C51.9324 334.485 51.8223 334.371 51.6921 334.279C51.5643 334.184 51.4175 334.112 51.2518 334.062C51.0884 334.013 50.9073 333.988 50.7085 333.988C50.3368 333.988 50.0101 334.08 49.7283 334.265C49.449 334.45 49.2312 334.718 49.0749 335.071C48.9187 335.421 48.8406 335.85 48.8406 336.357C48.8406 336.863 48.9175 337.294 49.0714 337.649C49.2253 338.004 49.4431 338.275 49.7248 338.462C50.0065 338.647 50.3391 338.739 50.7227 338.739C51.0707 338.739 51.3678 338.678 51.614 338.555C51.8626 338.429 52.052 338.253 52.1822 338.026C52.3147 337.798 52.381 337.53 52.381 337.219L52.6935 337.266H50.8185V336.108H53.8619V337.024C53.8619 337.663 53.7269 338.213 53.457 338.672C53.1871 339.129 52.8155 339.482 52.342 339.73C51.8685 339.976 51.3263 340.099 50.7156 340.099C50.0337 340.099 49.4348 339.949 48.9187 339.648C48.4026 339.345 48.0001 338.916 47.7113 338.359C47.4248 337.801 47.2816 337.138 47.2816 336.371C47.2816 335.781 47.3668 335.256 47.5373 334.794C47.7101 334.33 47.9516 333.937 48.2617 333.615C48.5719 333.293 48.9329 333.048 49.3448 332.88C49.7567 332.712 50.203 332.628 50.6836 332.628C51.0955 332.628 51.479 332.688 51.8342 332.809C52.1893 332.927 52.5041 333.095 52.7788 333.313C53.0558 333.531 53.2818 333.79 53.457 334.091C53.6322 334.389 53.7447 334.718 53.7944 335.078H52.2319ZM61.7001 336.364C61.7001 337.157 61.5498 337.831 61.2491 338.388C60.9508 338.944 60.5436 339.369 60.0275 339.663C59.5138 339.954 58.9361 340.099 58.2946 340.099C57.6483 340.099 57.0682 339.953 56.5545 339.659C56.0408 339.366 55.6348 338.941 55.3365 338.384C55.0382 337.828 54.889 337.154 54.889 336.364C54.889 335.571 55.0382 334.896 55.3365 334.339C55.6348 333.783 56.0408 333.359 56.5545 333.068C57.0682 332.775 57.6483 332.628 58.2946 332.628C58.9361 332.628 59.5138 332.775 60.0275 333.068C60.5436 333.359 60.9508 333.783 61.2491 334.339C61.5498 334.896 61.7001 335.571 61.7001 336.364ZM60.1412 336.364C60.1412 335.85 60.0642 335.417 59.9103 335.064C59.7588 334.711 59.5446 334.444 59.2676 334.261C58.9906 334.079 58.6663 333.988 58.2946 333.988C57.9229 333.988 57.5985 334.079 57.3216 334.261C57.0446 334.444 56.8291 334.711 56.6752 335.064C56.5237 335.417 56.448 335.85 56.448 336.364C56.448 336.877 56.5237 337.311 56.6752 337.663C56.8291 338.016 57.0446 338.284 57.3216 338.466C57.5985 338.648 57.9229 338.739 58.2946 338.739C58.6663 338.739 58.9906 338.648 59.2676 338.466C59.5446 338.284 59.7588 338.016 59.9103 337.663C60.0642 337.311 60.1412 336.877 60.1412 336.364ZM62.8391 340V332.727H65.7085C66.2577 332.727 66.7264 332.826 67.1147 333.022C67.5053 333.216 67.8024 333.492 68.006 333.849C68.212 334.205 68.315 334.622 68.315 335.103C68.315 335.586 68.2108 336.001 68.0025 336.349C67.7942 336.695 67.4923 336.96 67.0969 337.145C66.704 337.33 66.2281 337.422 65.6694 337.422H63.7482V336.186H65.4208C65.7144 336.186 65.9582 336.146 66.1523 336.065C66.3465 335.985 66.4909 335.864 66.5856 335.703C66.6826 335.542 66.7312 335.342 66.7312 335.103C66.7312 334.862 66.6826 334.658 66.5856 334.492C66.4909 334.326 66.3453 334.201 66.1488 334.116C65.9547 334.028 65.7096 333.984 65.4137 333.984H64.3768V340H62.8391ZM66.7667 336.69L68.5742 340H66.8768L65.1083 336.69H66.7667ZM70.9393 332.727V340H69.4016V332.727H70.9393ZM73.4579 340H71.8102L74.3208 332.727H76.3024L78.8095 340H77.1618L75.34 334.389H75.2832L73.4579 340ZM73.3549 337.141H77.247V338.342H73.3549V337.141Z" fill="#5A6B6F"/>
<path d="M194 346H26C22.6863 346 20 348.686 20 352V366C20 369.314 22.6863 372 26 372H194C197.314 372 200 369.314 200 366V352C200 348.686 197.314 346 194 346Z" fill="#F5F7F8" stroke="#E6EBED"/>
<path d="M20.3551 387.995V386.727H26.3281V387.995H24.1016V394H22.5817V387.995H20.3551ZM28.8494 386.727V394H27.3118V386.727H28.8494ZM30.1145 394V386.727H32.9838C33.5355 386.727 34.0054 386.833 34.3936 387.043C34.7819 387.252 35.0778 387.542 35.2814 387.913C35.4874 388.283 35.5904 388.709 35.5904 389.192C35.5904 389.675 35.4862 390.101 35.2779 390.47C35.0695 390.839 34.7677 391.127 34.3723 391.333C33.9793 391.539 33.5035 391.642 32.9448 391.642H31.1159V390.41H32.6962C32.9921 390.41 33.236 390.359 33.4277 390.257C33.6219 390.153 33.7663 390.01 33.861 389.827C33.958 389.643 34.0066 389.431 34.0066 389.192C34.0066 388.95 33.958 388.74 33.861 388.56C33.7663 388.377 33.6219 388.237 33.4277 388.137C33.2336 388.035 32.9874 387.984 32.6891 387.984H31.6522V394H30.1145ZM43.2724 390.364C43.2724 391.157 43.122 391.831 42.8214 392.388C42.5231 392.944 42.1159 393.369 41.5998 393.663C41.0861 393.954 40.5084 394.099 39.8668 394.099C39.2205 394.099 38.6405 393.953 38.1268 393.659C37.613 393.366 37.207 392.941 36.9087 392.384C36.6104 391.828 36.4613 391.154 36.4613 390.364C36.4613 389.571 36.6104 388.896 36.9087 388.339C37.207 387.783 37.613 387.359 38.1268 387.068C38.6405 386.775 39.2205 386.628 39.8668 386.628C40.5084 386.628 41.0861 386.775 41.5998 387.068C42.1159 387.359 42.5231 387.783 42.8214 388.339C43.122 388.896 43.2724 389.571 43.2724 390.364ZM41.7134 390.364C41.7134 389.85 41.6365 389.417 41.4826 389.064C41.3311 388.711 41.1168 388.444 40.8398 388.261C40.5629 388.079 40.2385 387.988 39.8668 387.988C39.4951 387.988 39.1708 388.079 38.8938 388.261C38.6168 388.444 38.4014 388.711 38.2475 389.064C38.096 389.417 38.0202 389.85 38.0202 390.364C38.0202 390.877 38.096 391.311 38.2475 391.663C38.4014 392.016 38.6168 392.284 38.8938 392.466C39.1708 392.648 39.4951 392.739 39.8668 392.739C40.2385 392.739 40.5629 392.648 40.8398 392.466C41.1168 392.284 41.3311 392.016 41.4826 391.663C41.6365 391.311 41.7134 390.877 41.7134 390.364ZM49.304 394H46.7259V386.727H49.3253C50.0568 386.727 50.6866 386.873 51.2145 387.164C51.7424 387.453 52.1484 387.868 52.4325 388.411C52.719 388.953 52.8622 389.601 52.8622 390.357C52.8622 391.114 52.719 391.765 52.4325 392.31C52.1484 392.854 51.7401 393.272 51.2074 393.563C50.6771 393.854 50.0426 394 49.304 394ZM48.2635 392.683H49.2401C49.6946 392.683 50.0769 392.602 50.3871 392.441C50.6996 392.278 50.9339 392.026 51.0902 391.685C51.2488 391.341 51.3281 390.899 51.3281 390.357C51.3281 389.819 51.2488 389.38 51.0902 389.039C50.9339 388.698 50.7008 388.447 50.3906 388.286C50.0805 388.125 49.6982 388.045 49.2436 388.045H48.2635V392.683ZM54.0012 394V386.727H58.9018V387.995H55.5389V389.728H58.6497V390.996H55.5389V392.732H58.916V394H54.0012ZM62.4387 394V386.727H65.3081C65.8597 386.727 66.3296 386.833 66.7179 387.043C67.1061 387.252 67.402 387.542 67.6056 387.913C67.8116 388.283 67.9146 388.709 67.9146 389.192C67.9146 389.675 67.8104 390.101 67.6021 390.47C67.3938 390.839 67.0919 391.127 66.6966 391.333C66.3036 391.539 65.8277 391.642 65.269 391.642H63.4402V390.41H65.0204C65.3163 390.41 65.5602 390.359 65.752 390.257C65.9461 390.153 66.0905 390.01 66.1852 389.827C66.2823 389.643 66.3308 389.431 66.3308 389.192C66.3308 388.95 66.2823 388.74 66.1852 388.56C66.0905 388.377 65.9461 388.237 65.752 388.137C65.5578 388.035 65.3116 387.984 65.0133 387.984H63.9764V394H62.4387ZM69.3271 394H67.6793L70.19 386.727H72.1715L74.6786 394H73.0309L71.2092 388.389H71.1523L69.3271 394ZM69.2241 391.141H73.1161V392.342H69.2241V391.141ZM80.0346 389.078C79.9849 388.905 79.9151 388.753 79.8251 388.62C79.7351 388.485 79.6251 388.371 79.4949 388.279C79.367 388.184 79.2202 388.112 79.0545 388.062C78.8912 388.013 78.71 387.988 78.5112 387.988C78.1395 387.988 77.8128 388.08 77.5311 388.265C77.2517 388.45 77.0339 388.718 76.8777 389.071C76.7214 389.421 76.6433 389.85 76.6433 390.357C76.6433 390.863 76.7202 391.294 76.8741 391.649C77.028 392.004 77.2458 392.275 77.5275 392.462C77.8092 392.647 78.1419 392.739 78.5254 392.739C78.8734 392.739 79.1705 392.678 79.4167 392.555C79.6653 392.429 79.8547 392.253 79.9849 392.026C80.1175 391.798 80.1838 391.53 80.1838 391.219L80.4963 391.266H78.6213V390.108H81.6646V391.024C81.6646 391.663 81.5297 392.213 81.2598 392.672C80.9899 393.129 80.6182 393.482 80.1447 393.73C79.6712 393.976 79.1291 394.099 78.5183 394.099C77.8365 394.099 77.2375 393.949 76.7214 393.648C76.2053 393.345 75.8029 392.916 75.514 392.359C75.2276 391.801 75.0843 391.138 75.0843 390.371C75.0843 389.781 75.1696 389.256 75.34 388.794C75.5128 388.33 75.7543 387.937 76.0645 387.615C76.3746 387.293 76.7356 387.048 77.1475 386.88C77.5595 386.712 78.0057 386.628 78.4863 386.628C78.8983 386.628 79.2818 386.688 79.6369 386.809C79.992 386.927 80.3069 387.095 80.5815 387.313C80.8585 387.531 81.0846 387.79 81.2598 388.091C81.435 388.389 81.5474 388.718 81.5971 389.078H80.0346ZM83.8485 394H82.2008L84.7115 386.727H86.693L89.2001 394H87.5524L85.7306 388.389H85.6738L83.8485 394ZM83.7456 391.141H87.6376V392.342H83.7456V391.141ZM90.0755 386.727H91.9718L93.9746 391.614H94.0598L96.0627 386.727H97.959V394H96.4675V389.266H96.4071L94.525 393.964H93.5094L91.6273 389.249H91.5669V394H90.0755V386.727ZM99.2259 394V386.727H104.126V387.995H100.763V389.728H103.874V390.996H100.763V392.732H104.141V394H99.2259ZM111.432 386.727V394H110.104L106.94 389.423H106.887V394H105.349V386.727H106.698L109.838 391.301H109.901V386.727H111.432ZM112.425 387.995V386.727H118.398V387.995H116.172V394H114.652V387.995H112.425ZM125.733 390.364C125.733 391.157 125.583 391.831 125.282 392.388C124.984 392.944 124.577 393.369 124.061 393.663C123.547 393.954 122.969 394.099 122.328 394.099C121.681 394.099 121.101 393.953 120.588 393.659C120.074 393.366 119.668 392.941 119.37 392.384C119.071 391.828 118.922 391.154 118.922 390.364C118.922 389.571 119.071 388.896 119.37 388.339C119.668 387.783 120.074 387.359 120.588 387.068C121.101 386.775 121.681 386.628 122.328 386.628C122.969 386.628 123.547 386.775 124.061 387.068C124.577 387.359 124.984 387.783 125.282 388.339C125.583 388.896 125.733 389.571 125.733 390.364ZM124.174 390.364C124.174 389.85 124.097 389.417 123.944 389.064C123.792 388.711 123.578 388.444 123.301 388.261C123.024 388.079 122.699 387.988 122.328 387.988C121.956 387.988 121.632 388.079 121.355 388.261C121.078 388.444 120.862 388.711 120.708 389.064C120.557 389.417 120.481 389.85 120.481 390.364C120.481 390.877 120.557 391.311 120.708 391.663C120.862 392.016 121.078 392.284 121.355 392.466C121.632 392.648 121.956 392.739 122.328 392.739C122.699 392.739 123.024 392.648 123.301 392.466C123.578 392.284 123.792 392.016 123.944 391.663C124.097 391.311 124.174 390.877 124.174 390.364Z" fill="#5A6B6F"/>
<path d="M194 400H26C22.6863 400 20 402.686 20 406V420C20 423.314 22.6863 426 26 426H194C197.314 426 200 423.314 200 420V406C200 402.686 197.314 400 194 400Z" fill="#F5F7F8" stroke="#E6EBED"/>
<path d="M24.5774 442.819C24.549 442.532 24.4271 442.31 24.2116 442.151C23.9962 441.993 23.7038 441.913 23.3345 441.913C23.0836 441.913 22.8717 441.949 22.6989 442.02C22.526 442.089 22.3935 442.184 22.3011 442.308C22.2112 442.431 22.1662 442.57 22.1662 442.727C22.1615 442.857 22.1887 442.97 22.2479 443.067C22.3094 443.165 22.3935 443.249 22.5 443.32C22.6065 443.388 22.7296 443.449 22.8693 443.501C23.009 443.55 23.1581 443.593 23.3168 443.629L23.9702 443.785C24.2874 443.856 24.5786 443.951 24.8438 444.069C25.1089 444.187 25.3385 444.333 25.5327 444.506C25.7268 444.679 25.8771 444.882 25.9837 445.116C26.0926 445.351 26.1482 445.62 26.1506 445.923C26.1482 446.368 26.0346 446.754 25.8097 447.08C25.5871 447.405 25.2652 447.657 24.8438 447.837C24.4247 448.014 23.9193 448.103 23.3274 448.103C22.7403 448.103 22.2289 448.013 21.7933 447.833C21.3601 447.653 21.0215 447.387 20.7777 447.034C20.5362 446.679 20.4096 446.24 20.3977 445.717H21.8857C21.9022 445.96 21.9721 446.164 22.0952 446.327C22.2206 446.488 22.3875 446.61 22.5959 446.693C22.8066 446.774 23.0445 446.814 23.3097 446.814C23.5701 446.814 23.7962 446.776 23.9879 446.7C24.1821 446.625 24.3324 446.519 24.4389 446.384C24.5455 446.249 24.5987 446.094 24.5987 445.919C24.5987 445.756 24.5502 445.618 24.4531 445.507C24.3584 445.396 24.2188 445.301 24.0341 445.223C23.8518 445.145 23.6281 445.074 23.3629 445.01L22.571 444.811C21.9579 444.662 21.4737 444.429 21.1186 444.112C20.7635 443.794 20.5871 443.367 20.5895 442.83C20.5871 442.389 20.7043 442.004 20.9411 441.675C21.1802 441.346 21.508 441.089 21.9247 440.905C22.3414 440.72 22.8149 440.628 23.3452 440.628C23.8849 440.628 24.3561 440.72 24.7585 440.905C25.1634 441.089 25.4782 441.346 25.7031 441.675C25.928 442.004 26.044 442.386 26.0511 442.819H24.5774ZM28.7225 440.727V448H27.1848V440.727H28.7225ZM29.7106 441.995V440.727H35.6836V441.995H33.457V448H31.9371V441.995H29.7106ZM41.1594 440.727H42.6971V445.45C42.6971 445.981 42.5704 446.445 42.3171 446.842C42.0662 447.24 41.7146 447.55 41.2624 447.773C40.8103 447.993 40.2835 448.103 39.6822 448.103C39.0785 448.103 38.5505 447.993 38.0984 447.773C37.6462 447.55 37.2946 447.24 37.0437 446.842C36.7927 446.445 36.6673 445.981 36.6673 445.45V440.727H38.2049V445.319C38.2049 445.596 38.2653 445.842 38.386 446.058C38.5091 446.273 38.6819 446.442 38.9045 446.565C39.127 446.688 39.3862 446.75 39.6822 446.75C39.9805 446.75 40.2397 446.688 40.4599 446.565C40.6824 446.442 40.854 446.273 40.9748 446.058C41.0979 445.842 41.1594 445.596 41.1594 445.319V440.727ZM45.2157 448H43.568L46.0787 440.727H48.0602L50.5673 448H48.9196L47.0978 442.389H47.041L45.2157 448ZM45.1127 445.141H49.0048V446.342H45.1127V445.141ZM57.5178 443.273H55.9624C55.9339 443.072 55.8759 442.893 55.7884 442.737C55.7008 442.579 55.5883 442.444 55.451 442.332C55.3137 442.221 55.1551 442.136 54.9751 442.077C54.7976 442.018 54.6046 441.988 54.3963 441.988C54.0199 441.988 53.692 442.081 53.4126 442.268C53.1333 442.453 52.9167 442.723 52.7628 443.078C52.6089 443.431 52.532 443.859 52.532 444.364C52.532 444.882 52.6089 445.318 52.7628 445.67C52.919 446.023 53.1368 446.29 53.4162 446.469C53.6955 446.649 54.0187 446.739 54.3857 446.739C54.5916 446.739 54.7822 446.712 54.9574 446.658C55.1349 446.603 55.2924 446.524 55.4297 446.42C55.567 446.313 55.6806 446.184 55.7706 446.033C55.8629 445.881 55.9268 445.708 55.9624 445.514L57.5178 445.521C57.4775 445.855 57.3769 446.177 57.2159 446.487C57.0573 446.795 56.843 447.071 56.5732 447.315C56.3056 447.556 55.986 447.748 55.6143 447.89C55.245 448.03 54.8272 448.099 54.3608 448.099C53.7121 448.099 53.1321 447.953 52.6207 447.659C52.1117 447.366 51.7093 446.941 51.4134 446.384C51.1198 445.828 50.973 445.154 50.973 444.364C50.973 443.571 51.1222 442.896 51.4205 442.339C51.7188 441.783 52.1236 441.359 52.6349 441.068C53.1463 440.775 53.7216 440.628 54.3608 440.628C54.7822 440.628 55.1728 440.687 55.5327 440.805C55.8949 440.924 56.2157 441.097 56.495 441.324C56.7744 441.549 57.0017 441.825 57.1768 442.151C57.3544 442.478 57.468 442.852 57.5178 443.273ZM53.9808 447.979H54.6768L54.62 448.288C54.8639 448.326 55.0627 448.417 55.2166 448.561C55.3729 448.705 55.4522 448.902 55.4545 449.151C55.4569 449.503 55.2936 449.784 54.9645 449.992C54.6354 450.203 54.1738 450.308 53.5795 450.308L53.5653 449.634C53.8636 449.634 54.0968 449.597 54.2649 449.523C54.4354 449.452 54.5241 449.341 54.5312 449.19C54.536 449.045 54.4804 448.935 54.3643 448.859C54.2483 448.784 54.0672 448.73 53.821 448.7L53.9808 447.979ZM59.7372 448H58.0895L60.6001 440.727H62.5817L65.0888 448H63.4411L61.6193 442.389H61.5625L59.7372 448ZM59.6342 445.141H63.5263V446.342H59.6342V445.141ZM60.5717 440.01L59.7337 439.999C59.7337 439.547 59.8449 439.2 60.0675 438.959C60.29 438.717 60.5634 438.595 60.8878 438.593C61.0535 438.593 61.1955 438.62 61.3139 438.675C61.4323 438.727 61.54 438.788 61.6371 438.859C61.7341 438.93 61.8265 438.993 61.9141 439.048C62.0017 439.1 62.0964 439.126 62.1982 439.126C62.3355 439.123 62.4396 439.072 62.5107 438.973C62.584 438.871 62.6207 438.739 62.6207 438.575L63.4482 438.6C63.4434 439.048 63.3298 439.393 63.1072 439.637C62.8847 439.879 62.6125 440 62.2905 440.003C62.1153 440.005 61.9673 439.979 61.8466 439.925C61.7282 439.87 61.6241 439.809 61.5341 439.74C61.4441 439.669 61.3565 439.606 61.2713 439.552C61.1861 439.497 61.0902 439.47 60.9837 439.47C60.8606 439.47 60.7611 439.519 60.6854 439.616C60.6096 439.713 60.5717 439.844 60.5717 440.01ZM72.3056 444.364C72.3056 445.157 72.1552 445.831 71.8546 446.388C71.5563 446.944 71.1491 447.369 70.633 447.663C70.1193 447.954 69.5416 448.099 68.9 448.099C68.2537 448.099 67.6737 447.953 67.16 447.659C66.6462 447.366 66.2402 446.941 65.9419 446.384C65.6436 445.828 65.4945 445.154 65.4945 444.364C65.4945 443.571 65.6436 442.896 65.9419 442.339C66.2402 441.783 66.6462 441.359 67.16 441.068C67.6737 440.775 68.2537 440.628 68.9 440.628C69.5416 440.628 70.1193 440.775 70.633 441.068C71.1491 441.359 71.5563 441.783 71.8546 442.339C72.1552 442.896 72.3056 443.571 72.3056 444.364ZM70.7466 444.364C70.7466 443.85 70.6697 443.417 70.5158 443.064C70.3643 442.711 70.15 442.444 69.873 442.261C69.5961 442.079 69.2717 441.988 68.9 441.988C68.5283 441.988 68.204 442.079 67.927 442.261C67.65 442.444 67.4346 442.711 67.2807 443.064C67.1292 443.417 67.0534 443.85 67.0534 444.364C67.0534 444.877 67.1292 445.311 67.2807 445.663C67.4346 446.016 67.65 446.284 67.927 446.466C68.204 446.648 68.5283 446.739 68.9 446.739C69.2717 446.739 69.5961 446.648 69.873 446.466C70.15 446.284 70.3643 446.016 70.5158 445.663C70.6697 445.311 70.7466 444.877 70.7466 444.364ZM78.3372 448H75.7591V440.727H78.3585C79.09 440.727 79.7198 440.873 80.2477 441.164C80.7756 441.453 81.1816 441.868 81.4657 442.411C81.7522 442.953 81.8954 443.601 81.8954 444.357C81.8954 445.114 81.7522 445.765 81.4657 446.31C81.1816 446.854 80.7733 447.272 80.2406 447.563C79.7103 447.854 79.0758 448 78.3372 448ZM77.2967 446.683H78.2733C78.7278 446.683 79.1101 446.602 79.4203 446.441C79.7328 446.278 79.9672 446.026 80.1234 445.685C80.282 445.341 80.3613 444.899 80.3613 444.357C80.3613 443.819 80.282 443.38 80.1234 443.039C79.9672 442.698 79.734 442.447 79.4238 442.286C79.1137 442.125 78.7314 442.045 78.2768 442.045H77.2967V446.683ZM83.8778 448H82.2301L84.7408 440.727H86.7223L89.2294 448H87.5817L85.7599 442.389H85.7031L83.8778 448ZM83.7749 445.141H87.6669V446.342H83.7749V445.141ZM92.4192 448V440.727H97.3198V441.995H93.9569V443.728H97.0676V444.996H93.9569V446.732H97.334V448H92.4192ZM104.625 440.727V448H103.297L100.133 443.423H100.08V448H98.5423V440.727H99.8917L103.031 445.301H103.095V440.727H104.625ZM105.619 441.995V440.727H111.592V441.995H109.365V448H107.845V441.995H105.619ZM112.575 448V440.727H115.445C115.994 440.727 116.463 440.826 116.851 441.022C117.242 441.216 117.539 441.492 117.742 441.849C117.948 442.205 118.051 442.622 118.051 443.103C118.051 443.586 117.947 444.001 117.739 444.349C117.53 444.695 117.229 444.96 116.833 445.145C116.44 445.33 115.964 445.422 115.406 445.422H113.485V444.186H115.157C115.451 444.186 115.695 444.146 115.889 444.065C116.083 443.985 116.227 443.864 116.322 443.703C116.419 443.542 116.468 443.342 116.468 443.103C116.468 442.862 116.419 442.658 116.322 442.492C116.227 442.326 116.082 442.201 115.885 442.116C115.691 442.028 115.446 441.984 115.15 441.984H114.113V448H112.575ZM116.503 444.69L118.311 448H116.613L114.845 444.69H116.503ZM119.138 448V440.727H124.039V441.995H120.676V443.728H123.786V444.996H120.676V446.732H124.053V448H119.138ZM130.083 443.078C130.034 442.905 129.964 442.753 129.874 442.62C129.784 442.485 129.674 442.371 129.544 442.279C129.416 442.184 129.269 442.112 129.103 442.062C128.94 442.013 128.759 441.988 128.56 441.988C128.188 441.988 127.862 442.08 127.58 442.265C127.301 442.45 127.083 442.718 126.926 443.071C126.77 443.421 126.692 443.85 126.692 444.357C126.692 444.863 126.769 445.294 126.923 445.649C127.077 446.004 127.295 446.275 127.576 446.462C127.858 446.647 128.191 446.739 128.574 446.739C128.922 446.739 129.219 446.678 129.466 446.555C129.714 446.429 129.904 446.253 130.034 446.026C130.166 445.798 130.233 445.53 130.233 445.219L130.545 445.266H128.67V444.108H131.713V445.024C131.713 445.663 131.578 446.213 131.309 446.672C131.039 447.129 130.667 447.482 130.194 447.73C129.72 447.976 129.178 448.099 128.567 448.099C127.885 448.099 127.286 447.949 126.77 447.648C126.254 447.345 125.852 446.916 125.563 446.359C125.276 445.801 125.133 445.138 125.133 444.371C125.133 443.781 125.218 443.256 125.389 442.794C125.562 442.33 125.803 441.937 126.113 441.615C126.423 441.293 126.784 441.048 127.196 440.88C127.608 440.712 128.055 440.628 128.535 440.628C128.947 440.628 129.331 440.688 129.686 440.809C130.041 440.927 130.356 441.095 130.63 441.313C130.907 441.531 131.133 441.79 131.309 442.091C131.484 442.389 131.596 442.718 131.646 443.078H130.083ZM133.897 448H132.25L134.76 440.727H136.742L139.249 448H137.601L135.779 442.389H135.723L133.897 448ZM133.794 445.141H137.686V446.342H133.794V445.141Z" fill="#5A6B6F"/>
<path d="M477 88H252C247.582 88 244 91.5817 244 96V172C244 176.418 247.582 180 252 180H477C481.418 180 485 176.418 485 172V96C485 91.5817 481.418 88 477 88Z" fill="white" stroke="#E6EBED"/>
<path d="M734 88H509C504.582 88 501 91.5817 501 96V172C501 176.418 504.582 180 509 180H734C738.418 180 742 176.418 742 172V96C742 91.5817 738.418 88 734 88Z" fill="white" stroke="#E6EBED"/>
<path d="M991 88H766C761.582 88 758 91.5817 758 96V172C758 176.418 761.582 180 766 180H991C995.418 180 999 176.418 999 172V96C999 91.5817 995.418 88 991 88Z" fill="white" stroke="#E6EBED"/>
<path d="M1248 88H1023C1018.58 88 1015 91.5817 1015 96V172C1015 176.418 1018.58 180 1023 180H1248C1252.42 180 1256 176.418 1256 172V96C1256 91.5817 1252.42 88 1248 88Z" fill="white" stroke="#E6EBED"/>
<path d="M248 90C248 88.8954 247.105 88 246 88C244.895 88 244 88.8954 244 90V178C244 179.105 244.895 180 246 180C247.105 180 248 179.105 248 178V90Z" fill="#F2B705"/>
<path d="M505 90C505 88.8954 504.105 88 503 88C501.895 88 501 88.8954 501 90V178C501 179.105 501.895 180 503 180C504.105 180 505 179.105 505 178V90Z" fill="#E4572E"/>
<path d="M762 90C762 88.8954 761.105 88 760 88C758.895 88 758 88.8954 758 90V178C758 179.105 758.895 180 760 180C761.105 180 762 179.105 762 178V90Z" fill="#2E933C"/>
<path d="M1019 90C1019 88.8954 1018.1 88 1017 88C1015.9 88 1015 88.8954 1015 90V178C1015 179.105 1015.9 180 1017 180C1018.1 180 1019 179.105 1019 178V90Z" fill="#0B5563"/>
<path d="M509.663 196H248.337C245.942 196 244 199.393 244 203.579V368.421C244 372.607 245.942 376 248.337 376H509.663C512.058 376 514 372.607 514 368.421V203.579C514 199.393 512.058 196 509.663 196Z" fill="white" stroke="#E6EBED"/>
<path d="M868.458 196H534.542C531.481 196 529 199.393 529 203.579V368.421C529 372.607 531.481 376 534.542 376H868.458C871.519 376 874 372.607 874 368.421V203.579C874 199.393 871.519 196 868.458 196Z" fill="white" stroke="#E6EBED"/>
<path d="M1250.1 197H894.896C891.64 197 889 200.393 889 204.579V369.421C889 373.607 891.64 377 894.896 377H1250.1C1253.36 377 1256 373.607 1256 369.421V204.579C1256 200.393 1253.36 197 1250.1 197Z" fill="white" stroke="#E6EBED"/>
<path d="M498.932 240H258.068C256.926 240 256 241.791 256 244V362C256 364.209 256.926 366 258.068 366H498.932C500.074 366 501 364.209 501 362V244C501 241.791 500.074 240 498.932 240Z" fill="#FBFCFC"/>
<path d="M857.308 248H543.692C542.205 248 541 249.677 541 251.746V362.254C541 364.323 542.205 366 543.692 366H857.308C858.795 366 860 364.323 860 362.254V251.746C860 249.677 858.795 248 857.308 248Z" fill="#FBFCFC"/>
<path d="M1235.16 240H903.844C902.273 240 901 241.706 901 243.81V356.19C901 358.294 902.273 360 903.844 360H1235.16C1236.73 360 1238 358.294 1238 356.19V243.81C1238 241.706 1236.73 240 1235.16 240Z" fill="#FBFCFC"/>
<path d="M830.426 402H253.574C248.287 402 244 408.156 244 415.75V663.25C244 670.844 248.287 677 253.574 677H830.426C835.714 677 840 670.844 840 663.25V415.75C840 408.156 835.714 402 830.426 402Z" fill="white" stroke="#E6EBED"/>
<path d="M1246.57 402H859.426C855.877 402 853 408.044 853 415.5V658.5C853 665.956 855.877 672 859.426 672H1246.57C1250.12 672 1253 665.956 1253 658.5V415.5C1253 408.044 1250.12 402 1246.57 402Z" fill="white" stroke="#E6EBED"/>
<path d="M824.105 426H253.895C251.191 426 249 430.298 249 435.6V656.4C249 661.702 251.191 666 253.895 666H824.105C826.809 666 829 661.702 829 656.4V435.6C829 430.298 826.809 426 824.105 426Z" fill="#FBFCFC"/>
<path d="M1240.8 454H868.198C866.432 454 865 457.707 865 462.28V652.72C865 657.293 866.432 661 868.198 661H1240.8C1242.57 661 1244 657.293 1244 652.72V462.28C1244 457.707 1242.57 454 1240.8 454Z" fill="#FBFCFC"/>
<path d="M1280 696H0V720H1280V696Z" fill="white"/>
<path d="M0 696H1280" stroke="#E6EBED"/>
</g>
<defs>
<clipPath id="clip0_354_1276">
<rect width="1280" height="720" fill="white"/>
</clipPath>
</defs>
</svg>
