<svg width="1280" height="720" viewBox="0 0 1280 720" fill="none" xmlns="http://www.w3.org/2000/svg">
<g clip-path="url(#clip0_354_1347)">
<path d="M1280 0H0V720H1280V0Z" fill="#F5F7F8"/>
<path d="M1280 0H0V64H1280V0Z" fill="#0B5563"/>
<path d="M1280 62H0V64H1280V62Z" fill="#0CAA9E"/>
<path d="M39.3636 39.2557C38.0398 39.2557 36.8949 38.9744 35.929 38.4119C34.9688 37.8437 34.2273 37.054 33.7045 36.0426C33.1818 35.0256 32.9205 33.8466 32.9205 32.5057C32.9205 31.1534 33.1818 29.9716 33.7045 28.9602C34.2273 27.9432 34.9688 27.1534 35.929 26.5909C36.8949 26.0227 38.0398 25.7386 39.3636 25.7386C40.6875 25.7386 41.8295 26.0227 42.7898 26.5909C43.7557 27.1534 44.5 27.9432 45.0227 28.9602C45.5455 29.9716 45.8068 31.1534 45.8068 32.5057C45.8068 33.8466 45.5455 35.0256 45.0227 36.0426C44.5 37.054 43.7557 37.8437 42.7898 38.4119C41.8295 38.9744 40.6875 39.2557 39.3636 39.2557ZM39.3807 36.4432C39.983 36.4432 40.4858 36.2727 40.8892 35.9318C41.2926 35.5852 41.5966 35.1136 41.8011 34.517C42.0114 33.9205 42.1165 33.2415 42.1165 32.4801C42.1165 31.7188 42.0114 31.0398 41.8011 30.4432C41.5966 29.8466 41.2926 29.375 40.8892 29.0284C40.4858 28.6818 39.983 28.5085 39.3807 28.5085C38.7727 28.5085 38.2614 28.6818 37.8466 29.0284C37.4375 29.375 37.1278 29.8466 36.9176 30.4432C36.7131 31.0398 36.6108 31.7188 36.6108 32.4801C36.6108 33.2415 36.7131 33.9205 36.9176 34.517C37.1278 35.1136 37.4375 35.5852 37.8466 35.9318C38.2614 36.2727 38.7727 36.4432 39.3807 36.4432ZM51.7983 21.5455V39H48.1676V21.5455H51.7983ZM54.7067 39V25.9091H58.3374V39H54.7067ZM56.5305 24.2216C55.9908 24.2216 55.5277 24.0426 55.1413 23.6847C54.7607 23.321 54.5703 22.8864 54.5703 22.3807C54.5703 21.8807 54.7607 21.4517 55.1413 21.0938C55.5277 20.7301 55.9908 20.5483 56.5305 20.5483C57.0703 20.5483 57.5305 20.7301 57.9112 21.0938C58.2976 21.4517 58.4908 21.8807 58.4908 22.3807C58.4908 22.8864 58.2976 23.321 57.9112 23.6847C57.5305 24.0426 57.0703 24.2216 56.5305 24.2216ZM72.1378 29.642L68.8139 29.8466C68.7571 29.5625 68.6349 29.3068 68.4474 29.0795C68.2599 28.8466 68.0128 28.6619 67.706 28.5256C67.4048 28.3835 67.044 28.3125 66.6236 28.3125C66.0611 28.3125 65.5866 28.4318 65.2003 28.6705C64.8139 28.9034 64.6207 29.2159 64.6207 29.608C64.6207 29.9205 64.7457 30.1847 64.9957 30.4006C65.2457 30.6165 65.6747 30.7898 66.2827 30.9205L68.652 31.3977C69.9247 31.6591 70.8736 32.0795 71.4986 32.6591C72.1236 33.2386 72.4361 34 72.4361 34.9432C72.4361 35.8011 72.1832 36.554 71.6776 37.2017C71.1776 37.8494 70.4901 38.3551 69.6151 38.7188C68.7457 39.0767 67.7429 39.2557 66.6065 39.2557C64.8736 39.2557 63.4929 38.8949 62.4645 38.1733C61.4418 37.446 60.8423 36.4574 60.6662 35.2074L64.2372 35.0199C64.3452 35.5483 64.6065 35.9517 65.0213 36.2301C65.4361 36.5028 65.9673 36.6392 66.6151 36.6392C67.2514 36.6392 67.7628 36.517 68.1491 36.2727C68.5412 36.0227 68.7401 35.7017 68.7457 35.3097C68.7401 34.9801 68.6009 34.7102 68.3281 34.5C68.0554 34.2841 67.6349 34.1193 67.0668 34.0057L64.7997 33.554C63.5213 33.2983 62.5696 32.8551 61.9446 32.2244C61.3253 31.5937 61.0156 30.7898 61.0156 29.8125C61.0156 28.9716 61.2429 28.2472 61.6974 27.6392C62.1577 27.0312 62.8026 26.5625 63.6321 26.233C64.4673 25.9034 65.4446 25.7386 66.5639 25.7386C68.2173 25.7386 69.5185 26.0881 70.4673 26.7869C71.4219 27.4858 71.9787 28.4375 72.1378 29.642ZM81.6854 25.9091V28.6364H73.8018V25.9091H81.6854ZM75.5916 22.7727H79.2223V34.9773C79.2223 35.3125 79.2734 35.5739 79.3757 35.7614C79.478 35.9432 79.62 36.071 79.8018 36.1449C79.9893 36.2187 80.2053 36.2557 80.4496 36.2557C80.62 36.2557 80.7905 36.2415 80.9609 36.2131C81.1314 36.179 81.2621 36.1534 81.353 36.1364L81.924 38.8381C81.7422 38.8949 81.4865 38.9602 81.157 39.0341C80.8274 39.1136 80.4268 39.1619 79.9553 39.179C79.0803 39.2131 78.3132 39.0966 77.6541 38.8295C77.0007 38.5625 76.4922 38.1477 76.1286 37.5852C75.7649 37.0227 75.5859 36.3125 75.5916 35.4545V22.7727Z" fill="white"/>
<path d="M86.1726 39.2216C85.6101 39.2216 85.1271 39.0227 84.7237 38.625C84.326 38.2216 84.1271 37.7386 84.1271 37.1761C84.1271 36.6193 84.326 36.142 84.7237 35.7443C85.1271 35.3466 85.6101 35.1477 86.1726 35.1477C86.718 35.1477 87.1953 35.3466 87.6044 35.7443C88.0135 36.142 88.218 36.6193 88.218 37.1761C88.218 37.5511 88.1214 37.8949 87.9283 38.2074C87.7408 38.5142 87.4936 38.7614 87.1868 38.9489C86.88 39.1307 86.5419 39.2216 86.1726 39.2216Z" fill="#0CAA9E"/>
<path d="M559.793 39H556.827L561.346 25.9091H564.913L569.425 39H566.46L563.18 28.9006H563.078L559.793 39ZM559.607 33.8544H566.613V36.0149H559.607V33.8544ZM573.673 33.3239V39H570.95V29.1818H573.545V30.9141H573.66C573.877 30.343 574.242 29.8913 574.753 29.5589C575.265 29.2223 575.885 29.054 576.613 29.054C577.295 29.054 577.89 29.2031 578.397 29.5014C578.904 29.7997 579.298 30.2259 579.579 30.7798C579.86 31.3295 580.001 31.9858 580.001 32.7486V39H577.278V33.2344C577.282 32.6335 577.129 32.1648 576.818 31.8281C576.507 31.4872 576.078 31.3168 575.533 31.3168C575.167 31.3168 574.843 31.3956 574.561 31.5533C574.284 31.7109 574.067 31.9411 573.909 32.2436C573.756 32.5419 573.677 32.902 573.673 33.3239ZM584.947 39.1854C584.32 39.1854 583.762 39.0767 583.272 38.8594C582.782 38.6378 582.394 38.3118 582.109 37.8814C581.828 37.4467 581.687 36.9055 581.687 36.2578C581.687 35.7124 581.787 35.2543 581.987 34.8835C582.188 34.5128 582.46 34.2145 582.806 33.9886C583.151 33.7628 583.543 33.5923 583.982 33.4773C584.425 33.3622 584.889 33.2812 585.375 33.2344C585.946 33.1747 586.406 33.1193 586.756 33.0682C587.105 33.0128 587.359 32.9318 587.517 32.8253C587.674 32.7187 587.753 32.5611 587.753 32.3523V32.3139C587.753 31.9091 587.625 31.5959 587.369 31.3743C587.118 31.1527 586.76 31.0419 586.296 31.0419C585.806 31.0419 585.416 31.1506 585.126 31.3679C584.836 31.581 584.644 31.8494 584.551 32.1733L582.032 31.9688C582.16 31.3722 582.411 30.8565 582.786 30.4219C583.161 29.983 583.645 29.6463 584.237 29.4119C584.834 29.1733 585.524 29.054 586.308 29.054C586.854 29.054 587.376 29.1179 587.874 29.2457C588.377 29.3736 588.823 29.5717 589.21 29.8402C589.602 30.1087 589.911 30.4538 590.137 30.8757C590.363 31.2933 590.476 31.794 590.476 32.3778V39H587.894V37.6385H587.817C587.659 37.9453 587.448 38.2159 587.184 38.4503C586.92 38.6804 586.602 38.8615 586.232 38.9936C585.861 39.1214 585.433 39.1854 584.947 39.1854ZM585.727 37.3061C586.127 37.3061 586.481 37.2273 586.788 37.0696C587.095 36.9077 587.335 36.6903 587.51 36.4176C587.685 36.1449 587.772 35.8359 587.772 35.4908V34.4489C587.687 34.5043 587.57 34.5554 587.421 34.6023C587.276 34.6449 587.112 34.6854 586.928 34.7237C586.745 34.7578 586.562 34.7898 586.379 34.8196C586.195 34.8452 586.029 34.8686 585.88 34.8899C585.561 34.9368 585.281 35.0114 585.043 35.1136C584.804 35.2159 584.619 35.3544 584.487 35.5291C584.355 35.6996 584.289 35.9126 584.289 36.1683C584.289 36.5391 584.423 36.8224 584.691 37.0185C584.964 37.2102 585.309 37.3061 585.727 37.3061ZM585.433 27.9162L586.788 25.0078H589.306L587.357 27.9162H585.433ZM595.312 25.9091V39H592.589V25.9091H595.312ZM597.493 39V29.1818H600.216V39H597.493ZM598.861 27.9162C598.456 27.9162 598.109 27.782 597.819 27.5135C597.533 27.2408 597.391 26.9148 597.391 26.5355C597.391 26.1605 597.533 25.8388 597.819 25.5703C598.109 25.2976 598.456 25.1612 598.861 25.1612C599.266 25.1612 599.611 25.2976 599.896 25.5703C600.186 25.8388 600.331 26.1605 600.331 26.5355C600.331 26.9148 600.186 27.2408 599.896 27.5135C599.611 27.782 599.266 27.9162 598.861 27.9162ZM610.566 31.9815L608.073 32.1349C608.031 31.9219 607.939 31.7301 607.798 31.5597C607.658 31.3849 607.472 31.2464 607.242 31.1442C607.017 31.0376 606.746 30.9844 606.431 30.9844C606.009 30.9844 605.653 31.0739 605.363 31.2528C605.073 31.4276 604.928 31.6619 604.928 31.956C604.928 32.1903 605.022 32.3885 605.21 32.5504C605.397 32.7124 605.719 32.8423 606.175 32.9403L607.952 33.2983C608.906 33.4943 609.618 33.8097 610.087 34.2443C610.556 34.679 610.79 35.25 610.79 35.9574C610.79 36.6009 610.6 37.1655 610.221 37.6513C609.846 38.1371 609.33 38.5163 608.674 38.7891C608.022 39.0575 607.27 39.1918 606.418 39.1918C605.118 39.1918 604.083 38.9212 603.311 38.38C602.544 37.8345 602.095 37.093 601.963 36.1555L604.641 36.0149C604.722 36.4112 604.918 36.7138 605.229 36.9226C605.54 37.1271 605.938 37.2294 606.424 37.2294C606.901 37.2294 607.285 37.1378 607.575 36.9545C607.869 36.767 608.018 36.5263 608.022 36.2322C608.018 35.9851 607.914 35.7827 607.709 35.625C607.504 35.4631 607.189 35.3395 606.763 35.2543L605.063 34.9155C604.104 34.7237 603.39 34.3913 602.921 33.9183C602.457 33.4453 602.225 32.8423 602.225 32.1094C602.225 31.4787 602.395 30.9354 602.736 30.4794C603.081 30.0234 603.565 29.6719 604.187 29.4247C604.813 29.1776 605.546 29.054 606.386 29.054C607.626 29.054 608.602 29.3161 609.313 29.8402C610.029 30.3643 610.447 31.0781 610.566 31.9815ZM616.979 39.1918C615.969 39.1918 615.1 38.9872 614.371 38.5781C613.647 38.1648 613.088 37.581 612.696 36.8267C612.304 36.0682 612.108 35.1712 612.108 34.1357C612.108 33.1257 612.304 32.2393 612.696 31.4766C613.088 30.7138 613.64 30.1193 614.352 29.6932C615.068 29.267 615.907 29.054 616.87 29.054C617.518 29.054 618.121 29.1584 618.679 29.3672C619.242 29.5717 619.732 29.8807 620.15 30.294C620.571 30.7074 620.9 31.2273 621.134 31.8537C621.368 32.4759 621.485 33.2045 621.485 34.0398V34.7876H613.195V33.1001H618.922C618.922 32.7081 618.837 32.3608 618.667 32.0582C618.496 31.7557 618.26 31.5192 617.957 31.3487C617.659 31.174 617.311 31.0866 616.915 31.0866C616.502 31.0866 616.135 31.1825 615.816 31.3743C615.5 31.5618 615.253 31.8153 615.074 32.1349C614.895 32.4503 614.804 32.8018 614.799 33.1896V34.794C614.799 35.2798 614.889 35.6996 615.068 36.0533C615.251 36.407 615.509 36.6797 615.841 36.8714C616.174 37.0632 616.568 37.1591 617.024 37.1591C617.326 37.1591 617.603 37.1165 617.855 37.0312C618.106 36.946 618.321 36.8182 618.5 36.6477C618.679 36.4773 618.816 36.2685 618.909 36.0213L621.428 36.1875C621.3 36.7926 621.038 37.321 620.642 37.7727C620.25 38.2202 619.743 38.5696 619.12 38.821C618.502 39.0682 617.789 39.1918 616.979 39.1918ZM636.16 30.1406C636.07 29.8295 635.945 29.5547 635.783 29.3161C635.621 29.0732 635.423 28.8686 635.188 28.7024C634.958 28.532 634.694 28.402 634.396 28.3125C634.102 28.223 633.776 28.1783 633.418 28.1783C632.749 28.1783 632.161 28.3445 631.654 28.6768C631.151 29.0092 630.759 29.4929 630.477 30.1278C630.196 30.7585 630.056 31.5298 630.056 32.4418C630.056 33.3537 630.194 34.1293 630.471 34.7685C630.748 35.4077 631.14 35.8956 631.647 36.2322C632.154 36.5646 632.753 36.7308 633.443 36.7308C634.07 36.7308 634.605 36.62 635.048 36.3984C635.495 36.1726 635.836 35.8551 636.07 35.446C636.309 35.0369 636.428 34.5533 636.428 33.995L636.991 34.0781H633.616V31.9943H639.094V33.6435C639.094 34.794 638.851 35.7827 638.365 36.6094C637.879 37.4318 637.21 38.0668 636.358 38.5142C635.506 38.9574 634.53 39.179 633.431 39.179C632.203 39.179 631.125 38.9084 630.196 38.3672C629.267 37.8217 628.543 37.0483 628.023 36.0469C627.507 35.0412 627.249 33.848 627.249 32.4673C627.249 31.4062 627.403 30.4602 627.71 29.6293C628.021 28.794 628.455 28.0866 629.014 27.5071C629.572 26.9276 630.222 26.4865 630.963 26.1839C631.705 25.8814 632.508 25.7301 633.373 25.7301C634.115 25.7301 634.805 25.8388 635.444 26.0561C636.083 26.2692 636.65 26.5717 637.144 26.9638C637.643 27.3558 638.05 27.8224 638.365 28.3636C638.681 28.9006 638.883 29.4929 638.972 30.1406H636.16ZM645.596 39.1918C644.586 39.1918 643.717 38.9872 642.988 38.5781C642.264 38.1648 641.706 37.581 641.314 36.8267C640.922 36.0682 640.725 35.1712 640.725 34.1357C640.725 33.1257 640.922 32.2393 641.314 31.4766C641.706 30.7138 642.257 30.1193 642.969 29.6932C643.685 29.267 644.525 29.054 645.488 29.054C646.135 29.054 646.738 29.1584 647.297 29.3672C647.859 29.5717 648.349 29.8807 648.767 30.294C649.189 30.7074 649.517 31.2273 649.751 31.8537C649.985 32.4759 650.103 33.2045 650.103 34.0398V34.7876H641.812V33.1001H647.539C647.539 32.7081 647.454 32.3608 647.284 32.0582C647.113 31.7557 646.877 31.5192 646.574 31.3487C646.276 31.174 645.929 31.0866 645.532 31.0866C645.119 31.0866 644.752 31.1825 644.433 31.3743C644.118 31.5618 643.87 31.8153 643.691 32.1349C643.512 32.4503 643.421 32.8018 643.417 33.1896V34.794C643.417 35.2798 643.506 35.6996 643.685 36.0533C643.868 36.407 644.126 36.6797 644.458 36.8714C644.791 37.0632 645.185 37.1591 645.641 37.1591C645.944 37.1591 646.221 37.1165 646.472 37.0312C646.723 36.946 646.939 36.8182 647.118 36.6477C647.297 36.4773 647.433 36.2685 647.527 36.0213L650.045 36.1875C649.917 36.7926 649.655 37.321 649.259 37.7727C648.867 38.2202 648.36 38.5696 647.738 38.821C647.12 39.0682 646.406 39.1918 645.596 39.1918ZM656.316 39.1918C655.323 39.1918 654.464 38.9808 653.74 38.5589C653.02 38.1328 652.463 37.5405 652.071 36.782C651.679 36.0192 651.483 35.1349 651.483 34.1293C651.483 33.1151 651.679 32.2287 652.071 31.4702C652.463 30.7074 653.02 30.1151 653.74 29.6932C654.464 29.267 655.323 29.054 656.316 29.054C657.309 29.054 658.165 29.267 658.885 29.6932C659.61 30.1151 660.168 30.7074 660.56 31.4702C660.952 32.2287 661.148 33.1151 661.148 34.1293C661.148 35.1349 660.952 36.0192 660.56 36.782C660.168 37.5405 659.61 38.1328 658.885 38.5589C658.165 38.9808 657.309 39.1918 656.316 39.1918ZM656.328 37.0824C656.78 37.0824 657.157 36.9545 657.46 36.6989C657.762 36.4389 657.99 36.0852 658.144 35.6378C658.301 35.1903 658.38 34.6811 658.38 34.1101C658.38 33.5391 658.301 33.0298 658.144 32.5824C657.99 32.1349 657.762 31.7812 657.46 31.5213C657.157 31.2614 656.78 31.1314 656.328 31.1314C655.873 31.1314 655.489 31.2614 655.178 31.5213C654.871 31.7812 654.639 32.1349 654.481 32.5824C654.328 33.0298 654.251 33.5391 654.251 34.1101C654.251 34.6811 654.328 35.1903 654.481 35.6378C654.639 36.0852 654.871 36.4389 655.178 36.6989C655.489 36.9545 655.873 37.0824 656.328 37.0824ZM667.342 42.8864C666.46 42.8864 665.703 42.7649 665.073 42.522C664.446 42.2834 663.948 41.9574 663.577 41.544C663.206 41.1307 662.966 40.6662 662.855 40.1506L665.373 39.8118C665.45 40.0078 665.571 40.1911 665.738 40.3615C665.904 40.532 666.123 40.6683 666.396 40.7706C666.673 40.8771 667.01 40.9304 667.406 40.9304C667.998 40.9304 668.486 40.7855 668.87 40.4957C669.257 40.2102 669.451 39.7308 669.451 39.0575V37.2614H669.336C669.217 37.5341 669.038 37.7919 668.799 38.0348C668.561 38.2777 668.254 38.4759 667.879 38.6293C667.504 38.7827 667.056 38.8594 666.537 38.8594C665.799 38.8594 665.128 38.6889 664.523 38.348C663.922 38.0028 663.443 37.4766 663.085 36.7692C662.731 36.0575 662.554 35.1584 662.554 34.0717C662.554 32.9595 662.735 32.0305 663.098 31.2848C663.46 30.5391 663.941 29.9808 664.542 29.6101C665.147 29.2393 665.81 29.054 666.53 29.054C667.08 29.054 667.54 29.1477 667.911 29.3352C668.282 29.5185 668.58 29.7486 668.806 30.0256C669.036 30.2983 669.213 30.5668 669.336 30.831H669.439V29.1818H672.142V39.0959C672.142 39.9311 671.938 40.63 671.529 41.1925C671.12 41.755 670.553 42.1768 669.828 42.4581C669.108 42.7436 668.279 42.8864 667.342 42.8864ZM667.4 36.8139C667.838 36.8139 668.209 36.7053 668.512 36.4879C668.819 36.2663 669.053 35.951 669.215 35.5419C669.381 35.1286 669.464 34.6342 669.464 34.0589C669.464 33.4837 669.383 32.9851 669.221 32.5632C669.059 32.1371 668.825 31.8068 668.518 31.5724C668.211 31.3381 667.838 31.2209 667.4 31.2209C666.952 31.2209 666.575 31.3423 666.268 31.5852C665.961 31.8239 665.729 32.1562 665.571 32.5824C665.414 33.0085 665.335 33.5007 665.335 34.0589C665.335 34.6257 665.414 35.1158 665.571 35.5291C665.733 35.9382 665.966 36.2557 666.268 36.4815C666.575 36.7031 666.952 36.8139 667.4 36.8139ZM674.309 39V29.1818H676.949V30.8949H677.051C677.23 30.2855 677.531 29.8253 677.953 29.5142C678.375 29.1989 678.86 29.0412 679.41 29.0412C679.547 29.0412 679.694 29.0497 679.851 29.0668C680.009 29.0838 680.147 29.1072 680.267 29.1371V31.5533C680.139 31.5149 679.962 31.4808 679.736 31.451C679.51 31.4212 679.304 31.4062 679.116 31.4062C678.716 31.4062 678.358 31.4936 678.042 31.6683C677.731 31.8388 677.484 32.0774 677.301 32.3842C677.122 32.6911 677.032 33.0447 677.032 33.4453V39H674.309ZM684.193 39.1854C683.567 39.1854 683.008 39.0767 682.518 38.8594C682.028 38.6378 681.64 38.3118 681.355 37.8814C681.074 37.4467 680.933 36.9055 680.933 36.2578C680.933 35.7124 681.033 35.2543 681.233 34.8835C681.434 34.5128 681.706 34.2145 682.052 33.9886C682.397 33.7628 682.789 33.5923 683.228 33.4773C683.671 33.3622 684.135 33.2812 684.621 33.2344C685.192 33.1747 685.653 33.1193 686.002 33.0682C686.351 33.0128 686.605 32.9318 686.763 32.8253C686.92 32.7187 686.999 32.5611 686.999 32.3523V32.3139C686.999 31.9091 686.871 31.5959 686.616 31.3743C686.364 31.1527 686.006 31.0419 685.542 31.0419C685.052 31.0419 684.662 31.1506 684.372 31.3679C684.082 31.581 683.89 31.8494 683.797 32.1733L681.278 31.9688C681.406 31.3722 681.657 30.8565 682.032 30.4219C682.407 29.983 682.891 29.6463 683.483 29.4119C684.08 29.1733 684.77 29.054 685.555 29.054C686.1 29.054 686.622 29.1179 687.121 29.2457C687.623 29.3736 688.069 29.5717 688.456 29.8402C688.849 30.1087 689.157 30.4538 689.383 30.8757C689.609 31.2933 689.722 31.794 689.722 32.3778V39H687.14V37.6385H687.063C686.905 37.9453 686.694 38.2159 686.43 38.4503C686.166 38.6804 685.849 38.8615 685.478 38.9936C685.107 39.1214 684.679 39.1854 684.193 39.1854ZM684.973 37.3061C685.373 37.3061 685.727 37.2273 686.034 37.0696C686.341 36.9077 686.581 36.6903 686.756 36.4176C686.931 36.1449 687.018 35.8359 687.018 35.4908V34.4489C686.933 34.5043 686.816 34.5554 686.667 34.6023C686.522 34.6449 686.358 34.6854 686.175 34.7237C685.991 34.7578 685.808 34.7898 685.625 34.8196C685.442 34.8452 685.275 34.8686 685.126 34.8899C684.807 34.9368 684.528 35.0114 684.289 35.1136C684.05 35.2159 683.865 35.3544 683.733 35.5291C683.601 35.6996 683.535 35.9126 683.535 36.1683C683.535 36.5391 683.669 36.8224 683.937 37.0185C684.21 37.2102 684.555 37.3061 684.973 37.3061ZM684.679 27.9162L686.034 25.0078H688.552L686.603 27.9162H684.679ZM697.115 29.1818V31.2273H691.055V29.1818H697.115ZM692.442 39V28.4723C692.442 27.7607 692.58 27.1705 692.857 26.7017C693.139 26.233 693.522 25.8814 694.008 25.647C694.494 25.4126 695.046 25.2955 695.664 25.2955C696.081 25.2955 696.463 25.3274 696.808 25.3913C697.157 25.4553 697.417 25.5128 697.588 25.5639L697.102 27.6094C696.995 27.5753 696.863 27.5433 696.705 27.5135C696.552 27.4837 696.394 27.4688 696.232 27.4688C695.832 27.4688 695.553 27.5625 695.395 27.75C695.237 27.9332 695.159 28.1911 695.159 28.5234V39H692.442ZM698.778 39V29.1818H701.501V39H698.778ZM700.146 27.9162C699.741 27.9162 699.394 27.782 699.104 27.5135C698.819 27.2408 698.676 26.9148 698.676 26.5355C698.676 26.1605 698.819 25.8388 699.104 25.5703C699.394 25.2976 699.741 25.1612 700.146 25.1612C700.551 25.1612 700.896 25.2976 701.181 25.5703C701.471 25.8388 701.616 26.1605 701.616 26.5355C701.616 26.9148 701.471 27.2408 701.181 27.5135C700.896 27.782 700.551 27.9162 700.146 27.9162ZM708.118 39.1918C707.113 39.1918 706.248 38.9787 705.523 38.5526C704.803 38.1222 704.249 37.5256 703.861 36.7628C703.478 36 703.286 35.1222 703.286 34.1293C703.286 33.1236 703.48 32.2415 703.868 31.483C704.26 30.7202 704.816 30.1257 705.536 29.6996C706.256 29.2692 707.113 29.054 708.106 29.054C708.962 29.054 709.712 29.2095 710.356 29.5206C710.999 29.8317 711.508 30.2685 711.883 30.831C712.258 31.3935 712.465 32.054 712.503 32.8125H709.934C709.861 32.3224 709.67 31.9283 709.358 31.63C709.052 31.3274 708.649 31.1761 708.15 31.1761C707.729 31.1761 707.36 31.2912 707.045 31.5213C706.733 31.7472 706.491 32.0774 706.316 32.5121C706.141 32.9467 706.054 33.473 706.054 34.0909C706.054 34.7173 706.139 35.25 706.309 35.6889C706.484 36.1278 706.729 36.4624 707.045 36.6925C707.36 36.9226 707.729 37.0376 708.15 37.0376C708.461 37.0376 708.741 36.9737 708.988 36.8459C709.239 36.718 709.446 36.5327 709.608 36.2898C709.774 36.0426 709.883 35.7464 709.934 35.4013H712.503C712.461 36.1513 712.256 36.8118 711.89 37.3828C711.528 37.9496 711.027 38.3928 710.388 38.7124C709.748 39.032 708.992 39.1918 708.118 39.1918ZM717.047 39.1854C716.42 39.1854 715.862 39.0767 715.372 38.8594C714.882 38.6378 714.494 38.3118 714.208 37.8814C713.927 37.4467 713.787 36.9055 713.787 36.2578C713.787 35.7124 713.887 35.2543 714.087 34.8835C714.287 34.5128 714.56 34.2145 714.905 33.9886C715.25 33.7628 715.642 33.5923 716.081 33.4773C716.525 33.3622 716.989 33.2812 717.475 33.2344C718.046 33.1747 718.506 33.1193 718.855 33.0682C719.205 33.0128 719.458 32.9318 719.616 32.8253C719.774 32.7187 719.853 32.5611 719.853 32.3523V32.3139C719.853 31.9091 719.725 31.5959 719.469 31.3743C719.218 31.1527 718.86 31.0419 718.395 31.0419C717.905 31.0419 717.515 31.1506 717.225 31.3679C716.936 31.581 716.744 31.8494 716.65 32.1733L714.132 31.9688C714.26 31.3722 714.511 30.8565 714.886 30.4219C715.261 29.983 715.745 29.6463 716.337 29.4119C716.934 29.1733 717.624 29.054 718.408 29.054C718.953 29.054 719.475 29.1179 719.974 29.2457C720.477 29.3736 720.922 29.5717 721.31 29.8402C721.702 30.1087 722.011 30.4538 722.237 30.8757C722.463 31.2933 722.576 31.794 722.576 32.3778V39H719.993V37.6385H719.917C719.759 37.9453 719.548 38.2159 719.284 38.4503C719.02 38.6804 718.702 38.8615 718.331 38.9936C717.961 39.1214 717.532 39.1854 717.047 39.1854ZM717.826 37.3061C718.227 37.3061 718.581 37.2273 718.887 37.0696C719.194 36.9077 719.435 36.6903 719.61 36.4176C719.784 36.1449 719.872 35.8359 719.872 35.4908V34.4489C719.787 34.5043 719.669 34.5554 719.52 34.6023C719.375 34.6449 719.211 34.6854 719.028 34.7237C718.845 34.7578 718.662 34.7898 718.478 34.8196C718.295 34.8452 718.129 34.8686 717.98 34.8899C717.66 34.9368 717.381 35.0114 717.142 35.1136C716.904 35.2159 716.718 35.3544 716.586 35.5291C716.454 35.6996 716.388 35.9126 716.388 36.1683C716.388 36.5391 716.522 36.8224 716.791 37.0185C717.064 37.2102 717.409 37.3061 717.826 37.3061Z" fill="white"/>
<path d="M220 64H0V696H220V64Z" fill="white"/>
<path d="M220 64V696" stroke="#E6EBED"/>
<path d="M20 86H36L30 94V102H26V94L20 86Z" fill="#0CAA9E"/>
<path d="M44.7585 98V89.2727H50.5369V90.794H46.6037V92.8736H50.1534V94.3949H46.6037V98H44.7585ZM53.6232 89.2727V98H51.7781V89.2727H53.6232ZM55.1413 98V89.2727H56.9865V96.4787H60.728V98H55.1413ZM60.5277 90.794V89.2727H67.6953V90.794H65.0234V98H63.1996V90.794H60.5277ZM68.8757 98V89.2727H72.3189C72.978 89.2727 73.5405 89.3906 74.0064 89.6264C74.4751 89.8594 74.8317 90.1903 75.076 90.6193C75.3232 91.0455 75.4467 91.5469 75.4467 92.1236C75.4467 92.7031 75.3217 93.2017 75.0717 93.6193C74.8217 94.0341 74.4595 94.3523 73.9851 94.5739C73.5135 94.7955 72.9425 94.9062 72.272 94.9062H69.9666V93.4233H71.9737C72.326 93.4233 72.6186 93.375 72.8516 93.2784C73.0845 93.1818 73.2578 93.0369 73.3714 92.8438C73.4879 92.6506 73.5462 92.4105 73.5462 92.1236C73.5462 91.8338 73.4879 91.5895 73.3714 91.3906C73.2578 91.1918 73.0831 91.0412 72.8473 90.9389C72.6143 90.8338 72.3203 90.7812 71.9652 90.7812H70.7209V98H68.8757ZM73.5888 94.0284L75.7578 98H73.7209L71.5987 94.0284H73.5888ZM84.7706 93.6364C84.7706 94.5881 84.5902 95.3977 84.2294 96.0653C83.8714 96.733 83.3828 97.2429 82.7635 97.5952C82.147 97.9446 81.4538 98.1193 80.6839 98.1193C79.9084 98.1193 79.2124 97.9432 78.5959 97.5909C77.9794 97.2386 77.4922 96.7287 77.1342 96.0611C76.7763 95.3935 76.5973 94.5852 76.5973 93.6364C76.5973 92.6847 76.7763 91.875 77.1342 91.2074C77.4922 90.5398 77.9794 90.0312 78.5959 89.6818C79.2124 89.3295 79.9084 89.1534 80.6839 89.1534C81.4538 89.1534 82.147 89.3295 82.7635 89.6818C83.3828 90.0312 83.8714 90.5398 84.2294 91.2074C84.5902 91.875 84.7706 92.6847 84.7706 93.6364ZM82.8999 93.6364C82.8999 93.0199 82.8075 92.5 82.6229 92.0767C82.4411 91.6534 82.1839 91.3324 81.8516 91.1136C81.5192 90.8949 81.13 90.7855 80.6839 90.7855C80.2379 90.7855 79.8487 90.8949 79.5163 91.1136C79.1839 91.3324 78.9254 91.6534 78.7408 92.0767C78.5589 92.5 78.468 93.0199 78.468 93.6364C78.468 94.2528 78.5589 94.7727 78.7408 95.196C78.9254 95.6193 79.1839 95.9403 79.5163 96.1591C79.8487 96.3778 80.2379 96.4872 80.6839 96.4872C81.13 96.4872 81.5192 96.3778 81.8516 96.1591C82.1839 95.9403 82.4411 95.6193 82.6229 95.196C82.8075 94.7727 82.8999 94.2528 82.8999 93.6364ZM90.8718 91.7827C90.8377 91.4389 90.6914 91.1719 90.4329 90.9815C90.1744 90.7912 89.8235 90.696 89.3803 90.696C89.0792 90.696 88.8249 90.7386 88.6175 90.8239C88.4102 90.9062 88.2511 91.0213 88.1403 91.169C88.0323 91.3168 87.9783 91.4844 87.9783 91.6719C87.9727 91.8281 88.0053 91.9645 88.0763 92.081C88.1502 92.1974 88.2511 92.2983 88.3789 92.3835C88.5067 92.4659 88.6545 92.5384 88.8221 92.6009C88.9897 92.6605 89.1687 92.7116 89.359 92.7543L90.1431 92.9418C90.5238 93.027 90.8732 93.1406 91.1914 93.2827C91.5096 93.4247 91.7852 93.5994 92.0181 93.8068C92.2511 94.0142 92.4315 94.2585 92.5593 94.5398C92.69 94.821 92.7567 95.1435 92.7596 95.5071C92.7567 96.0412 92.6204 96.5043 92.3505 96.8963C92.0835 97.2855 91.6971 97.5881 91.1914 97.804C90.6886 98.017 90.082 98.1236 89.3718 98.1236C88.6673 98.1236 88.0536 98.0156 87.5309 97.7997C87.011 97.5838 86.6048 97.2642 86.3121 96.8409C86.0224 96.4148 85.8704 95.8878 85.8562 95.2599H87.6417C87.6616 95.5526 87.7454 95.7969 87.8931 95.9929C88.0437 96.1861 88.244 96.3324 88.494 96.4318C88.7468 96.5284 89.0323 96.5767 89.3505 96.5767C89.663 96.5767 89.9343 96.5312 90.1644 96.4403C90.3974 96.3494 90.5778 96.223 90.7056 96.0611C90.8335 95.8991 90.8974 95.7131 90.8974 95.5028C90.8974 95.3068 90.8391 95.142 90.7227 95.0085C90.609 94.875 90.4414 94.7614 90.2198 94.6676C90.0011 94.5739 89.7326 94.4886 89.4144 94.4119L88.4641 94.1733C87.7283 93.9943 87.1474 93.7145 86.7212 93.3338C86.2951 92.9531 86.0835 92.4403 86.0863 91.7955C86.0835 91.267 86.2241 90.8054 86.5082 90.4105C86.7951 90.0156 87.1886 89.7074 87.6886 89.4858C88.1886 89.2642 88.7567 89.1534 89.3931 89.1534C90.0408 89.1534 90.6062 89.2642 91.0891 89.4858C91.5749 89.7074 91.9528 90.0156 92.2227 90.4105C92.4925 90.8054 92.6317 91.2628 92.6403 91.7827H90.8718Z" fill="#5A6B6F"/>
<path d="M20.6321 124V116.727H23.5014C24.053 116.727 24.523 116.833 24.9112 117.043C25.2995 117.252 25.5954 117.542 25.799 117.913C26.005 118.283 26.108 118.709 26.108 119.192C26.108 119.675 26.0038 120.101 25.7955 120.47C25.5871 120.839 25.2853 121.127 24.8899 121.333C24.4969 121.539 24.0211 121.642 23.4624 121.642H21.6335V120.41H23.2138C23.5097 120.41 23.7536 120.359 23.9453 120.257C24.1394 120.153 24.2839 120.01 24.3786 119.827C24.4756 119.643 24.5241 119.431 24.5241 119.192C24.5241 118.95 24.4756 118.74 24.3786 118.56C24.2839 118.377 24.1394 118.237 23.9453 118.137C23.7512 118.035 23.505 117.984 23.2067 117.984H22.1697V124H20.6321ZM27.1067 124V116.727H32.0073V117.995H28.6444V119.728H31.7551V120.996H28.6444V122.732H32.0215V124H27.1067ZM33.2298 124V116.727H36.0991C36.6483 116.727 37.1171 116.826 37.5053 117.022C37.896 117.216 38.1931 117.492 38.3967 117.849C38.6026 118.205 38.7056 118.622 38.7056 119.103C38.7056 119.586 38.6014 120.001 38.3931 120.349C38.1848 120.695 37.8829 120.96 37.4876 121.145C37.0946 121.33 36.6187 121.422 36.06 121.422H34.1388V120.186H35.8114C36.105 120.186 36.3488 120.146 36.543 120.065C36.7371 119.985 36.8815 119.864 36.9762 119.703C37.0733 119.542 37.1218 119.342 37.1218 119.103C37.1218 118.862 37.0733 118.658 36.9762 118.492C36.8815 118.326 36.7359 118.201 36.5394 118.116C36.3453 118.028 36.1003 117.984 35.8043 117.984H34.7674V124H33.2298ZM37.1573 120.69L38.9648 124H37.2674L35.4989 120.69H37.1573ZM41.3299 116.727V124H39.7923V116.727H41.3299ZM40.0231 116.024L40.7759 114.408H42.1751L41.092 116.024H40.0231ZM49.2782 120.364C49.2782 121.157 49.1279 121.831 48.8272 122.388C48.5289 122.944 48.1217 123.369 47.6056 123.663C47.0919 123.954 46.5143 124.099 45.8727 124.099C45.2264 124.099 44.6464 123.953 44.1326 123.659C43.6189 123.366 43.2129 122.941 42.9146 122.384C42.6163 121.828 42.4672 121.154 42.4672 120.364C42.4672 119.571 42.6163 118.896 42.9146 118.339C43.2129 117.783 43.6189 117.359 44.1326 117.068C44.6464 116.775 45.2264 116.628 45.8727 116.628C46.5143 116.628 47.0919 116.775 47.6056 117.068C48.1217 117.359 48.5289 117.783 48.8272 118.339C49.1279 118.896 49.2782 119.571 49.2782 120.364ZM47.7193 120.364C47.7193 119.85 47.6423 119.417 47.4885 119.064C47.3369 118.711 47.1227 118.444 46.8457 118.261C46.5687 118.079 46.2444 117.988 45.8727 117.988C45.501 117.988 45.1767 118.079 44.8997 118.261C44.6227 118.444 44.4073 118.711 44.2534 119.064C44.1019 119.417 44.0261 119.85 44.0261 120.364C44.0261 120.877 44.1019 121.311 44.2534 121.663C44.4073 122.016 44.6227 122.284 44.8997 122.466C45.1767 122.648 45.501 122.739 45.8727 122.739C46.2444 122.739 46.5687 122.648 46.8457 122.466C47.1227 122.284 47.3369 122.016 47.4885 121.663C47.6423 121.311 47.7193 120.877 47.7193 120.364ZM52.9954 124H50.4173V116.727H53.0167C53.7482 116.727 54.378 116.873 54.9059 117.164C55.4338 117.453 55.8398 117.868 56.1239 118.411C56.4104 118.953 56.5536 119.601 56.5536 120.357C56.5536 121.114 56.4104 121.765 56.1239 122.31C55.8398 122.854 55.4315 123.272 54.8988 123.563C54.3685 123.854 53.734 124 52.9954 124ZM51.9549 122.683H52.9315C53.386 122.683 53.7683 122.602 54.0785 122.441C54.391 122.278 54.6254 122.026 54.7816 121.685C54.9402 121.341 55.0195 120.899 55.0195 120.357C55.0195 119.819 54.9402 119.38 54.7816 119.039C54.6254 118.698 54.3922 118.447 54.082 118.286C53.7719 118.125 53.3896 118.045 52.935 118.045H51.9549V122.683ZM64.3759 120.364C64.3759 121.157 64.2256 121.831 63.9249 122.388C63.6266 122.944 63.2194 123.369 62.7033 123.663C62.1896 123.954 61.6119 124.099 60.9703 124.099C60.324 124.099 59.744 123.953 59.2303 123.659C58.7166 123.366 58.3105 122.941 58.0123 122.384C57.714 121.828 57.5648 121.154 57.5648 120.364C57.5648 119.571 57.714 118.896 58.0123 118.339C58.3105 117.783 58.7166 117.359 59.2303 117.068C59.744 116.775 60.324 116.628 60.9703 116.628C61.6119 116.628 62.1896 116.775 62.7033 117.068C63.2194 117.359 63.6266 117.783 63.9249 118.339C64.2256 118.896 64.3759 119.571 64.3759 120.364ZM62.8169 120.364C62.8169 119.85 62.74 119.417 62.5861 119.064C62.4346 118.711 62.2203 118.444 61.9434 118.261C61.6664 118.079 61.342 117.988 60.9703 117.988C60.5987 117.988 60.2743 118.079 59.9973 118.261C59.7203 118.444 59.5049 118.711 59.351 119.064C59.1995 119.417 59.1238 119.85 59.1238 120.364C59.1238 120.877 59.1995 121.311 59.351 121.663C59.5049 122.016 59.7203 122.284 59.9973 122.466C60.2743 122.648 60.5987 122.739 60.9703 122.739C61.342 122.739 61.6664 122.648 61.9434 122.466C62.2203 122.284 62.4346 122.016 62.5861 121.663C62.74 121.311 62.8169 120.877 62.8169 120.364Z" fill="#5A6B6F"/>
<path d="M194 130H26C22.6863 130 20 132.686 20 136V150C20 153.314 22.6863 156 26 156H194C197.314 156 200 153.314 200 150V136C200 132.686 197.314 130 194 130Z" fill="#F5F7F8" stroke="#E6EBED"/>
<path d="M21.8857 178H20.2379L22.7486 170.727H24.7301L27.2372 178H25.5895L23.7678 172.389H23.7109L21.8857 178ZM21.7827 175.141H25.6747V176.342H21.7827V175.141ZM34.1957 170.727V178H32.8675L29.7035 173.423H29.6502V178H28.1126V170.727H29.462L32.6012 175.301H32.6651V170.727H34.1957ZM42.1493 174.364C42.1493 175.157 41.999 175.831 41.6983 176.388C41.4 176.944 40.9928 177.369 40.4767 177.663C39.963 177.954 39.3854 178.099 38.7438 178.099C38.0975 178.099 37.5175 177.953 37.0037 177.659C36.49 177.366 36.084 176.941 35.7857 176.384C35.4874 175.828 35.3382 175.154 35.3382 174.364C35.3382 173.571 35.4874 172.896 35.7857 172.339C36.084 171.783 36.49 171.359 37.0037 171.068C37.5175 170.775 38.0975 170.628 38.7438 170.628C39.3854 170.628 39.963 170.775 40.4767 171.068C40.9928 171.359 41.4 171.783 41.6983 172.339C41.999 172.896 42.1493 173.571 42.1493 174.364ZM40.5904 174.364C40.5904 173.85 40.5134 173.417 40.3596 173.064C40.208 172.711 39.9938 172.444 39.7168 172.261C39.4398 172.079 39.1155 171.988 38.7438 171.988C38.3721 171.988 38.0478 172.079 37.7708 172.261C37.4938 172.444 37.2783 172.711 37.1245 173.064C36.973 173.417 36.8972 173.85 36.8972 174.364C36.8972 174.877 36.973 175.311 37.1245 175.663C37.2783 176.016 37.4938 176.284 37.7708 176.466C38.0478 176.648 38.3721 176.739 38.7438 176.739C39.1155 176.739 39.4398 176.648 39.7168 176.466C39.9938 176.284 40.208 176.016 40.3596 175.663C40.5134 175.311 40.5904 174.877 40.5904 174.364ZM48.742 170.386L46.3983 179.094H45.095L47.4387 170.386H48.742ZM51.5368 171.995V170.727H57.5098V171.995H55.2832V178H53.7633V171.995H51.5368ZM58.4934 178V170.727H61.3627C61.912 170.727 62.3807 170.826 62.769 171.022C63.1596 171.216 63.4567 171.492 63.6603 171.849C63.8663 172.205 63.9693 172.622 63.9693 173.103C63.9693 173.586 63.8651 174.001 63.6568 174.349C63.4484 174.695 63.1466 174.96 62.7512 175.145C62.3583 175.33 61.8824 175.422 61.3237 175.422H59.4025V174.186H61.0751C61.3687 174.186 61.6125 174.146 61.8066 174.065C62.0008 173.985 62.1452 173.864 62.2399 173.703C62.3369 173.542 62.3855 173.342 62.3855 173.103C62.3855 172.862 62.3369 172.658 62.2399 172.492C62.1452 172.326 61.9996 172.201 61.8031 172.116C61.609 172.028 61.3639 171.984 61.068 171.984H60.0311V178H58.4934ZM62.421 174.69L64.2285 178H62.5311L60.7626 174.69H62.421ZM66.5936 170.727V178H65.0559V170.727H66.5936ZM67.8587 170.727H69.755L71.7578 175.614H71.843L73.8459 170.727H75.7422V178H74.2507V173.266H74.1903L72.3082 177.964H71.2926L69.4105 173.249H69.3501V178H67.8587V170.727ZM77.0091 178V170.727H81.9096V171.995H78.5467V173.728H81.6575V174.996H78.5467V176.732H81.9238V178H77.0091ZM87.0774 172.819C87.049 172.532 86.9271 172.31 86.7116 172.151C86.4962 171.993 86.2038 171.913 85.8345 171.913C85.5836 171.913 85.3717 171.949 85.1989 172.02C85.026 172.089 84.8935 172.184 84.8011 172.308C84.7112 172.431 84.6662 172.57 84.6662 172.727C84.6615 172.857 84.6887 172.97 84.7479 173.067C84.8094 173.165 84.8935 173.249 85 173.32C85.1065 173.388 85.2296 173.449 85.3693 173.501C85.509 173.55 85.6581 173.593 85.8168 173.629L86.4702 173.785C86.7874 173.856 87.0786 173.951 87.3438 174.069C87.6089 174.187 87.8385 174.333 88.0327 174.506C88.2268 174.679 88.3771 174.882 88.4837 175.116C88.5926 175.351 88.6482 175.62 88.6506 175.923C88.6482 176.368 88.5346 176.754 88.3097 177.08C88.0871 177.405 87.7652 177.657 87.3438 177.837C86.9247 178.014 86.4193 178.103 85.8274 178.103C85.2403 178.103 84.7289 178.013 84.2933 177.833C83.8601 177.653 83.5215 177.387 83.2777 177.034C83.0362 176.679 82.9096 176.24 82.8977 175.717H84.3857C84.4022 175.96 84.4721 176.164 84.5952 176.327C84.7206 176.488 84.8875 176.61 85.0959 176.693C85.3066 176.774 85.5445 176.814 85.8097 176.814C86.0701 176.814 86.2962 176.776 86.4879 176.7C86.6821 176.625 86.8324 176.519 86.9389 176.384C87.0455 176.249 87.0987 176.094 87.0987 175.919C87.0987 175.756 87.0502 175.618 86.9531 175.507C86.8584 175.396 86.7188 175.301 86.5341 175.223C86.3518 175.145 86.1281 175.074 85.8629 175.01L85.071 174.811C84.4579 174.662 83.9737 174.429 83.6186 174.112C83.2635 173.794 83.0871 173.367 83.0895 172.83C83.0871 172.389 83.2043 172.004 83.4411 171.675C83.6802 171.346 84.008 171.089 84.4247 170.905C84.8414 170.72 85.3149 170.628 85.8452 170.628C86.3849 170.628 86.8561 170.72 87.2585 170.905C87.6634 171.089 87.9782 171.346 88.2031 171.675C88.428 172.004 88.544 172.386 88.5511 172.819H87.0774ZM89.4078 171.995V170.727H95.3809V171.995H93.1543V178H91.6344V171.995H89.4078ZM96.3645 178V170.727H99.2338C99.7831 170.727 100.252 170.826 100.64 171.022C101.031 171.216 101.328 171.492 101.531 171.849C101.737 172.205 101.84 172.622 101.84 173.103C101.84 173.586 101.736 174.001 101.528 174.349C101.32 174.695 101.018 174.96 100.622 175.145C100.229 175.33 99.7535 175.422 99.1948 175.422H97.2736V174.186H98.9462C99.2398 174.186 99.4836 174.146 99.6777 174.065C99.8719 173.985 100.016 173.864 100.111 173.703C100.208 173.542 100.257 173.342 100.257 173.103C100.257 172.862 100.208 172.658 100.111 172.492C100.016 172.326 99.8707 172.201 99.6742 172.116C99.4801 172.028 99.235 171.984 98.9391 171.984H97.9022V178H96.3645ZM100.292 174.69L102.1 178H100.402L98.6337 174.69H100.292ZM102.927 178V170.727H107.828V171.995H104.465V173.728H107.575V174.996H104.465V176.732H107.842V178H102.927Z" fill="#5A6B6F"/>
<path d="M194 184H26C22.6863 184 20 186.686 20 190V204C20 207.314 22.6863 210 26 210H194C197.314 210 200 207.314 200 204V190C200 186.686 197.314 184 194 184Z" fill="#F5F7F8" stroke="#E6EBED"/>
<path d="M25.1243 224.727H26.6619V229.45C26.6619 229.981 26.5353 230.445 26.282 230.842C26.031 231.24 25.6795 231.55 25.2273 231.773C24.7751 231.993 24.2483 232.103 23.647 232.103C23.0433 232.103 22.5154 231.993 22.0632 231.773C21.611 231.55 21.2595 231.24 21.0085 230.842C20.7576 230.445 20.6321 229.981 20.6321 229.45V224.727H22.1697V229.319C22.1697 229.596 22.2301 229.842 22.3509 230.058C22.474 230.273 22.6468 230.442 22.8693 230.565C23.0919 230.688 23.3511 230.75 23.647 230.75C23.9453 230.75 24.2045 230.688 24.4247 230.565C24.6473 230.442 24.8189 230.273 24.9396 230.058C25.0627 229.842 25.1243 229.596 25.1243 229.319V224.727ZM27.927 232V224.727H32.7424V225.995H29.4647V227.728H32.4228V228.996H29.4647V232H27.927ZM38.6692 232H36.0911V224.727H38.6905C39.4221 224.727 40.0518 224.873 40.5797 225.164C41.1077 225.453 41.5137 225.868 41.7978 226.411C42.0842 226.953 42.2275 227.601 42.2275 228.357C42.2275 229.114 42.0842 229.765 41.7978 230.31C41.5137 230.854 41.1053 231.272 40.5726 231.563C40.0423 231.854 39.4078 232 38.6692 232ZM37.6287 230.683H38.6053C39.0598 230.683 39.4422 230.602 39.7523 230.441C40.0648 230.278 40.2992 230.026 40.4554 229.685C40.6141 229.341 40.6934 228.899 40.6934 228.357C40.6934 227.819 40.6141 227.38 40.4554 227.039C40.2992 226.698 40.066 226.447 39.7559 226.286C39.4457 226.125 39.0634 226.045 38.6088 226.045H37.6287V230.683ZM50.0497 228.364C50.0497 229.157 49.8994 229.831 49.5987 230.388C49.3004 230.944 48.8932 231.369 48.3771 231.663C47.8634 231.954 47.2857 232.099 46.6442 232.099C45.9979 232.099 45.4179 231.953 44.9041 231.659C44.3904 231.366 43.9844 230.941 43.6861 230.384C43.3878 229.828 43.2386 229.154 43.2386 228.364C43.2386 227.571 43.3878 226.896 43.6861 226.339C43.9844 225.783 44.3904 225.359 44.9041 225.068C45.4179 224.775 45.9979 224.628 46.6442 224.628C47.2857 224.628 47.8634 224.775 48.3771 225.068C48.8932 225.359 49.3004 225.783 49.5987 226.339C49.8994 226.896 50.0497 227.571 50.0497 228.364ZM48.4908 228.364C48.4908 227.85 48.4138 227.417 48.2599 227.064C48.1084 226.711 47.8942 226.444 47.6172 226.261C47.3402 226.079 47.0159 225.988 46.6442 225.988C46.2725 225.988 45.9482 226.079 45.6712 226.261C45.3942 226.444 45.1787 226.711 45.0249 227.064C44.8733 227.417 44.7976 227.85 44.7976 228.364C44.7976 228.877 44.8733 229.311 45.0249 229.663C45.1787 230.016 45.3942 230.284 45.6712 230.466C45.9482 230.648 46.2725 230.739 46.6442 230.739C47.0159 230.739 47.3402 230.648 47.6172 230.466C47.8942 230.284 48.1084 230.016 48.2599 229.663C48.4138 229.311 48.4908 228.877 48.4908 228.364ZM59.9201 227.273H58.3647C58.3363 227.072 58.2783 226.893 58.1907 226.737C58.1031 226.579 57.9906 226.444 57.8533 226.332C57.716 226.221 57.5574 226.136 57.3775 226.077C57.1999 226.018 57.007 225.988 56.7987 225.988C56.4222 225.988 56.0943 226.081 55.815 226.268C55.5356 226.453 55.319 226.723 55.1651 227.078C55.0112 227.431 54.9343 227.859 54.9343 228.364C54.9343 228.882 55.0112 229.318 55.1651 229.67C55.3214 230.023 55.5392 230.29 55.8185 230.469C56.0979 230.649 56.421 230.739 56.788 230.739C56.994 230.739 57.1845 230.712 57.3597 230.658C57.5373 230.603 57.6947 230.524 57.832 230.42C57.9693 230.313 58.083 230.184 58.1729 230.033C58.2653 229.881 58.3292 229.708 58.3647 229.514L59.9201 229.521C59.8799 229.855 59.7792 230.177 59.6183 230.487C59.4596 230.795 59.2454 231.071 58.9755 231.315C58.708 231.556 58.3884 231.748 58.0167 231.89C57.6474 232.03 57.2295 232.099 56.7631 232.099C56.1145 232.099 55.5344 231.953 55.0231 231.659C54.5141 231.366 54.1116 230.941 53.8157 230.384C53.5221 229.828 53.3754 229.154 53.3754 228.364C53.3754 227.571 53.5245 226.896 53.8228 226.339C54.1211 225.783 54.5259 225.359 55.0373 225.068C55.5487 224.775 56.1239 224.628 56.7631 224.628C57.1845 224.628 57.5752 224.687 57.935 224.805C58.2972 224.924 58.618 225.097 58.8974 225.324C59.1767 225.549 59.404 225.825 59.5792 226.151C59.7567 226.478 59.8704 226.852 59.9201 227.273ZM61.0227 232V224.727H62.5604V230.732H65.6783V232H61.0227ZM68.2342 224.727V232H66.6966V224.727H68.2342ZM69.4993 232V224.727H74.3999V225.995H71.0369V227.728H74.1477V228.996H71.0369V230.732H74.4141V232H69.4993ZM81.7054 224.727V232H80.3773L77.2132 227.423H77.16V232H75.6223V224.727H76.9718L80.111 229.301H80.1749V224.727H81.7054ZM82.6989 225.995V224.727H88.6719V225.995H86.4453V232H84.9254V225.995H82.6989ZM89.6555 232V224.727H94.5561V225.995H91.1932V227.728H94.304V228.996H91.1932V230.732H94.5703V232H89.6555Z" fill="#5A6B6F"/>
<path d="M194 238H26C22.6863 238 20 240.686 20 244V258C20 261.314 22.6863 264 26 264H194C197.314 264 200 261.314 200 258V244C200 240.686 197.314 238 194 238Z" fill="#F5F7F8" stroke="#E6EBED"/>
<path d="M25.1243 278.727H26.6619V283.45C26.6619 283.981 26.5353 284.445 26.282 284.842C26.031 285.24 25.6795 285.55 25.2273 285.773C24.7751 285.993 24.2483 286.103 23.647 286.103C23.0433 286.103 22.5154 285.993 22.0632 285.773C21.611 285.55 21.2595 285.24 21.0085 284.842C20.7576 284.445 20.6321 283.981 20.6321 283.45V278.727H22.1697V283.319C22.1697 283.596 22.2301 283.842 22.3509 284.058C22.474 284.273 22.6468 284.442 22.8693 284.565C23.0919 284.688 23.3511 284.75 23.647 284.75C23.9453 284.75 24.2045 284.688 24.4247 284.565C24.6473 284.442 24.8189 284.273 24.9396 284.058C25.0627 283.842 25.1243 283.596 25.1243 283.319V278.727ZM27.927 286V278.727H32.7424V279.995H29.4647V281.728H32.4228V282.996H29.4647V286H27.927ZM38.6692 286H36.0911V278.727H38.6905C39.4221 278.727 40.0518 278.873 40.5797 279.164C41.1077 279.453 41.5137 279.868 41.7978 280.411C42.0842 280.953 42.2275 281.601 42.2275 282.357C42.2275 283.114 42.0842 283.765 41.7978 284.31C41.5137 284.854 41.1053 285.272 40.5726 285.563C40.0423 285.854 39.4078 286 38.6692 286ZM37.6287 284.683H38.6053C39.0598 284.683 39.4422 284.602 39.7523 284.441C40.0648 284.278 40.2992 284.026 40.4554 283.685C40.6141 283.341 40.6934 282.899 40.6934 282.357C40.6934 281.819 40.6141 281.38 40.4554 281.039C40.2992 280.698 40.066 280.447 39.7559 280.286C39.4457 280.125 39.0634 280.045 38.6088 280.045H37.6287V284.683ZM50.0497 282.364C50.0497 283.157 49.8994 283.831 49.5987 284.388C49.3004 284.944 48.8932 285.369 48.3771 285.663C47.8634 285.954 47.2857 286.099 46.6442 286.099C45.9979 286.099 45.4179 285.953 44.9041 285.659C44.3904 285.366 43.9844 284.941 43.6861 284.384C43.3878 283.828 43.2386 283.154 43.2386 282.364C43.2386 281.571 43.3878 280.896 43.6861 280.339C43.9844 279.783 44.3904 279.359 44.9041 279.068C45.4179 278.775 45.9979 278.628 46.6442 278.628C47.2857 278.628 47.8634 278.775 48.3771 279.068C48.8932 279.359 49.3004 279.783 49.5987 280.339C49.8994 280.896 50.0497 281.571 50.0497 282.364ZM48.4908 282.364C48.4908 281.85 48.4138 281.417 48.2599 281.064C48.1084 280.711 47.8942 280.444 47.6172 280.261C47.3402 280.079 47.0159 279.988 46.6442 279.988C46.2725 279.988 45.9482 280.079 45.6712 280.261C45.3942 280.444 45.1787 280.711 45.0249 281.064C44.8733 281.417 44.7976 281.85 44.7976 282.364C44.7976 282.877 44.8733 283.311 45.0249 283.663C45.1787 284.016 45.3942 284.284 45.6712 284.466C45.9482 284.648 46.2725 284.739 46.6442 284.739C47.0159 284.739 47.3402 284.648 47.6172 284.466C47.8942 284.284 48.1084 284.016 48.2599 283.663C48.4138 283.311 48.4908 282.877 48.4908 282.364ZM57.4485 280.819C57.4201 280.532 57.2982 280.31 57.0827 280.151C56.8673 279.993 56.5749 279.913 56.2056 279.913C55.9547 279.913 55.7428 279.949 55.57 280.02C55.3971 280.089 55.2646 280.184 55.1722 280.308C55.0823 280.431 55.0373 280.57 55.0373 280.727C55.0326 280.857 55.0598 280.97 55.119 281.067C55.1805 281.165 55.2646 281.249 55.3711 281.32C55.4776 281.388 55.6007 281.449 55.7404 281.501C55.8801 281.55 56.0292 281.593 56.1879 281.629L56.8413 281.785C57.1585 281.856 57.4497 281.951 57.7148 282.069C57.98 282.187 58.2096 282.333 58.4038 282.506C58.5979 282.679 58.7482 282.882 58.8548 283.116C58.9637 283.351 59.0193 283.62 59.0217 283.923C59.0193 284.368 58.9057 284.754 58.6808 285.08C58.4582 285.405 58.1362 285.657 57.7148 285.837C57.2958 286.014 56.7904 286.103 56.1985 286.103C55.6114 286.103 55.1 286.013 54.6644 285.833C54.2312 285.653 53.8926 285.387 53.6488 285.034C53.4073 284.679 53.2807 284.24 53.2688 283.717H54.7567C54.7733 283.96 54.8432 284.164 54.9663 284.327C55.0917 284.488 55.2586 284.61 55.467 284.693C55.6777 284.774 55.9156 284.814 56.1808 284.814C56.4412 284.814 56.6673 284.776 56.859 284.7C57.0531 284.625 57.2035 284.519 57.31 284.384C57.4165 284.249 57.4698 284.094 57.4698 283.919C57.4698 283.756 57.4213 283.618 57.3242 283.507C57.2295 283.396 57.0898 283.301 56.9052 283.223C56.7229 283.145 56.4992 283.074 56.234 283.01L55.4421 282.811C54.829 282.662 54.3448 282.429 53.9897 282.112C53.6346 281.794 53.4582 281.367 53.4606 280.83C53.4582 280.389 53.5754 280.004 53.8121 279.675C54.0513 279.346 54.3791 279.089 54.7958 278.905C55.2125 278.72 55.686 278.628 56.2163 278.628C56.756 278.628 57.2272 278.72 57.6296 278.905C58.0344 279.089 58.3493 279.346 58.5742 279.675C58.7991 280.004 58.9151 280.386 58.9222 280.819H57.4485ZM60.0559 286V278.727H64.9565V279.995H61.5936V281.728H64.7044V282.996H61.5936V284.732H64.9707V286H60.0559ZM66.179 286V278.727H67.7166V284.732H70.8345V286H66.179ZM71.8528 286V278.727H73.3904V284.732H76.5083V286H71.8528ZM77.5266 286V278.727H82.4272V279.995H79.0643V281.728H82.1751V282.996H79.0643V284.732H82.4414V286H77.5266ZM83.6497 286V278.727H86.519C87.0682 278.727 87.537 278.826 87.9252 279.022C88.3159 279.216 88.613 279.492 88.8166 279.849C89.0225 280.205 89.1255 280.622 89.1255 281.103C89.1255 281.586 89.0214 282.001 88.813 282.349C88.6047 282.695 88.3029 282.96 87.9075 283.145C87.5145 283.33 87.0386 283.422 86.4799 283.422H84.5588V282.186H86.2314C86.5249 282.186 86.7688 282.146 86.9629 282.065C87.157 281.985 87.3014 281.864 87.3961 281.703C87.4932 281.542 87.5417 281.342 87.5417 281.103C87.5417 280.862 87.4932 280.658 87.3961 280.492C87.3014 280.326 87.1558 280.201 86.9593 280.116C86.7652 280.028 86.5202 279.984 86.2243 279.984H85.1873V286H83.6497ZM87.5772 282.69L89.3848 286H87.6873L85.9189 282.69H87.5772Z" fill="#5A6B6F"/>
<path d="M194 292H26C22.6863 292 20 294.686 20 298V312C20 315.314 22.6863 318 26 318H194C197.314 318 200 315.314 200 312V298C200 294.686 197.314 292 194 292Z" fill="#F5F7F8" stroke="#E6EBED"/>
<path d="M27.049 335.273H25.4936C25.4652 335.072 25.4072 334.893 25.3196 334.737C25.232 334.579 25.1196 334.444 24.9822 334.332C24.8449 334.221 24.6863 334.136 24.5064 334.077C24.3288 334.018 24.1359 333.988 23.9276 333.988C23.5511 333.988 23.2232 334.081 22.9439 334.268C22.6645 334.453 22.4479 334.723 22.294 335.078C22.1402 335.431 22.0632 335.859 22.0632 336.364C22.0632 336.882 22.1402 337.318 22.294 337.67C22.4503 338.023 22.6681 338.29 22.9474 338.469C23.2268 338.649 23.55 338.739 23.9169 338.739C24.1229 338.739 24.3134 338.712 24.4886 338.658C24.6662 338.603 24.8236 338.524 24.9609 338.42C25.0982 338.313 25.2119 338.184 25.3018 338.033C25.3942 337.881 25.4581 337.708 25.4936 337.514L27.049 337.521C27.0088 337.855 26.9081 338.177 26.7472 338.487C26.5885 338.795 26.3743 339.071 26.1044 339.315C25.8369 339.556 25.5173 339.748 25.1456 339.89C24.7763 340.03 24.3584 340.099 23.892 340.099C23.2434 340.099 22.6634 339.953 22.152 339.659C21.643 339.366 21.2405 338.941 20.9446 338.384C20.651 337.828 20.5043 337.154 20.5043 336.364C20.5043 335.571 20.6534 334.896 20.9517 334.339C21.25 333.783 21.6548 333.359 22.1662 333.068C22.6776 332.775 23.2528 332.628 23.892 332.628C24.3134 332.628 24.7041 332.687 25.0639 332.805C25.4261 332.924 25.7469 333.097 26.0263 333.324C26.3056 333.549 26.5329 333.825 26.7081 334.151C26.8857 334.478 26.9993 334.852 27.049 335.273ZM29.2685 340H27.6207L30.1314 332.727H32.1129L34.62 340H32.9723L31.1506 334.389H31.0938L29.2685 340ZM29.1655 337.141H33.0575V338.342H29.1655V337.141ZM34.3297 333.995V332.727H40.3027V333.995H38.0762V340H36.5563V333.995H34.3297ZM41.2864 340V332.727H46.187V333.995H42.824V335.728H45.9348V336.996H42.824V338.732H46.2012V340H41.2864ZM52.2319 335.078C52.1822 334.905 52.1123 334.753 52.0224 334.62C51.9324 334.485 51.8223 334.371 51.6921 334.279C51.5643 334.184 51.4175 334.112 51.2518 334.062C51.0884 334.013 50.9073 333.988 50.7085 333.988C50.3368 333.988 50.0101 334.08 49.7283 334.265C49.449 334.45 49.2312 334.718 49.0749 335.071C48.9187 335.421 48.8406 335.85 48.8406 336.357C48.8406 336.863 48.9175 337.294 49.0714 337.649C49.2253 338.004 49.4431 338.275 49.7248 338.462C50.0065 338.647 50.3391 338.739 50.7227 338.739C51.0707 338.739 51.3678 338.678 51.614 338.555C51.8626 338.429 52.052 338.253 52.1822 338.026C52.3147 337.798 52.381 337.53 52.381 337.219L52.6935 337.266H50.8185V336.108H53.8619V337.024C53.8619 337.663 53.7269 338.213 53.457 338.672C53.1871 339.129 52.8155 339.482 52.342 339.73C51.8685 339.976 51.3263 340.099 50.7156 340.099C50.0337 340.099 49.4348 339.949 48.9187 339.648C48.4026 339.345 48.0001 338.916 47.7113 338.359C47.4248 337.801 47.2816 337.138 47.2816 336.371C47.2816 335.781 47.3668 335.256 47.5373 334.794C47.7101 334.33 47.9516 333.937 48.2617 333.615C48.5719 333.293 48.9329 333.048 49.3448 332.88C49.7567 332.712 50.203 332.628 50.6836 332.628C51.0955 332.628 51.479 332.688 51.8342 332.809C52.1893 332.927 52.5041 333.095 52.7788 333.313C53.0558 333.531 53.2818 333.79 53.457 334.091C53.6322 334.389 53.7447 334.718 53.7944 335.078H52.2319ZM61.7001 336.364C61.7001 337.157 61.5498 337.831 61.2491 338.388C60.9508 338.944 60.5436 339.369 60.0275 339.663C59.5138 339.954 58.9361 340.099 58.2946 340.099C57.6483 340.099 57.0682 339.953 56.5545 339.659C56.0408 339.366 55.6348 338.941 55.3365 338.384C55.0382 337.828 54.889 337.154 54.889 336.364C54.889 335.571 55.0382 334.896 55.3365 334.339C55.6348 333.783 56.0408 333.359 56.5545 333.068C57.0682 332.775 57.6483 332.628 58.2946 332.628C58.9361 332.628 59.5138 332.775 60.0275 333.068C60.5436 333.359 60.9508 333.783 61.2491 334.339C61.5498 334.896 61.7001 335.571 61.7001 336.364ZM60.1412 336.364C60.1412 335.85 60.0642 335.417 59.9103 335.064C59.7588 334.711 59.5446 334.444 59.2676 334.261C58.9906 334.079 58.6663 333.988 58.2946 333.988C57.9229 333.988 57.5985 334.079 57.3216 334.261C57.0446 334.444 56.8291 334.711 56.6752 335.064C56.5237 335.417 56.448 335.85 56.448 336.364C56.448 336.877 56.5237 337.311 56.6752 337.663C56.8291 338.016 57.0446 338.284 57.3216 338.466C57.5985 338.648 57.9229 338.739 58.2946 338.739C58.6663 338.739 58.9906 338.648 59.2676 338.466C59.5446 338.284 59.7588 338.016 59.9103 337.663C60.0642 337.311 60.1412 336.877 60.1412 336.364ZM62.8391 340V332.727H65.7085C66.2577 332.727 66.7264 332.826 67.1147 333.022C67.5053 333.216 67.8024 333.492 68.006 333.849C68.212 334.205 68.315 334.622 68.315 335.103C68.315 335.586 68.2108 336.001 68.0025 336.349C67.7942 336.695 67.4923 336.96 67.0969 337.145C66.704 337.33 66.2281 337.422 65.6694 337.422H63.7482V336.186H65.4208C65.7144 336.186 65.9582 336.146 66.1523 336.065C66.3465 335.985 66.4909 335.864 66.5856 335.703C66.6826 335.542 66.7312 335.342 66.7312 335.103C66.7312 334.862 66.6826 334.658 66.5856 334.492C66.4909 334.326 66.3453 334.201 66.1488 334.116C65.9547 334.028 65.7096 333.984 65.4137 333.984H64.3768V340H62.8391ZM66.7667 336.69L68.5742 340H66.8768L65.1083 336.69H66.7667ZM70.9393 332.727V340H69.4016V332.727H70.9393ZM73.4579 340H71.8102L74.3208 332.727H76.3024L78.8095 340H77.1618L75.34 334.389H75.2832L73.4579 340ZM73.3549 337.141H77.247V338.342H73.3549V337.141Z" fill="#5A6B6F"/>
<path d="M194 346H26C22.6863 346 20 348.686 20 352V366C20 369.314 22.6863 372 26 372H194C197.314 372 200 369.314 200 366V352C200 348.686 197.314 346 194 346Z" fill="#F5F7F8" stroke="#E6EBED"/>
<path d="M20.3551 387.995V386.727H26.3281V387.995H24.1016V394H22.5817V387.995H20.3551ZM28.8494 386.727V394H27.3118V386.727H28.8494ZM30.1145 394V386.727H32.9838C33.5355 386.727 34.0054 386.833 34.3936 387.043C34.7819 387.252 35.0778 387.542 35.2814 387.913C35.4874 388.283 35.5904 388.709 35.5904 389.192C35.5904 389.675 35.4862 390.101 35.2779 390.47C35.0695 390.839 34.7677 391.127 34.3723 391.333C33.9793 391.539 33.5035 391.642 32.9448 391.642H31.1159V390.41H32.6962C32.9921 390.41 33.236 390.359 33.4277 390.257C33.6219 390.153 33.7663 390.01 33.861 389.827C33.958 389.643 34.0066 389.431 34.0066 389.192C34.0066 388.95 33.958 388.74 33.861 388.56C33.7663 388.377 33.6219 388.237 33.4277 388.137C33.2336 388.035 32.9874 387.984 32.6891 387.984H31.6522V394H30.1145ZM43.2724 390.364C43.2724 391.157 43.122 391.831 42.8214 392.388C42.5231 392.944 42.1159 393.369 41.5998 393.663C41.0861 393.954 40.5084 394.099 39.8668 394.099C39.2205 394.099 38.6405 393.953 38.1268 393.659C37.613 393.366 37.207 392.941 36.9087 392.384C36.6104 391.828 36.4613 391.154 36.4613 390.364C36.4613 389.571 36.6104 388.896 36.9087 388.339C37.207 387.783 37.613 387.359 38.1268 387.068C38.6405 386.775 39.2205 386.628 39.8668 386.628C40.5084 386.628 41.0861 386.775 41.5998 387.068C42.1159 387.359 42.5231 387.783 42.8214 388.339C43.122 388.896 43.2724 389.571 43.2724 390.364ZM41.7134 390.364C41.7134 389.85 41.6365 389.417 41.4826 389.064C41.3311 388.711 41.1168 388.444 40.8398 388.261C40.5629 388.079 40.2385 387.988 39.8668 387.988C39.4951 387.988 39.1708 388.079 38.8938 388.261C38.6168 388.444 38.4014 388.711 38.2475 389.064C38.096 389.417 38.0202 389.85 38.0202 390.364C38.0202 390.877 38.096 391.311 38.2475 391.663C38.4014 392.016 38.6168 392.284 38.8938 392.466C39.1708 392.648 39.4951 392.739 39.8668 392.739C40.2385 392.739 40.5629 392.648 40.8398 392.466C41.1168 392.284 41.3311 392.016 41.4826 391.663C41.6365 391.311 41.7134 390.877 41.7134 390.364ZM49.304 394H46.7259V386.727H49.3253C50.0568 386.727 50.6866 386.873 51.2145 387.164C51.7424 387.453 52.1484 387.868 52.4325 388.411C52.719 388.953 52.8622 389.601 52.8622 390.357C52.8622 391.114 52.719 391.765 52.4325 392.31C52.1484 392.854 51.7401 393.272 51.2074 393.563C50.6771 393.854 50.0426 394 49.304 394ZM48.2635 392.683H49.2401C49.6946 392.683 50.0769 392.602 50.3871 392.441C50.6996 392.278 50.9339 392.026 51.0902 391.685C51.2488 391.341 51.3281 390.899 51.3281 390.357C51.3281 389.819 51.2488 389.38 51.0902 389.039C50.9339 388.698 50.7008 388.447 50.3906 388.286C50.0805 388.125 49.6982 388.045 49.2436 388.045H48.2635V392.683ZM54.0012 394V386.727H58.9018V387.995H55.5389V389.728H58.6497V390.996H55.5389V392.732H58.916V394H54.0012ZM62.4387 394V386.727H65.3081C65.8597 386.727 66.3296 386.833 66.7179 387.043C67.1061 387.252 67.402 387.542 67.6056 387.913C67.8116 388.283 67.9146 388.709 67.9146 389.192C67.9146 389.675 67.8104 390.101 67.6021 390.47C67.3938 390.839 67.0919 391.127 66.6966 391.333C66.3036 391.539 65.8277 391.642 65.269 391.642H63.4402V390.41H65.0204C65.3163 390.41 65.5602 390.359 65.752 390.257C65.9461 390.153 66.0905 390.01 66.1852 389.827C66.2823 389.643 66.3308 389.431 66.3308 389.192C66.3308 388.95 66.2823 388.74 66.1852 388.56C66.0905 388.377 65.9461 388.237 65.752 388.137C65.5578 388.035 65.3116 387.984 65.0133 387.984H63.9764V394H62.4387ZM69.3271 394H67.6793L70.19 386.727H72.1715L74.6786 394H73.0309L71.2092 388.389H71.1523L69.3271 394ZM69.2241 391.141H73.1161V392.342H69.2241V391.141ZM80.0346 389.078C79.9849 388.905 79.9151 388.753 79.8251 388.62C79.7351 388.485 79.6251 388.371 79.4949 388.279C79.367 388.184 79.2202 388.112 79.0545 388.062C78.8912 388.013 78.71 387.988 78.5112 387.988C78.1395 387.988 77.8128 388.08 77.5311 388.265C77.2517 388.45 77.0339 388.718 76.8777 389.071C76.7214 389.421 76.6433 389.85 76.6433 390.357C76.6433 390.863 76.7202 391.294 76.8741 391.649C77.028 392.004 77.2458 392.275 77.5275 392.462C77.8092 392.647 78.1419 392.739 78.5254 392.739C78.8734 392.739 79.1705 392.678 79.4167 392.555C79.6653 392.429 79.8547 392.253 79.9849 392.026C80.1175 391.798 80.1838 391.53 80.1838 391.219L80.4963 391.266H78.6213V390.108H81.6646V391.024C81.6646 391.663 81.5297 392.213 81.2598 392.672C80.9899 393.129 80.6182 393.482 80.1447 393.73C79.6712 393.976 79.1291 394.099 78.5183 394.099C77.8365 394.099 77.2375 393.949 76.7214 393.648C76.2053 393.345 75.8029 392.916 75.514 392.359C75.2276 391.801 75.0843 391.138 75.0843 390.371C75.0843 389.781 75.1696 389.256 75.34 388.794C75.5128 388.33 75.7543 387.937 76.0645 387.615C76.3746 387.293 76.7356 387.048 77.1475 386.88C77.5595 386.712 78.0057 386.628 78.4863 386.628C78.8983 386.628 79.2818 386.688 79.6369 386.809C79.992 386.927 80.3069 387.095 80.5815 387.313C80.8585 387.531 81.0846 387.79 81.2598 388.091C81.435 388.389 81.5474 388.718 81.5971 389.078H80.0346ZM83.8485 394H82.2008L84.7115 386.727H86.693L89.2001 394H87.5524L85.7306 388.389H85.6738L83.8485 394ZM83.7456 391.141H87.6376V392.342H83.7456V391.141ZM90.0755 386.727H91.9718L93.9746 391.614H94.0598L96.0627 386.727H97.959V394H96.4675V389.266H96.4071L94.525 393.964H93.5094L91.6273 389.249H91.5669V394H90.0755V386.727ZM99.2259 394V386.727H104.126V387.995H100.763V389.728H103.874V390.996H100.763V392.732H104.141V394H99.2259ZM111.432 386.727V394H110.104L106.94 389.423H106.887V394H105.349V386.727H106.698L109.838 391.301H109.901V386.727H111.432ZM112.425 387.995V386.727H118.398V387.995H116.172V394H114.652V387.995H112.425ZM125.733 390.364C125.733 391.157 125.583 391.831 125.282 392.388C124.984 392.944 124.577 393.369 124.061 393.663C123.547 393.954 122.969 394.099 122.328 394.099C121.681 394.099 121.101 393.953 120.588 393.659C120.074 393.366 119.668 392.941 119.37 392.384C119.071 391.828 118.922 391.154 118.922 390.364C118.922 389.571 119.071 388.896 119.37 388.339C119.668 387.783 120.074 387.359 120.588 387.068C121.101 386.775 121.681 386.628 122.328 386.628C122.969 386.628 123.547 386.775 124.061 387.068C124.577 387.359 124.984 387.783 125.282 388.339C125.583 388.896 125.733 389.571 125.733 390.364ZM124.174 390.364C124.174 389.85 124.097 389.417 123.944 389.064C123.792 388.711 123.578 388.444 123.301 388.261C123.024 388.079 122.699 387.988 122.328 387.988C121.956 387.988 121.632 388.079 121.355 388.261C121.078 388.444 120.862 388.711 120.708 389.064C120.557 389.417 120.481 389.85 120.481 390.364C120.481 390.877 120.557 391.311 120.708 391.663C120.862 392.016 121.078 392.284 121.355 392.466C121.632 392.648 121.956 392.739 122.328 392.739C122.699 392.739 123.024 392.648 123.301 392.466C123.578 392.284 123.792 392.016 123.944 391.663C124.097 391.311 124.174 390.877 124.174 390.364Z" fill="#5A6B6F"/>
<path d="M194 400H26C22.6863 400 20 402.686 20 406V420C20 423.314 22.6863 426 26 426H194C197.314 426 200 423.314 200 420V406C200 402.686 197.314 400 194 400Z" fill="#F5F7F8" stroke="#E6EBED"/>
<path d="M24.5774 442.819C24.549 442.532 24.4271 442.31 24.2116 442.151C23.9962 441.993 23.7038 441.913 23.3345 441.913C23.0836 441.913 22.8717 441.949 22.6989 442.02C22.526 442.089 22.3935 442.184 22.3011 442.308C22.2112 442.431 22.1662 442.57 22.1662 442.727C22.1615 442.857 22.1887 442.97 22.2479 443.067C22.3094 443.165 22.3935 443.249 22.5 443.32C22.6065 443.388 22.7296 443.449 22.8693 443.501C23.009 443.55 23.1581 443.593 23.3168 443.629L23.9702 443.785C24.2874 443.856 24.5786 443.951 24.8438 444.069C25.1089 444.187 25.3385 444.333 25.5327 444.506C25.7268 444.679 25.8771 444.882 25.9837 445.116C26.0926 445.351 26.1482 445.62 26.1506 445.923C26.1482 446.368 26.0346 446.754 25.8097 447.08C25.5871 447.405 25.2652 447.657 24.8438 447.837C24.4247 448.014 23.9193 448.103 23.3274 448.103C22.7403 448.103 22.2289 448.013 21.7933 447.833C21.3601 447.653 21.0215 447.387 20.7777 447.034C20.5362 446.679 20.4096 446.24 20.3977 445.717H21.8857C21.9022 445.96 21.9721 446.164 22.0952 446.327C22.2206 446.488 22.3875 446.61 22.5959 446.693C22.8066 446.774 23.0445 446.814 23.3097 446.814C23.5701 446.814 23.7962 446.776 23.9879 446.7C24.1821 446.625 24.3324 446.519 24.4389 446.384C24.5455 446.249 24.5987 446.094 24.5987 445.919C24.5987 445.756 24.5502 445.618 24.4531 445.507C24.3584 445.396 24.2188 445.301 24.0341 445.223C23.8518 445.145 23.6281 445.074 23.3629 445.01L22.571 444.811C21.9579 444.662 21.4737 444.429 21.1186 444.112C20.7635 443.794 20.5871 443.367 20.5895 442.83C20.5871 442.389 20.7043 442.004 20.9411 441.675C21.1802 441.346 21.508 441.089 21.9247 440.905C22.3414 440.72 22.8149 440.628 23.3452 440.628C23.8849 440.628 24.3561 440.72 24.7585 440.905C25.1634 441.089 25.4782 441.346 25.7031 441.675C25.928 442.004 26.044 442.386 26.0511 442.819H24.5774ZM28.7225 440.727V448H27.1848V440.727H28.7225ZM29.7106 441.995V440.727H35.6836V441.995H33.457V448H31.9371V441.995H29.7106ZM41.1594 440.727H42.6971V445.45C42.6971 445.981 42.5704 446.445 42.3171 446.842C42.0662 447.24 41.7146 447.55 41.2624 447.773C40.8103 447.993 40.2835 448.103 39.6822 448.103C39.0785 448.103 38.5505 447.993 38.0984 447.773C37.6462 447.55 37.2946 447.24 37.0437 446.842C36.7927 446.445 36.6673 445.981 36.6673 445.45V440.727H38.2049V445.319C38.2049 445.596 38.2653 445.842 38.386 446.058C38.5091 446.273 38.6819 446.442 38.9045 446.565C39.127 446.688 39.3862 446.75 39.6822 446.75C39.9805 446.75 40.2397 446.688 40.4599 446.565C40.6824 446.442 40.854 446.273 40.9748 446.058C41.0979 445.842 41.1594 445.596 41.1594 445.319V440.727ZM45.2157 448H43.568L46.0787 440.727H48.0602L50.5673 448H48.9196L47.0978 442.389H47.041L45.2157 448ZM45.1127 445.141H49.0048V446.342H45.1127V445.141ZM57.5178 443.273H55.9624C55.9339 443.072 55.8759 442.893 55.7884 442.737C55.7008 442.579 55.5883 442.444 55.451 442.332C55.3137 442.221 55.1551 442.136 54.9751 442.077C54.7976 442.018 54.6046 441.988 54.3963 441.988C54.0199 441.988 53.692 442.081 53.4126 442.268C53.1333 442.453 52.9167 442.723 52.7628 443.078C52.6089 443.431 52.532 443.859 52.532 444.364C52.532 444.882 52.6089 445.318 52.7628 445.67C52.919 446.023 53.1368 446.29 53.4162 446.469C53.6955 446.649 54.0187 446.739 54.3857 446.739C54.5916 446.739 54.7822 446.712 54.9574 446.658C55.1349 446.603 55.2924 446.524 55.4297 446.42C55.567 446.313 55.6806 446.184 55.7706 446.033C55.8629 445.881 55.9268 445.708 55.9624 445.514L57.5178 445.521C57.4775 445.855 57.3769 446.177 57.2159 446.487C57.0573 446.795 56.843 447.071 56.5732 447.315C56.3056 447.556 55.986 447.748 55.6143 447.89C55.245 448.03 54.8272 448.099 54.3608 448.099C53.7121 448.099 53.1321 447.953 52.6207 447.659C52.1117 447.366 51.7093 446.941 51.4134 446.384C51.1198 445.828 50.973 445.154 50.973 444.364C50.973 443.571 51.1222 442.896 51.4205 442.339C51.7188 441.783 52.1236 441.359 52.6349 441.068C53.1463 440.775 53.7216 440.628 54.3608 440.628C54.7822 440.628 55.1728 440.687 55.5327 440.805C55.8949 440.924 56.2157 441.097 56.495 441.324C56.7744 441.549 57.0017 441.825 57.1768 442.151C57.3544 442.478 57.468 442.852 57.5178 443.273ZM53.9808 447.979H54.6768L54.62 448.288C54.8639 448.326 55.0627 448.417 55.2166 448.561C55.3729 448.705 55.4522 448.902 55.4545 449.151C55.4569 449.503 55.2936 449.784 54.9645 449.992C54.6354 450.203 54.1738 450.308 53.5795 450.308L53.5653 449.634C53.8636 449.634 54.0968 449.597 54.2649 449.523C54.4354 449.452 54.5241 449.341 54.5312 449.19C54.536 449.045 54.4804 448.935 54.3643 448.859C54.2483 448.784 54.0672 448.73 53.821 448.7L53.9808 447.979ZM59.7372 448H58.0895L60.6001 440.727H62.5817L65.0888 448H63.4411L61.6193 442.389H61.5625L59.7372 448ZM59.6342 445.141H63.5263V446.342H59.6342V445.141ZM60.5717 440.01L59.7337 439.999C59.7337 439.547 59.8449 439.2 60.0675 438.959C60.29 438.717 60.5634 438.595 60.8878 438.593C61.0535 438.593 61.1955 438.62 61.3139 438.675C61.4323 438.727 61.54 438.788 61.6371 438.859C61.7341 438.93 61.8265 438.993 61.9141 439.048C62.0017 439.1 62.0964 439.126 62.1982 439.126C62.3355 439.123 62.4396 439.072 62.5107 438.973C62.584 438.871 62.6207 438.739 62.6207 438.575L63.4482 438.6C63.4434 439.048 63.3298 439.393 63.1072 439.637C62.8847 439.879 62.6125 440 62.2905 440.003C62.1153 440.005 61.9673 439.979 61.8466 439.925C61.7282 439.87 61.6241 439.809 61.5341 439.74C61.4441 439.669 61.3565 439.606 61.2713 439.552C61.1861 439.497 61.0902 439.47 60.9837 439.47C60.8606 439.47 60.7611 439.519 60.6854 439.616C60.6096 439.713 60.5717 439.844 60.5717 440.01ZM72.3056 444.364C72.3056 445.157 72.1552 445.831 71.8546 446.388C71.5563 446.944 71.1491 447.369 70.633 447.663C70.1193 447.954 69.5416 448.099 68.9 448.099C68.2537 448.099 67.6737 447.953 67.16 447.659C66.6462 447.366 66.2402 446.941 65.9419 446.384C65.6436 445.828 65.4945 445.154 65.4945 444.364C65.4945 443.571 65.6436 442.896 65.9419 442.339C66.2402 441.783 66.6462 441.359 67.16 441.068C67.6737 440.775 68.2537 440.628 68.9 440.628C69.5416 440.628 70.1193 440.775 70.633 441.068C71.1491 441.359 71.5563 441.783 71.8546 442.339C72.1552 442.896 72.3056 443.571 72.3056 444.364ZM70.7466 444.364C70.7466 443.85 70.6697 443.417 70.5158 443.064C70.3643 442.711 70.15 442.444 69.873 442.261C69.5961 442.079 69.2717 441.988 68.9 441.988C68.5283 441.988 68.204 442.079 67.927 442.261C67.65 442.444 67.4346 442.711 67.2807 443.064C67.1292 443.417 67.0534 443.85 67.0534 444.364C67.0534 444.877 67.1292 445.311 67.2807 445.663C67.4346 446.016 67.65 446.284 67.927 446.466C68.204 446.648 68.5283 446.739 68.9 446.739C69.2717 446.739 69.5961 446.648 69.873 446.466C70.15 446.284 70.3643 446.016 70.5158 445.663C70.6697 445.311 70.7466 444.877 70.7466 444.364ZM78.3372 448H75.7591V440.727H78.3585C79.09 440.727 79.7198 440.873 80.2477 441.164C80.7756 441.453 81.1816 441.868 81.4657 442.411C81.7522 442.953 81.8954 443.601 81.8954 444.357C81.8954 445.114 81.7522 445.765 81.4657 446.31C81.1816 446.854 80.7733 447.272 80.2406 447.563C79.7103 447.854 79.0758 448 78.3372 448ZM77.2967 446.683H78.2733C78.7278 446.683 79.1101 446.602 79.4203 446.441C79.7328 446.278 79.9672 446.026 80.1234 445.685C80.282 445.341 80.3613 444.899 80.3613 444.357C80.3613 443.819 80.282 443.38 80.1234 443.039C79.9672 442.698 79.734 442.447 79.4238 442.286C79.1137 442.125 78.7314 442.045 78.2768 442.045H77.2967V446.683ZM83.8778 448H82.2301L84.7408 440.727H86.7223L89.2294 448H87.5817L85.7599 442.389H85.7031L83.8778 448ZM83.7749 445.141H87.6669V446.342H83.7749V445.141ZM92.4192 448V440.727H97.3198V441.995H93.9569V443.728H97.0676V444.996H93.9569V446.732H97.334V448H92.4192ZM104.625 440.727V448H103.297L100.133 443.423H100.08V448H98.5423V440.727H99.8917L103.031 445.301H103.095V440.727H104.625ZM105.619 441.995V440.727H111.592V441.995H109.365V448H107.845V441.995H105.619ZM112.575 448V440.727H115.445C115.994 440.727 116.463 440.826 116.851 441.022C117.242 441.216 117.539 441.492 117.742 441.849C117.948 442.205 118.051 442.622 118.051 443.103C118.051 443.586 117.947 444.001 117.739 444.349C117.53 444.695 117.229 444.96 116.833 445.145C116.44 445.33 115.964 445.422 115.406 445.422H113.485V444.186H115.157C115.451 444.186 115.695 444.146 115.889 444.065C116.083 443.985 116.227 443.864 116.322 443.703C116.419 443.542 116.468 443.342 116.468 443.103C116.468 442.862 116.419 442.658 116.322 442.492C116.227 442.326 116.082 442.201 115.885 442.116C115.691 442.028 115.446 441.984 115.15 441.984H114.113V448H112.575ZM116.503 444.69L118.311 448H116.613L114.845 444.69H116.503ZM119.138 448V440.727H124.039V441.995H120.676V443.728H123.786V444.996H120.676V446.732H124.053V448H119.138ZM130.083 443.078C130.034 442.905 129.964 442.753 129.874 442.62C129.784 442.485 129.674 442.371 129.544 442.279C129.416 442.184 129.269 442.112 129.103 442.062C128.94 442.013 128.759 441.988 128.56 441.988C128.188 441.988 127.862 442.08 127.58 442.265C127.301 442.45 127.083 442.718 126.926 443.071C126.77 443.421 126.692 443.85 126.692 444.357C126.692 444.863 126.769 445.294 126.923 445.649C127.077 446.004 127.295 446.275 127.576 446.462C127.858 446.647 128.191 446.739 128.574 446.739C128.922 446.739 129.219 446.678 129.466 446.555C129.714 446.429 129.904 446.253 130.034 446.026C130.166 445.798 130.233 445.53 130.233 445.219L130.545 445.266H128.67V444.108H131.713V445.024C131.713 445.663 131.578 446.213 131.309 446.672C131.039 447.129 130.667 447.482 130.194 447.73C129.72 447.976 129.178 448.099 128.567 448.099C127.885 448.099 127.286 447.949 126.77 447.648C126.254 447.345 125.852 446.916 125.563 446.359C125.276 445.801 125.133 445.138 125.133 444.371C125.133 443.781 125.218 443.256 125.389 442.794C125.562 442.33 125.803 441.937 126.113 441.615C126.423 441.293 126.784 441.048 127.196 440.88C127.608 440.712 128.055 440.628 128.535 440.628C128.947 440.628 129.331 440.688 129.686 440.809C130.041 440.927 130.356 441.095 130.63 441.313C130.907 441.531 131.133 441.79 131.309 442.091C131.484 442.389 131.596 442.718 131.646 443.078H130.083ZM133.897 448H132.25L134.76 440.727H136.742L139.249 448H137.601L135.779 442.389H135.723L133.897 448ZM133.794 445.141H137.686V446.342H133.794V445.141Z" fill="#5A6B6F"/>
<path d="M993.535 88H254.465C248.685 88 244 91.2047 244 95.1579V420.842C244 424.795 248.685 428 254.465 428H993.535C999.315 428 1004 424.795 1004 420.842V95.1579C1004 91.2047 999.315 88 993.535 88Z" fill="white" stroke="#E6EBED"/>
<path d="M1260.28 88H1024.72C1022.11 88 1020 93.5611 1020 100.421V665.579C1020 672.439 1022.11 678 1024.72 678H1260.28C1262.89 678 1265 672.439 1265 665.579V100.421C1265 93.5611 1262.89 88 1260.28 88Z" fill="white" stroke="#E6EBED"/>
<path d="M485.064 440H247.936C245.762 440 244 444.477 244 450V675C244 680.523 245.762 685 247.936 685H485.064C487.238 685 489 680.523 489 675V450C489 444.477 487.238 440 485.064 440Z" fill="white" stroke="#E6EBED"/>
<path d="M745.064 440H507.936C505.762 440 504 444.477 504 450V675C504 680.523 505.762 685 507.936 685H745.064C747.238 685 749 680.523 749 675V450C749 444.477 747.238 440 745.064 440Z" fill="white" stroke="#E6EBED"/>
<path d="M1003.06 440H765.936C763.762 440 762 444.477 762 450V675C762 680.523 763.762 685 765.936 685H1003.06C1005.24 685 1007 680.523 1007 675V450C1007 444.477 1005.24 440 1003.06 440Z" fill="white" stroke="#E6EBED"/>
<path d="M1280 696H0V720H1280V696Z" fill="white"/>
<path d="M0 696H1280" stroke="#E6EBED"/>
</g>
<defs>
<clipPath id="clip0_354_1347">
<rect width="1280" height="720" fill="white"/>
</clipPath>
</defs>
</svg>
